<svg width="85" height="27" viewBox="0 0 85 27" fill="none" xmlns="http://www.w3.org/2000/svg">
<rect width="85" height="27" fill="#E5E5E5"/>
<g filter="url(#filter0_d)">
<path d="M19.1562 9.82031C19.1562 11.4844 18.8477 12.957 18.2305 14.2383C17.6133 15.5195 16.7344 16.5078 15.5938 17.2031C14.4609 17.8906 13.168 18.2344 11.7148 18.2344C10.2617 18.2344 8.97266 17.9023 7.84766 17.2383C6.72266 16.5664 5.84375 15.6094 5.21094 14.3672C4.58594 13.125 4.25781 11.6992 4.22656 10.0898V9.12891C4.22656 7.45703 4.53125 5.98438 5.14062 4.71094C5.75781 3.42969 6.63672 2.44141 7.77734 1.74609C8.92578 1.05078 10.2305 0.703125 11.6914 0.703125C13.1367 0.703125 14.4258 1.04687 15.5586 1.73438C16.6914 2.42188 17.5703 3.40234 18.1953 4.67578C18.8281 5.94141 19.1484 7.39453 19.1562 9.03516V9.82031ZM14.9727 9.10547C14.9727 7.41016 14.6875 6.125 14.1172 5.25C13.5547 4.36719 12.7461 3.92578 11.6914 3.92578C9.62891 3.92578 8.53906 5.47266 8.42188 8.56641L8.41016 9.82031C8.41016 11.4922 8.6875 12.7773 9.24219 13.6758C9.79688 14.5742 10.6211 15.0234 11.7148 15.0234C12.7539 15.0234 13.5547 14.582 14.1172 13.6992C14.6797 12.8164 14.9648 11.5469 14.9727 9.89062V9.10547ZM28.7656 8.89453L27.4648 8.80078C26.2227 8.80078 25.4258 9.19141 25.0742 9.97266V18H21.125V5.32031H24.8281L24.957 6.94922C25.6211 5.70703 26.5469 5.08594 27.7344 5.08594C28.1562 5.08594 28.5234 5.13281 28.8359 5.22656L28.7656 8.89453ZM34.3555 18H30.3945V5.32031H34.3555V18ZM30.1602 2.05078C30.1602 1.48828 30.3633 1.02734 30.7695 0.667969C31.1758 0.308594 31.7031 0.128906 32.3516 0.128906C33 0.128906 33.5273 0.308594 33.9336 0.667969C34.3398 1.02734 34.543 1.48828 34.543 2.05078C34.543 2.61328 34.3398 3.07422 33.9336 3.43359C33.5273 3.79297 33 3.97266 32.3516 3.97266C31.7031 3.97266 31.1758 3.79297 30.7695 3.43359C30.3633 3.07422 30.1602 2.61328 30.1602 2.05078ZM42.1602 15.1875C42.7148 15.1875 43.1445 15.0391 43.4492 14.7422C43.7539 14.4375 43.9023 14.0156 43.8945 13.4766H47.5977C47.5977 14.8672 47.0977 16.0078 46.0977 16.8984C45.1055 17.7891 43.8242 18.2344 42.2539 18.2344C40.4102 18.2344 38.957 17.6562 37.8945 16.5C36.832 15.3438 36.3008 13.7422 36.3008 11.6953V11.5312C36.3008 10.25 36.5352 9.12109 37.0039 8.14453C37.4805 7.16016 38.1641 6.40625 39.0547 5.88281C39.9453 5.35156 41 5.08594 42.2188 5.08594C43.8672 5.08594 45.1758 5.54297 46.1445 6.45703C47.1133 7.37109 47.5977 8.60938 47.5977 10.1719H43.8945C43.8945 9.51562 43.7344 9.01172 43.4141 8.66016C43.0938 8.30859 42.6641 8.13281 42.125 8.13281C41.1016 8.13281 40.5039 8.78516 40.332 10.0898C40.2773 10.5039 40.25 11.0742 40.25 11.8008C40.25 13.0742 40.4023 13.957 40.707 14.4492C41.0117 14.9414 41.4961 15.1875 42.1602 15.1875ZM56.4102 18C56.2695 17.7422 56.1445 17.3633 56.0352 16.8633C55.3086 17.7773 54.293 18.2344 52.9883 18.2344C51.793 18.2344 50.7773 17.875 49.9414 17.1562C49.1055 16.4297 48.6875 15.5195 48.6875 14.4258C48.6875 13.0508 49.1953 12.0117 50.2109 11.3086C51.2266 10.6055 52.7031 10.2539 54.6406 10.2539H55.8594V9.58594C55.8594 8.42188 55.3555 7.83984 54.3477 7.83984C53.4102 7.83984 52.9414 8.30078 52.9414 9.22266H48.9922C48.9922 7.99609 49.5117 7 50.5508 6.23438C51.5977 5.46875 52.9297 5.08594 54.5469 5.08594C56.1641 5.08594 57.4414 5.48047 58.3789 6.26953C59.3164 7.05859 59.7969 8.14062 59.8203 9.51562V15.1289C59.8359 16.293 60.0156 17.1836 60.3594 17.8008V18H56.4102ZM53.9375 15.4219C54.4297 15.4219 54.8359 15.3164 55.1562 15.1055C55.4844 14.8945 55.7188 14.6562 55.8594 14.3906V12.3633H54.7109C53.3359 12.3633 52.6484 12.9805 52.6484 14.2148C52.6484 14.5742 52.7695 14.8672 53.0117 15.0938C53.2539 15.3125 53.5625 15.4219 53.9375 15.4219ZM65.75 5.32031L65.8789 6.80859C66.7773 5.66016 67.9844 5.08594 69.5 5.08594C71.1016 5.08594 72.1836 5.72266 72.7461 6.99609C73.6055 5.72266 74.8477 5.08594 76.4727 5.08594C79.043 5.08594 80.3633 6.64062 80.4336 9.75V18H76.4727V9.99609C76.4727 9.34766 76.3633 8.875 76.1445 8.57812C75.9258 8.28125 75.5273 8.13281 74.9492 8.13281C74.168 8.13281 73.5859 8.48047 73.2031 9.17578L73.2148 9.33984V18H69.2539V10.0195C69.2539 9.35547 69.1484 8.875 68.9375 8.57812C68.7266 8.28125 68.3242 8.13281 67.7305 8.13281C66.9727 8.13281 66.3945 8.48047 65.9961 9.17578V18H62.0469V5.32031H65.75Z" fill="black"/>
</g>
<defs>
<filter id="filter0_d" x="0.226562" y="0.128906" width="84.207" height="26.1055" filterUnits="userSpaceOnUse" color-interpolation-filters="sRGB">
<feFlood flood-opacity="0" result="BackgroundImageFix"/>
<feColorMatrix in="SourceAlpha" type="matrix" values="0 0 0 0 0 0 0 0 0 0 0 0 0 0 0 0 0 0 127 0"/>
<feOffset dy="4"/>
<feGaussianBlur stdDeviation="2"/>
<feColorMatrix type="matrix" values="0 0 0 0 0 0 0 0 0 0 0 0 0 0 0 0 0 0 0.25 0"/>
<feBlend mode="normal" in2="BackgroundImageFix" result="effect1_dropShadow"/>
<feBlend mode="normal" in="SourceGraphic" in2="effect1_dropShadow" result="shape"/>
</filter>
</defs>
</svg>
