<svg width="165" height="28" viewBox="0 0 165 28" fill="none" xmlns="http://www.w3.org/2000/svg">
<path d="M31.92 26.366V28H0V26.366H8.702C6.62467 25.1753 4.978 23.5413 3.762 21.464C2.57133 19.3867 1.976 17.0687 1.976 14.51C1.976 10.6087 3.31867 7.35333 6.004 4.744C8.68933 2.10933 12.008 0.791999 15.96 0.791999C19.912 0.791999 23.2307 2.10933 25.916 4.744C28.6013 7.35333 29.944 10.6087 29.944 14.51C29.944 17.0433 29.336 19.3613 28.12 21.464C26.9293 23.5667 25.2953 25.2007 23.218 26.366H31.92ZM22.61 7.708C20.8113 5.83333 18.5947 4.896 15.96 4.896C13.3253 4.896 11.096 5.83333 9.272 7.708C7.47333 9.58267 6.574 11.8627 6.574 14.548C6.574 17.208 7.47333 19.4753 9.272 21.35C11.096 23.2247 13.3253 24.162 15.96 24.162C18.5947 24.162 20.8113 23.2247 22.61 21.35C24.434 19.4753 25.346 17.208 25.346 14.548C25.346 11.8627 24.434 9.58267 22.61 7.708ZM60.5281 26.366V28H52.3201L45.9741 19.07H40.0841V28H31.9141V26.366H35.6001V1.438H45.4801C49.5334 1.438 52.4341 2.122 54.1821 3.49C55.9301 4.858 56.8041 7.04933 56.8041 10.064C56.8041 14.4467 54.8914 17.208 51.0661 18.348L56.8421 26.366H60.5281ZM45.6701 15.004C48.2034 15.004 49.9261 14.6113 50.8381 13.826C51.7501 13.0407 52.2061 11.7867 52.2061 10.064C52.2061 8.316 51.7374 7.12533 50.8001 6.492C49.8627 5.83333 48.1907 5.504 45.7841 5.504H40.0841V15.004H45.6701ZM63.2465 26.366V1.438H67.7305V26.366H71.4165V28H59.5605V26.366H63.2465ZM99.3664 26.366V28H71.3984V26.366H79.8344C77.8331 25.1753 76.2498 23.554 75.0844 21.502C73.9444 19.45 73.3744 17.132 73.3744 14.548C73.3744 10.6467 74.7171 7.37867 77.4024 4.744C80.1131 2.10933 83.5204 0.791999 87.6244 0.791999C91.7538 0.791999 95.1991 2.312 97.9604 5.352L95.1104 8.468C93.8438 7.252 92.6404 6.40333 91.5004 5.922C90.3858 5.44067 89.0684 5.2 87.5484 5.2C84.8631 5.2 82.6084 6.074 80.7844 7.822C78.9604 9.54467 78.0484 11.7613 78.0484 14.472C78.0484 17.1573 78.9478 19.412 80.7464 21.236C82.5704 23.0347 84.7238 23.934 87.2064 23.934C88.7518 23.934 90.0818 23.6807 91.1964 23.174C92.3111 22.642 93.4764 21.806 94.6924 20.666L97.5804 23.63C96.4658 24.846 95.4018 25.758 94.3884 26.366H99.3664ZM131.261 26.366V28H122.787L120.127 21.958H106.827L104.167 28H95.6929V26.366H100.101L111.083 1.438H115.871L126.853 26.366H131.261ZM118.303 17.816L113.477 6.872L108.651 17.816H118.303ZM164.936 26.366V28H156.766V7.252L147.494 25.682H144.986L135.752 7.252V28H127.582V26.366H131.268V1.438H138.26L146.278 18.12L154.296 1.438H161.25V26.366H164.936Z" fill="white"/>
</svg>
