<svg width="130" height="28" viewBox="0 0 130 28" fill="none" xmlns="http://www.w3.org/2000/svg">
<g filter="url(#filter0_i)">
<path d="M1.33789 15.7188C0.830729 15.7188 0.577148 15.7188 0.577148 15.7188C0.577148 15.7188 0.564779 15.4837 0.540039 15.0137C0.527669 14.5436 0.521484 14.3086 0.521484 14.3086C0.521484 14.3086 0.78125 14.3086 1.30078 14.3086C1.79557 14.3086 2.04297 14.3086 2.04297 14.3086C2.04297 14.3086 2.04297 14.5436 2.04297 15.0137C2.06771 15.4837 2.08008 15.7188 2.08008 15.7188C2.08008 15.7188 1.83268 15.7188 1.33789 15.7188ZM1.30078 14.3086C0.78125 14.3086 0.521484 14.3086 0.521484 14.3086C0.521484 14.3086 0.527669 14.0736 0.540039 13.6035C0.564779 13.1335 0.577148 12.8984 0.577148 12.8984C0.577148 12.8984 0.818359 12.8984 1.30078 12.8984C1.82031 12.8984 2.08008 12.8984 2.08008 12.8984C2.08008 12.8984 2.06771 13.1335 2.04297 13.6035C2.04297 14.0736 2.04297 14.3086 2.04297 14.3086C2.04297 14.3086 1.79557 14.3086 1.30078 14.3086ZM2.91504 15.7188C2.3584 15.7188 2.08008 15.7188 2.08008 15.7188C2.08008 15.7188 2.06771 15.4837 2.04297 15.0137C2.04297 14.5436 2.04297 14.3086 2.04297 14.3086C2.04297 14.3086 2.32129 14.3086 2.87793 14.3086C3.39746 14.3086 3.65723 14.3086 3.65723 14.3086C3.65723 14.3086 3.66341 14.5436 3.67578 15.0137C3.71289 15.4837 3.73145 15.7188 3.73145 15.7188C3.73145 15.7188 3.45931 15.7188 2.91504 15.7188ZM2.87793 14.3086C2.32129 14.3086 2.04297 14.3086 2.04297 14.3086C2.04297 14.3086 2.04297 14.0736 2.04297 13.6035C2.06771 13.1335 2.08008 12.8984 2.08008 12.8984C2.08008 12.8984 2.34603 12.8984 2.87793 12.8984C3.44694 12.8984 3.73145 12.8984 3.73145 12.8984C3.73145 12.8984 3.71289 13.1335 3.67578 13.6035C3.66341 14.0736 3.65723 14.3086 3.65723 14.3086C3.65723 14.3086 3.39746 14.3086 2.87793 14.3086ZM1.33789 12.8984C0.830729 12.8984 0.577148 12.8984 0.577148 12.8984C0.577148 12.8984 0.601888 12.6387 0.651367 12.1191C0.824544 10.8327 1.22038 9.54622 1.83887 8.25977C2.46973 6.96094 3.29232 5.81673 4.30664 4.82715C5.33333 3.8252 6.46517 2.99642 7.70215 2.34082C8.9515 1.67285 10.3493 1.24609 11.8955 1.06055C12.4274 1.02344 12.6934 1.00488 12.6934 1.00488C12.6934 1.00488 12.6934 1.25228 12.6934 1.74707C12.6934 2.21712 12.6934 2.45215 12.6934 2.45215C12.6934 2.45215 12.4336 2.47689 11.9141 2.52637C10.6152 2.68717 9.42155 3.05208 8.33301 3.62109C7.24447 4.17773 6.26725 4.88281 5.40137 5.73633C4.53548 6.58984 3.83659 7.58561 3.30469 8.72363C2.77279 9.84928 2.40788 10.9935 2.20996 12.1562C2.14811 12.651 2.11719 12.8984 2.11719 12.8984C2.11719 12.8984 1.85742 12.8984 1.33789 12.8984ZM2.91504 12.8984C2.38314 12.8984 2.11719 12.8984 2.11719 12.8984C2.11719 12.8984 2.14811 12.651 2.20996 12.1562C2.40788 10.9935 2.77279 9.84928 3.30469 8.72363C3.83659 7.58561 4.53548 6.58984 5.40137 5.73633C6.26725 4.88281 7.24447 4.17773 8.33301 3.62109C9.42155 3.05208 10.6152 2.68717 11.9141 2.52637C12.4336 2.47689 12.6934 2.45215 12.6934 2.45215C12.6934 2.45215 12.6934 2.68099 12.6934 3.13867C12.6934 3.6582 12.6934 3.91797 12.6934 3.91797C12.6934 3.91797 12.4398 3.94889 11.9326 4.01074C10.8317 4.19629 9.80501 4.52409 8.85254 4.99414C7.90007 5.45182 7.07747 6.03939 6.38477 6.75684C5.69206 7.47428 5.13542 8.31543 4.71484 9.28027C4.29427 10.2327 4.00358 11.21 3.84277 12.2119C3.76855 12.6696 3.73145 12.8984 3.73145 12.8984C3.73145 12.8984 3.45931 12.8984 2.91504 12.8984ZM13.4912 3.84375C12.9593 3.89323 12.6934 3.91797 12.6934 3.91797C12.6934 3.91797 12.6934 3.65202 12.6934 3.12012C12.6934 2.6748 12.6934 2.45215 12.6934 2.45215C12.6934 2.45215 12.9531 2.42741 13.4727 2.37793C13.9674 2.36556 14.2148 2.35938 14.2148 2.35938C14.2148 2.35938 14.2148 2.60059 14.2148 3.08301C14.2148 3.5778 14.2148 3.8252 14.2148 3.8252C14.2148 3.8252 13.9736 3.83138 13.4912 3.84375ZM13.4727 2.37793C12.9531 2.42741 12.6934 2.45215 12.6934 2.45215C12.6934 2.45215 12.6934 2.22331 12.6934 1.76562C12.6934 1.25846 12.6934 1.00488 12.6934 1.00488C12.6934 1.00488 12.9469 0.992513 13.4541 0.967773C13.9613 0.955404 14.2148 0.949219 14.2148 0.949219C14.2148 0.949219 14.2148 1.19661 14.2148 1.69141C14.2148 2.13672 14.2148 2.35938 14.2148 2.35938C14.2148 2.35938 13.9674 2.36556 13.4727 2.37793ZM14.9385 3.84375C14.4561 3.83138 14.2148 3.8252 14.2148 3.8252C14.2148 3.8252 14.2148 3.5778 14.2148 3.08301C14.2148 2.60059 14.2148 2.35938 14.2148 2.35938C14.2148 2.35938 14.4622 2.36556 14.957 2.37793C15.4766 2.41504 15.7363 2.43359 15.7363 2.43359C15.7363 2.43359 15.7363 2.66862 15.7363 3.13867C15.7363 3.6582 15.7363 3.91797 15.7363 3.91797C15.7363 3.91797 15.4704 3.89323 14.9385 3.84375ZM14.957 2.37793C14.4622 2.36556 14.2148 2.35938 14.2148 2.35938C14.2148 2.35938 14.2148 2.13672 14.2148 1.69141C14.2148 1.19661 14.2148 0.949219 14.2148 0.949219C14.2148 0.949219 14.4684 0.955404 14.9756 0.967773C15.4827 1.00488 15.7363 1.02344 15.7363 1.02344C15.7363 1.02344 15.7363 1.26465 15.7363 1.74707C15.7363 2.20475 15.7363 2.43359 15.7363 2.43359C15.7363 2.43359 15.4766 2.41504 14.957 2.37793ZM27.0918 12.8984C26.5475 12.8984 26.2754 12.8984 26.2754 12.8984C26.2754 12.8984 26.2445 12.6572 26.1826 12.1748C25.9476 10.8512 25.5023 9.62044 24.8467 8.48242C24.1911 7.3444 23.3685 6.33008 22.3789 5.43945C21.612 4.73438 20.7832 4.13444 19.8926 3.63965C19.002 3.14486 17.9072 2.77995 16.6084 2.54492C16.027 2.4707 15.7363 2.43359 15.7363 2.43359C15.7363 2.43359 15.7363 2.24186 15.7363 1.8584C15.7363 1.30176 15.7363 1.02344 15.7363 1.02344C15.7363 1.02344 16.0332 1.05436 16.627 1.11621C17.8763 1.28939 19.0638 1.64193 20.1895 2.17383C21.3151 2.69336 22.3789 3.39225 23.3809 4.27051C24.5312 5.26009 25.4961 6.42904 26.2754 7.77734C27.0671 9.11328 27.568 10.5544 27.7783 12.1006C27.8278 12.6325 27.8525 12.8984 27.8525 12.8984C27.8525 12.8984 27.599 12.8984 27.0918 12.8984ZM25.5146 12.8984C24.9704 12.8984 24.6982 12.8984 24.6982 12.8984C24.6982 12.8984 24.6611 12.6758 24.5869 12.2305C24.4014 11.1543 24.0365 10.1338 23.4922 9.16895C22.9603 8.19173 22.2861 7.31966 21.4697 6.55273C20.6657 5.79818 19.8926 5.23535 19.1504 4.86426C18.4206 4.48079 17.5361 4.19629 16.4971 4.01074C15.9899 3.94889 15.7363 3.91797 15.7363 3.91797C15.7363 3.91797 15.7363 3.67057 15.7363 3.17578C15.7363 2.68099 15.7363 2.43359 15.7363 2.43359C15.7363 2.43359 16.027 2.4707 16.6084 2.54492C17.9072 2.77995 19.002 3.14486 19.8926 3.63965C20.7832 4.13444 21.612 4.73438 22.3789 5.43945C23.3685 6.33008 24.1911 7.3444 24.8467 8.48242C25.5023 9.62044 25.9476 10.8512 26.1826 12.1748C26.2445 12.6572 26.2754 12.8984 26.2754 12.8984C26.2754 12.8984 26.0218 12.8984 25.5146 12.8984ZM25.5146 15.7188C24.9704 15.7188 24.6982 15.7188 24.6982 15.7188C24.6982 15.7188 24.7168 15.4837 24.7539 15.0137C24.7663 14.5436 24.7725 14.3086 24.7725 14.3086C24.7725 14.3086 25.0322 14.3086 25.5518 14.3086C26.0837 14.3086 26.3496 14.3086 26.3496 14.3086C26.3496 14.3086 26.3496 14.5436 26.3496 15.0137C26.3249 15.4837 26.3125 15.7188 26.3125 15.7188C26.3125 15.7188 26.0465 15.7188 25.5146 15.7188ZM25.5518 14.3086C25.0322 14.3086 24.7725 14.3086 24.7725 14.3086C24.7725 14.3086 24.7663 14.0736 24.7539 13.6035C24.7168 13.1335 24.6982 12.8984 24.6982 12.8984C24.6982 12.8984 24.9827 12.8984 25.5518 12.8984C26.0713 12.8984 26.3311 12.8984 26.3311 12.8984C26.3311 12.8984 26.3372 13.1335 26.3496 13.6035C26.3496 14.0736 26.3496 14.3086 26.3496 14.3086C26.3496 14.3086 26.0837 14.3086 25.5518 14.3086ZM27.0918 15.7188C26.5723 15.7188 26.3125 15.7188 26.3125 15.7188C26.3125 15.7188 26.3249 15.4837 26.3496 15.0137C26.3496 14.5436 26.3496 14.3086 26.3496 14.3086C26.3496 14.3086 26.6094 14.3086 27.1289 14.3086C27.6484 14.3086 27.9082 14.3086 27.9082 14.3086C27.9082 14.3086 27.902 14.5436 27.8896 15.0137C27.8649 15.4837 27.8525 15.7188 27.8525 15.7188C27.8525 15.7188 27.599 15.7188 27.0918 15.7188ZM27.1289 14.3086C26.6094 14.3086 26.3496 14.3086 26.3496 14.3086C26.3496 14.3086 26.3496 14.0736 26.3496 13.6035C26.3372 13.1335 26.3311 12.8984 26.3311 12.8984C26.3311 12.8984 26.597 12.8984 27.1289 12.8984C27.6113 12.8984 27.8525 12.8984 27.8525 12.8984C27.8525 12.8984 27.8649 13.1335 27.8896 13.6035C27.902 14.0736 27.9082 14.3086 27.9082 14.3086C27.9082 14.3086 27.6484 14.3086 27.1289 14.3086ZM16.6826 27.3896C16.0518 27.4391 15.7363 27.4639 15.7363 27.4639C15.7363 27.4639 15.7363 27.2412 15.7363 26.7959C15.7363 26.3382 15.7363 26.1094 15.7363 26.1094C15.7363 26.1094 16.0332 26.0723 16.627 25.998C17.7155 25.8125 18.8164 25.4352 19.9297 24.8662C21.0553 24.2972 22.0511 23.5921 22.917 22.751C23.7829 21.9098 24.5003 20.945 25.0693 19.8564C25.6383 18.7555 26.0218 17.6175 26.2197 16.4424C26.2816 15.96 26.3125 15.7188 26.3125 15.7188C26.3125 15.7188 26.5723 15.7188 27.0918 15.7188C27.599 15.7188 27.8525 15.7188 27.8525 15.7188C27.8525 15.7188 27.8278 15.9785 27.7783 16.498C27.6051 17.7845 27.1846 19.0586 26.5166 20.3203C25.861 21.5697 25.026 22.6891 24.0117 23.6787C22.985 24.6807 21.8099 25.5156 20.4863 26.1836C19.1628 26.8392 17.8949 27.2412 16.6826 27.3896ZM16.627 25.998C16.0332 26.0723 15.7363 26.1094 15.7363 26.1094C15.7363 26.1094 15.7363 25.8805 15.7363 25.4229C15.7363 24.9404 15.7363 24.6992 15.7363 24.6992C15.7363 24.6992 15.9899 24.6745 16.4971 24.625C17.598 24.4271 18.6061 24.0807 19.5215 23.5859C20.4368 23.0788 21.2409 22.4665 21.9336 21.749C22.6263 21.0316 23.2015 20.2152 23.6592 19.2998C24.1169 18.3721 24.4261 17.4072 24.5869 16.4053C24.6611 15.9476 24.6982 15.7188 24.6982 15.7188C24.6982 15.7188 24.9704 15.7188 25.5146 15.7188C26.0465 15.7188 26.3125 15.7188 26.3125 15.7188C26.3125 15.7188 26.2816 15.96 26.2197 16.4424C26.0218 17.6175 25.6383 18.7555 25.0693 19.8564C24.5003 20.945 23.7829 21.9098 22.917 22.751C22.0511 23.5921 21.0553 24.2972 19.9297 24.8662C18.8164 25.4352 17.7155 25.8125 16.627 25.998ZM13.4541 27.5195C12.9469 27.4824 12.6934 27.4639 12.6934 27.4639C12.6934 27.4639 12.6934 27.2288 12.6934 26.7588C12.6934 26.3011 12.6934 26.0723 12.6934 26.0723C12.6934 26.0723 12.9531 26.1032 13.4727 26.165C13.9674 26.1774 14.2148 26.1836 14.2148 26.1836C14.2148 26.1836 14.2148 26.4001 14.2148 26.833C14.2148 27.3031 14.2148 27.5381 14.2148 27.5381C14.2148 27.5381 13.9613 27.5319 13.4541 27.5195ZM13.4727 26.165C12.9531 26.1032 12.6934 26.0723 12.6934 26.0723C12.6934 26.0723 12.6934 25.8682 12.6934 25.46C12.6934 24.9528 12.6934 24.6992 12.6934 24.6992C12.6934 24.6992 12.9593 24.724 13.4912 24.7734C13.9736 24.7858 14.2148 24.792 14.2148 24.792C14.2148 24.792 14.2148 25.027 14.2148 25.4971C14.2148 25.9548 14.2148 26.1836 14.2148 26.1836C14.2148 26.1836 13.9674 26.1774 13.4727 26.165ZM14.9756 27.5195C14.4684 27.5319 14.2148 27.5381 14.2148 27.5381C14.2148 27.5381 14.2148 27.3031 14.2148 26.833C14.2148 26.4001 14.2148 26.1836 14.2148 26.1836C14.2148 26.1836 14.4622 26.1774 14.957 26.165C15.4766 26.1156 15.7363 26.0908 15.7363 26.0908C15.7363 26.0908 15.7363 26.3135 15.7363 26.7588C15.7363 27.2288 15.7363 27.4639 15.7363 27.4639C15.7363 27.4639 15.4827 27.4824 14.9756 27.5195ZM14.957 26.165C14.4622 26.1774 14.2148 26.1836 14.2148 26.1836C14.2148 26.1836 14.2148 25.9548 14.2148 25.4971C14.2148 25.027 14.2148 24.792 14.2148 24.792C14.2148 24.792 14.4561 24.7858 14.9385 24.7734C15.4704 24.724 15.7363 24.6992 15.7363 24.6992C15.7363 24.6992 15.7363 24.9466 15.7363 25.4414C15.7363 25.8743 15.7363 26.0908 15.7363 26.0908C15.7363 26.0908 15.4766 26.1156 14.957 26.165ZM11.8955 27.3711C10.609 27.1608 9.38444 26.8145 8.22168 26.332C7.05892 25.8496 5.97656 25.1755 4.97461 24.3096C3.82422 23.3324 2.86556 22.1696 2.09863 20.8213C1.34408 19.473 0.861654 18.0319 0.651367 16.498C0.601888 15.9785 0.577148 15.7188 0.577148 15.7188C0.577148 15.7188 0.830729 15.7188 1.33789 15.7188C1.88216 15.7188 2.1543 15.7188 2.1543 15.7188C2.1543 15.7188 2.18522 15.96 2.24707 16.4424C2.4821 17.766 2.91504 19.0091 3.5459 20.1719C4.17676 21.3346 4.98698 22.3613 5.97656 23.252C6.74349 23.957 7.60938 24.526 8.57422 24.959C9.53906 25.3919 10.6214 25.7259 11.8213 25.9609C12.4027 26.0475 12.6934 26.0908 12.6934 26.0908C12.6934 26.0908 12.6934 26.3135 12.6934 26.7588C12.6934 27.2288 12.6934 27.4639 12.6934 27.4639C12.6934 27.4639 12.4274 27.4329 11.8955 27.3711ZM11.8213 25.9609C10.6214 25.7259 9.53906 25.3919 8.57422 24.959C7.60938 24.526 6.74349 23.957 5.97656 23.252C4.98698 22.3613 4.17676 21.3346 3.5459 20.1719C2.91504 19.0091 2.4821 17.766 2.24707 16.4424C2.18522 15.96 2.1543 15.7188 2.1543 15.7188C2.1543 15.7188 2.40788 15.7188 2.91504 15.7188C3.45931 15.7188 3.73145 15.7188 3.73145 15.7188C3.73145 15.7188 3.76855 15.9414 3.84277 16.3867C4.02832 17.4629 4.37467 18.502 4.88184 19.5039C5.40137 20.4935 6.06934 21.3717 6.88574 22.1387C7.68978 22.8932 8.46908 23.4561 9.22363 23.8271C9.97819 24.1859 10.8874 24.4518 11.9512 24.625C12.446 24.6745 12.6934 24.6992 12.6934 24.6992C12.6934 24.6992 12.6934 24.9466 12.6934 25.4414C12.6934 25.8743 12.6934 26.0908 12.6934 26.0908C12.6934 26.0908 12.4027 26.0475 11.8213 25.9609ZM33.2334 24.1797C32.7262 24.1797 32.4727 24.1797 32.4727 24.1797C32.4727 24.1797 32.4727 23.9447 32.4727 23.4746C32.4727 23.0046 32.4727 22.7139 32.4727 22.6025C32.4727 22.4788 32.4727 22.0397 32.4727 21.2852C32.4727 20.543 32.4727 20.1162 32.4727 20.0049C32.4727 19.8936 32.4727 19.6029 32.4727 19.1328C32.4727 18.6628 32.4727 18.4277 32.4727 18.4277C32.4727 18.4277 32.7262 18.4277 33.2334 18.4277C33.7406 18.4277 33.9941 18.4277 33.9941 18.4277C33.9941 18.4277 33.9941 18.6628 33.9941 19.1328C33.9941 19.6029 33.9941 19.8936 33.9941 20.0049C33.9941 20.1162 33.9941 20.543 33.9941 21.2852C33.9941 22.0397 33.9941 22.4788 33.9941 22.6025C33.9941 22.7139 33.9941 23.0046 33.9941 23.4746C33.9941 23.9447 33.9941 24.1797 33.9941 24.1797C33.9941 24.1797 33.7406 24.1797 33.2334 24.1797ZM33.2334 15.6074C32.7262 15.6074 32.4727 15.6074 32.4727 15.6074C32.4727 15.6074 32.4727 15.3724 32.4727 14.9023C32.4727 14.4323 32.4727 13.8571 32.4727 13.1768C32.4727 12.484 32.4727 11.4264 32.4727 10.0039C32.4727 8.64323 32.4727 7.61035 32.4727 6.90527C32.4727 6.2002 32.4727 5.61263 32.4727 5.14258C32.4727 4.67253 32.4727 4.4375 32.4727 4.4375C32.4727 4.4375 32.7262 4.4375 33.2334 4.4375C33.7406 4.4375 33.9941 4.4375 33.9941 4.4375C33.9941 4.4375 33.9941 4.67253 33.9941 5.14258C33.9941 5.61263 33.9941 6.2002 33.9941 6.90527C33.9941 7.61035 33.9941 8.64323 33.9941 10.0039C33.9941 11.4264 33.9941 12.484 33.9941 13.1768C33.9941 13.8571 33.9941 14.4323 33.9941 14.9023C33.9941 15.3724 33.9941 15.6074 33.9941 15.6074C33.9941 15.6074 33.7406 15.6074 33.2334 15.6074ZM34.7549 24.1797C34.2477 24.1797 33.9941 24.1797 33.9941 24.1797C33.9941 24.1797 33.9941 23.9447 33.9941 23.4746C33.9941 23.0046 33.9941 22.7139 33.9941 22.6025C33.9941 22.4788 33.9941 22.0397 33.9941 21.2852C33.9941 20.543 33.9941 20.1162 33.9941 20.0049C33.9941 19.8936 33.9941 19.6029 33.9941 19.1328C33.9941 18.6628 33.9941 18.4277 33.9941 18.4277C33.9941 18.4277 34.2477 18.4277 34.7549 18.4277C35.262 18.4277 35.5156 18.4277 35.5156 18.4277C35.5156 18.4277 35.5156 18.6628 35.5156 19.1328C35.5156 19.6029 35.5156 19.8936 35.5156 20.0049C35.5156 20.1162 35.5156 20.543 35.5156 21.2852C35.5156 22.0397 35.5156 22.4788 35.5156 22.6025C35.5156 22.7139 35.5156 23.0046 35.5156 23.4746C35.5156 23.9447 35.5156 24.1797 35.5156 24.1797C35.5156 24.1797 35.262 24.1797 34.7549 24.1797ZM34.7549 15.6074C34.2477 15.6074 33.9941 15.6074 33.9941 15.6074C33.9941 15.6074 33.9941 15.3724 33.9941 14.9023C33.9941 14.4323 33.9941 13.8571 33.9941 13.1768C33.9941 12.484 33.9941 11.4264 33.9941 10.0039C33.9941 8.64323 33.9941 7.61035 33.9941 6.90527C33.9941 6.2002 33.9941 5.61263 33.9941 5.14258C33.9941 4.67253 33.9941 4.4375 33.9941 4.4375C33.9941 4.4375 34.2477 4.4375 34.7549 4.4375C35.262 4.4375 35.5156 4.4375 35.5156 4.4375C35.5156 4.4375 35.5156 4.67253 35.5156 5.14258C35.5156 5.61263 35.5156 6.2002 35.5156 6.90527C35.5156 7.61035 35.5156 8.64323 35.5156 10.0039C35.5156 11.4264 35.5156 12.484 35.5156 13.1768C35.5156 13.8571 35.5156 14.4323 35.5156 14.9023C35.5156 15.3724 35.5156 15.6074 35.5156 15.6074C35.5156 15.6074 35.262 15.6074 34.7549 15.6074ZM35.6455 18.4277C35.5589 18.4277 35.5156 18.4277 35.5156 18.4277C35.5156 18.4277 35.5156 18.1927 35.5156 17.7227C35.5156 17.2526 35.5156 17.0176 35.5156 17.0176C35.5156 17.0176 35.5589 17.0176 35.6455 17.0176C35.6826 17.0176 35.7507 17.0176 35.8496 17.0176C35.9486 17.0176 36.0352 17.0176 36.1094 17.0176C36.1836 17.0176 36.3506 17.0114 36.6104 16.999C36.8701 16.9867 37.1051 16.9681 37.3154 16.9434C37.5257 16.9186 37.6309 16.9062 37.6309 16.9062C37.6309 16.9062 37.7669 17.1165 38.0391 17.5371C38.3112 17.9577 38.4473 18.168 38.4473 18.168C38.4473 18.168 38.3669 18.1803 38.2061 18.2051C37.8473 18.2793 37.4762 18.335 37.0928 18.3721C36.7217 18.4092 36.3444 18.4277 35.9609 18.4277C35.9362 18.4277 35.8805 18.4277 35.7939 18.4277C35.7197 18.4277 35.6702 18.4277 35.6455 18.4277ZM35.6455 17.0176C35.5589 17.0176 35.5156 17.0176 35.5156 17.0176C35.5156 17.0176 35.5156 16.7702 35.5156 16.2754C35.5156 15.8301 35.5156 15.6074 35.5156 15.6074C35.5156 15.6074 35.5589 15.6074 35.6455 15.6074C35.6702 15.6074 35.7197 15.6074 35.7939 15.6074C35.8682 15.6074 35.9424 15.6074 36.0166 15.6074C36.1156 15.6074 36.1898 15.6074 36.2393 15.6074C36.2887 15.6074 36.3877 15.6012 36.5361 15.5889C36.6846 15.5765 36.7588 15.5703 36.7588 15.5703C36.7588 15.5703 36.9072 15.7992 37.2041 16.2568C37.4886 16.6898 37.6309 16.9062 37.6309 16.9062C37.6309 16.9062 37.5257 16.9186 37.3154 16.9434C37.1051 16.9681 36.8701 16.9867 36.6104 16.999C36.3506 17.0114 36.1836 17.0176 36.1094 17.0176C36.0352 17.0176 35.9548 17.0176 35.8682 17.0176C35.7816 17.0176 35.7074 17.0176 35.6455 17.0176ZM43.0117 9.78125C42.4922 9.78125 42.2324 9.78125 42.2324 9.78125C42.2324 9.78125 42.2324 9.73796 42.2324 9.65137C42.2324 8.27832 41.6263 7.06608 40.4141 6.01465C39.2142 4.96322 37.7174 4.4375 35.9238 4.4375C35.8991 4.4375 35.8496 4.4375 35.7754 4.4375C35.7135 4.4375 35.6702 4.4375 35.6455 4.4375C35.5589 4.4375 35.5156 4.4375 35.5156 4.4375C35.5156 4.4375 35.5156 4.21484 35.5156 3.76953C35.5156 3.27474 35.5156 3.02734 35.5156 3.02734C35.5156 3.02734 35.5589 3.02734 35.6455 3.02734C35.6702 3.02734 35.7135 3.02734 35.7754 3.02734C35.8496 3.02734 35.8991 3.02734 35.9238 3.02734C38.1133 3.02734 39.9688 3.68294 41.4902 4.99414C43.0117 6.30534 43.7725 7.85156 43.7725 9.63281C43.7725 9.73177 43.7725 9.78125 43.7725 9.78125C43.7725 9.78125 43.5189 9.78125 43.0117 9.78125ZM44.5518 9.78125C44.0322 9.78125 43.7725 9.78125 43.7725 9.78125C43.7725 9.78125 43.7725 9.73177 43.7725 9.63281C43.7725 7.85156 43.0117 6.30534 41.4902 4.99414C39.9688 3.68294 38.1133 3.02734 35.9238 3.02734C35.8991 3.02734 35.8496 3.02734 35.7754 3.02734C35.7135 3.02734 35.6702 3.02734 35.6455 3.02734C35.5589 3.02734 35.5156 3.02734 35.5156 3.02734C35.5156 3.02734 35.5156 2.79232 35.5156 2.32227C35.5156 1.85221 35.5156 1.61719 35.5156 1.61719C35.5156 1.61719 35.5589 1.61719 35.6455 1.61719C35.6702 1.61719 35.7197 1.61719 35.7939 1.61719C35.8805 1.61719 35.9362 1.61719 35.9609 1.61719C38.6823 1.61719 40.9212 2.40267 42.6777 3.97363C44.4466 5.53223 45.3311 7.37533 45.3311 9.50293C45.3311 9.68848 45.3311 9.78125 45.3311 9.78125C45.3311 9.78125 45.0713 9.78125 44.5518 9.78125ZM43.9023 24.6807C43.4941 24.9652 43.29 25.1074 43.29 25.1074C43.29 25.1074 43.123 24.8786 42.7891 24.4209C42.4798 24.0127 42.0345 23.3695 41.4531 22.4912C40.8717 21.613 40.043 20.4131 38.9668 18.8916C38.6204 18.4092 38.4473 18.168 38.4473 18.168C38.4473 18.168 38.6885 18.1061 39.1709 17.9824C39.641 17.8216 39.876 17.7412 39.876 17.7412C39.876 17.7412 40.043 17.9762 40.377 18.4463C41.3171 19.7699 42.0654 20.8275 42.6221 21.6191C43.1911 22.3984 43.6611 23.0602 44.0322 23.6045C44.3291 24.0498 44.4775 24.2725 44.4775 24.2725C44.4775 24.2725 44.2858 24.4085 43.9023 24.6807ZM40.5996 15.7002C40.377 15.8239 40.2656 15.8857 40.2656 15.8857C40.2656 15.8857 40.1296 15.694 39.8574 15.3105C39.5729 14.9023 39.4307 14.6982 39.4307 14.6982C39.4307 14.6982 39.5358 14.6364 39.7461 14.5127C40.4017 14.1416 40.9769 13.554 41.4717 12.75C41.9788 11.9336 42.2324 11.111 42.2324 10.2822C42.2324 10.1956 42.2324 10.1523 42.2324 10.1523C42.2324 10.1523 42.4922 10.1523 43.0117 10.1523C43.5189 10.1523 43.7725 10.1523 43.7725 10.1523C43.7725 10.1523 43.7725 10.2018 43.7725 10.3008C43.7725 11.377 43.4756 12.3975 42.8818 13.3623C42.3005 14.3148 41.5397 15.0941 40.5996 15.7002ZM45.0898 23.8457C44.6816 24.1302 44.4775 24.2725 44.4775 24.2725C44.4775 24.2725 44.3291 24.0498 44.0322 23.6045C43.6611 23.0602 43.1911 22.3984 42.6221 21.6191C42.0654 20.8275 41.3171 19.7699 40.377 18.4463C40.043 17.9762 39.876 17.7412 39.876 17.7412C39.876 17.7412 40.0986 17.6484 40.5439 17.4629C40.9521 17.2526 41.1562 17.1475 41.1562 17.1475C41.1562 17.1475 41.3418 17.4072 41.7129 17.9268C42.6159 19.1885 43.3333 20.2028 43.8652 20.9697C44.3971 21.7243 44.8053 22.2871 45.0898 22.6582C45.4733 23.1901 45.665 23.4561 45.665 23.4561C45.665 23.4561 45.4733 23.5859 45.0898 23.8457ZM41.4346 16.9619C41.249 17.0856 41.1562 17.1475 41.1562 17.1475C41.1562 17.1475 41.0016 16.9372 40.6924 16.5166C40.4079 16.096 40.2656 15.8857 40.2656 15.8857C40.2656 15.8857 40.377 15.8239 40.5996 15.7002C41.5397 15.0941 42.3005 14.3148 42.8818 13.3623C43.4756 12.3975 43.7725 11.377 43.7725 10.3008C43.7725 10.2018 43.7725 10.1523 43.7725 10.1523C43.7725 10.1523 44.0322 10.1523 44.5518 10.1523C45.0713 10.1523 45.3311 10.1523 45.3311 10.1523C45.3311 10.1523 45.3311 10.2451 45.3311 10.4307C45.3311 11.7542 44.9785 12.9974 44.2734 14.1602C43.5684 15.3229 42.6221 16.2568 41.4346 16.9619ZM38.3545 16.7207C37.8721 16.8444 37.6309 16.9062 37.6309 16.9062C37.6309 16.9062 37.4886 16.6898 37.2041 16.2568C36.9072 15.7992 36.7588 15.5703 36.7588 15.5703C36.7588 15.5703 37.0062 15.527 37.501 15.4404C37.9587 15.3044 38.1813 15.2363 38.1689 15.2363C38.1689 15.2363 38.2865 15.4095 38.5215 15.7559C38.8555 16.2383 39.0225 16.4795 39.0225 16.4795C39.0225 16.4795 38.7998 16.5599 38.3545 16.7207ZM39.1709 17.9824C38.6885 18.1061 38.4473 18.168 38.4473 18.168C38.4473 18.168 38.3112 17.9577 38.0391 17.5371C37.7669 17.1165 37.6309 16.9062 37.6309 16.9062C37.6309 16.9062 37.8721 16.8444 38.3545 16.7207C38.7998 16.5599 39.0225 16.4795 39.0225 16.4795C39.0225 16.4795 39.1523 16.6836 39.4121 17.0918C39.7214 17.5247 39.876 17.7412 39.876 17.7412C39.876 17.7412 39.641 17.8216 39.1709 17.9824ZM39.6533 16.2197C39.2327 16.3929 39.0225 16.4795 39.0225 16.4795C39.0225 16.4795 38.8555 16.2383 38.5215 15.7559C38.2865 15.4095 38.1689 15.2363 38.1689 15.2363C38.1813 15.2363 38.404 15.1621 38.8369 15.0137C39.2327 14.8034 39.4307 14.6982 39.4307 14.6982C39.4307 14.6982 39.5729 14.9023 39.8574 15.3105C40.1296 15.694 40.2656 15.8857 40.2656 15.8857C40.2656 15.8857 40.0615 15.9971 39.6533 16.2197ZM40.5439 17.4629C40.0986 17.6484 39.876 17.7412 39.876 17.7412C39.876 17.7412 39.7214 17.5247 39.4121 17.0918C39.1523 16.6836 39.0225 16.4795 39.0225 16.4795C39.0225 16.4795 39.2327 16.3929 39.6533 16.2197C40.0615 15.9971 40.2656 15.8857 40.2656 15.8857C40.2656 15.8857 40.4079 16.096 40.6924 16.5166C41.0016 16.9372 41.1562 17.1475 41.1562 17.1475C41.1562 17.1475 40.9521 17.2526 40.5439 17.4629ZM43.0117 10.1523C42.4922 10.1523 42.2324 10.1523 42.2324 10.1523C42.2324 10.1523 42.2324 10.1214 42.2324 10.0596C42.2324 9.99772 42.2324 9.9668 42.2324 9.9668C42.2324 9.9668 42.4922 9.9668 43.0117 9.9668C43.5189 9.9668 43.7725 9.9668 43.7725 9.9668C43.7725 9.9668 43.7725 9.99772 43.7725 10.0596C43.7725 10.1214 43.7725 10.1523 43.7725 10.1523C43.7725 10.1523 43.5189 10.1523 43.0117 10.1523ZM43.0117 9.9668C42.4922 9.9668 42.2324 9.9668 42.2324 9.9668C42.2324 9.9668 42.2324 9.93587 42.2324 9.87402C42.2324 9.81217 42.2324 9.78125 42.2324 9.78125C42.2324 9.78125 42.4922 9.78125 43.0117 9.78125C43.5189 9.78125 43.7725 9.78125 43.7725 9.78125C43.7725 9.78125 43.7725 9.81217 43.7725 9.87402C43.7725 9.93587 43.7725 9.9668 43.7725 9.9668C43.7725 9.9668 43.5189 9.9668 43.0117 9.9668ZM44.5518 10.1523C44.0322 10.1523 43.7725 10.1523 43.7725 10.1523C43.7725 10.1523 43.7725 10.1214 43.7725 10.0596C43.7725 9.99772 43.7725 9.9668 43.7725 9.9668C43.7725 9.9668 44.0322 9.9668 44.5518 9.9668C45.0713 9.9668 45.3311 9.9668 45.3311 9.9668C45.3311 9.9668 45.3311 9.99772 45.3311 10.0596C45.3311 10.1214 45.3311 10.1523 45.3311 10.1523C45.3311 10.1523 45.0713 10.1523 44.5518 10.1523ZM44.5518 9.9668C44.0322 9.9668 43.7725 9.9668 43.7725 9.9668C43.7725 9.9668 43.7725 9.93587 43.7725 9.87402C43.7725 9.81217 43.7725 9.78125 43.7725 9.78125C43.7725 9.78125 44.0322 9.78125 44.5518 9.78125C45.0713 9.78125 45.3311 9.78125 45.3311 9.78125C45.3311 9.78125 45.3311 9.81217 45.3311 9.87402C45.3311 9.93587 45.3311 9.9668 45.3311 9.9668C45.3311 9.9668 45.0713 9.9668 44.5518 9.9668ZM33.2334 18.4277C32.7262 18.4277 32.4727 18.4277 32.4727 18.4277C32.4727 18.4277 32.4727 18.1927 32.4727 17.7227C32.4727 17.2526 32.4727 17.0176 32.4727 17.0176C32.4727 17.0176 32.7262 17.0176 33.2334 17.0176C33.7406 17.0176 33.9941 17.0176 33.9941 17.0176C33.9941 17.0176 33.9941 17.2526 33.9941 17.7227C33.9941 18.1927 33.9941 18.4277 33.9941 18.4277C33.9941 18.4277 33.7406 18.4277 33.2334 18.4277ZM33.2334 17.0176C32.7262 17.0176 32.4727 17.0176 32.4727 17.0176C32.4727 17.0176 32.4727 16.7826 32.4727 16.3125C32.4727 15.8424 32.4727 15.6074 32.4727 15.6074C32.4727 15.6074 32.7262 15.6074 33.2334 15.6074C33.7406 15.6074 33.9941 15.6074 33.9941 15.6074C33.9941 15.6074 33.9941 15.8424 33.9941 16.3125C33.9941 16.7826 33.9941 17.0176 33.9941 17.0176C33.9941 17.0176 33.7406 17.0176 33.2334 17.0176ZM34.7549 18.4277C34.2477 18.4277 33.9941 18.4277 33.9941 18.4277C33.9941 18.4277 33.9941 18.1927 33.9941 17.7227C33.9941 17.2526 33.9941 17.0176 33.9941 17.0176C33.9941 17.0176 34.2477 17.0176 34.7549 17.0176C35.262 17.0176 35.5156 17.0176 35.5156 17.0176C35.5156 17.0176 35.5156 17.2526 35.5156 17.7227C35.5156 18.1927 35.5156 18.4277 35.5156 18.4277C35.5156 18.4277 35.262 18.4277 34.7549 18.4277ZM34.7549 17.0176C34.2477 17.0176 33.9941 17.0176 33.9941 17.0176C33.9941 17.0176 33.9941 16.7826 33.9941 16.3125C33.9941 15.8424 33.9941 15.6074 33.9941 15.6074C33.9941 15.6074 34.2477 15.6074 34.7549 15.6074C35.262 15.6074 35.5156 15.6074 35.5156 15.6074C35.5156 15.6074 35.5156 15.8424 35.5156 16.3125C35.5156 16.7826 35.5156 17.0176 35.5156 17.0176C35.5156 17.0176 35.262 17.0176 34.7549 17.0176ZM33.2334 27C32.7262 27 32.4727 27 32.4727 27C32.4727 27 32.4727 26.765 32.4727 26.2949C32.4727 25.8249 32.4727 25.5898 32.4727 25.5898C32.4727 25.5898 32.7262 25.5898 33.2334 25.5898C33.7406 25.5898 33.9941 25.5898 33.9941 25.5898C33.9941 25.5898 33.9941 25.8249 33.9941 26.2949C33.9941 26.765 33.9941 27 33.9941 27C33.9941 27 33.7406 27 33.2334 27ZM33.2334 25.5898C32.7262 25.5898 32.4727 25.5898 32.4727 25.5898C32.4727 25.5898 32.4727 25.3548 32.4727 24.8848C32.4727 24.4147 32.4727 24.1797 32.4727 24.1797C32.4727 24.1797 32.7262 24.1797 33.2334 24.1797C33.7406 24.1797 33.9941 24.1797 33.9941 24.1797C33.9941 24.1797 33.9941 24.4147 33.9941 24.8848C33.9941 25.3548 33.9941 25.5898 33.9941 25.5898C33.9941 25.5898 33.7406 25.5898 33.2334 25.5898ZM34.7549 27C34.2477 27 33.9941 27 33.9941 27C33.9941 27 33.9941 26.765 33.9941 26.2949C33.9941 25.8249 33.9941 25.5898 33.9941 25.5898C33.9941 25.5898 34.2477 25.5898 34.7549 25.5898C35.262 25.5898 35.5156 25.5898 35.5156 25.5898C35.5156 25.5898 35.5156 25.8249 35.5156 26.2949C35.5156 26.765 35.5156 27 35.5156 27C35.5156 27 35.262 27 34.7549 27ZM34.7549 25.5898C34.2477 25.5898 33.9941 25.5898 33.9941 25.5898C33.9941 25.5898 33.9941 25.3548 33.9941 24.8848C33.9941 24.4147 33.9941 24.1797 33.9941 24.1797C33.9941 24.1797 34.2477 24.1797 34.7549 24.1797C35.262 24.1797 35.5156 24.1797 35.5156 24.1797C35.5156 24.1797 35.5156 24.4147 35.5156 24.8848C35.5156 25.3548 35.5156 25.5898 35.5156 25.5898C35.5156 25.5898 35.262 25.5898 34.7549 25.5898ZM33.2334 4.4375C32.7262 4.4375 32.4727 4.4375 32.4727 4.4375C32.4727 4.4375 32.4727 4.20247 32.4727 3.73242C32.4727 3.26237 32.4727 3.02734 32.4727 3.02734C32.4727 3.02734 32.7262 3.02734 33.2334 3.02734C33.7406 3.02734 33.9941 3.02734 33.9941 3.02734C33.9941 3.02734 33.9941 3.26237 33.9941 3.73242C33.9941 4.20247 33.9941 4.4375 33.9941 4.4375C33.9941 4.4375 33.7406 4.4375 33.2334 4.4375ZM33.2334 3.02734C32.7262 3.02734 32.4727 3.02734 32.4727 3.02734C32.4727 3.02734 32.4727 2.79232 32.4727 2.32227C32.4727 1.85221 32.4727 1.61719 32.4727 1.61719C32.4727 1.61719 32.7262 1.61719 33.2334 1.61719C33.7406 1.61719 33.9941 1.61719 33.9941 1.61719C33.9941 1.61719 33.9941 1.85221 33.9941 2.32227C33.9941 2.79232 33.9941 3.02734 33.9941 3.02734C33.9941 3.02734 33.7406 3.02734 33.2334 3.02734ZM34.7549 4.4375C34.2477 4.4375 33.9941 4.4375 33.9941 4.4375C33.9941 4.4375 33.9941 4.20247 33.9941 3.73242C33.9941 3.26237 33.9941 3.02734 33.9941 3.02734C33.9941 3.02734 34.2477 3.02734 34.7549 3.02734C35.262 3.02734 35.5156 3.02734 35.5156 3.02734C35.5156 3.02734 35.5156 3.26237 35.5156 3.73242C35.5156 4.20247 35.5156 4.4375 35.5156 4.4375C35.5156 4.4375 35.262 4.4375 34.7549 4.4375ZM34.7549 3.02734C34.2477 3.02734 33.9941 3.02734 33.9941 3.02734C33.9941 3.02734 33.9941 2.79232 33.9941 2.32227C33.9941 1.85221 33.9941 1.61719 33.9941 1.61719C33.9941 1.61719 34.2477 1.61719 34.7549 1.61719C35.262 1.61719 35.5156 1.61719 35.5156 1.61719C35.5156 1.61719 35.5156 1.85221 35.5156 2.32227C35.5156 2.79232 35.5156 3.02734 35.5156 3.02734C35.5156 3.02734 35.262 3.02734 34.7549 3.02734ZM45.0713 23.8643C45.4671 23.5798 45.665 23.4375 45.665 23.4375C45.665 23.4375 45.7949 23.6292 46.0547 24.0127C46.3145 24.3838 46.4443 24.5693 46.4443 24.5693C46.4443 24.5693 46.2464 24.7054 45.8506 24.9775C45.4548 25.262 45.2568 25.4043 45.2568 25.4043C45.2568 25.4043 45.127 25.2126 44.8672 24.8291C44.6074 24.458 44.4775 24.2725 44.4775 24.2725C44.4775 24.2725 44.6755 24.1364 45.0713 23.8643ZM45.8506 24.9775C46.2464 24.7054 46.4443 24.5693 46.4443 24.5693C46.4443 24.5693 46.5742 24.7549 46.834 25.126C47.0938 25.5094 47.2236 25.7012 47.2236 25.7012C47.2236 25.7012 47.0319 25.8372 46.6484 26.1094C46.2526 26.3815 46.0547 26.5176 46.0547 26.5176C46.0547 26.5176 45.9186 26.332 45.6465 25.9609C45.3867 25.5898 45.2568 25.4043 45.2568 25.4043C45.2568 25.4043 45.4548 25.262 45.8506 24.9775ZM43.8838 24.6807C44.2796 24.4085 44.4775 24.2725 44.4775 24.2725C44.4775 24.2725 44.6074 24.458 44.8672 24.8291C45.127 25.2126 45.2568 25.4043 45.2568 25.4043C45.2568 25.4043 45.0589 25.5404 44.6631 25.8125C44.2673 26.0846 44.0693 26.2207 44.0693 26.2207C44.0693 26.2207 43.9395 26.0352 43.6797 25.6641C43.4199 25.293 43.29 25.1074 43.29 25.1074C43.29 25.1074 43.488 24.9652 43.8838 24.6807ZM44.6631 25.8125C45.0589 25.5404 45.2568 25.4043 45.2568 25.4043C45.2568 25.4043 45.3867 25.5898 45.6465 25.9609C45.9186 26.332 46.0547 26.5176 46.0547 26.5176C46.0547 26.5176 45.8568 26.6598 45.4609 26.9443C45.0651 27.2165 44.8672 27.3525 44.8672 27.3525C44.8672 27.3525 44.7311 27.167 44.459 26.7959C44.1992 26.4124 44.0693 26.2207 44.0693 26.2207C44.0693 26.2207 44.2673 26.0846 44.6631 25.8125ZM51.6768 15.7188C51.1696 15.7188 50.916 15.7188 50.916 15.7188C50.916 15.7188 50.916 15.4837 50.916 15.0137C50.916 14.5436 50.916 14.3086 50.916 14.3086C50.916 14.3086 51.1696 14.3086 51.6768 14.3086C52.1839 14.3086 52.4375 14.3086 52.4375 14.3086C52.4375 14.3086 52.4375 14.5436 52.4375 15.0137C52.4375 15.4837 52.4375 15.7188 52.4375 15.7188C52.4375 15.7188 52.1839 15.7188 51.6768 15.7188ZM51.6768 14.3086C51.1696 14.3086 50.916 14.3086 50.916 14.3086C50.916 14.3086 50.916 14.0736 50.916 13.6035C50.916 13.1335 50.916 12.8984 50.916 12.8984C50.916 12.8984 51.1696 12.8984 51.6768 12.8984C52.1839 12.8984 52.4375 12.8984 52.4375 12.8984C52.4375 12.8984 52.4375 13.1335 52.4375 13.6035C52.4375 14.0736 52.4375 14.3086 52.4375 14.3086C52.4375 14.3086 52.1839 14.3086 51.6768 14.3086ZM53.1982 15.7188C52.6911 15.7188 52.4375 15.7188 52.4375 15.7188C52.4375 15.7188 52.4375 15.4837 52.4375 15.0137C52.4375 14.5436 52.4375 14.3086 52.4375 14.3086C52.4375 14.3086 52.6911 14.3086 53.1982 14.3086C53.7054 14.3086 53.959 14.3086 53.959 14.3086C53.959 14.3086 53.959 14.5436 53.959 15.0137C53.959 15.4837 53.959 15.7188 53.959 15.7188C53.959 15.7188 53.7054 15.7188 53.1982 15.7188ZM53.1982 14.3086C52.6911 14.3086 52.4375 14.3086 52.4375 14.3086C52.4375 14.3086 52.4375 14.0736 52.4375 13.6035C52.4375 13.1335 52.4375 12.8984 52.4375 12.8984C52.4375 12.8984 52.6911 12.8984 53.1982 12.8984C53.7054 12.8984 53.959 12.8984 53.959 12.8984C53.959 12.8984 53.959 13.1335 53.959 13.6035C53.959 14.0736 53.959 14.3086 53.959 14.3086C53.959 14.3086 53.7054 14.3086 53.1982 14.3086ZM51.6768 12.8984C51.1696 12.8984 50.916 12.8984 50.916 12.8984C50.916 12.8984 50.916 12.6634 50.916 12.1934C50.916 11.7233 50.916 11.3646 50.916 11.1172C50.916 10.8574 50.916 10.0163 50.916 8.59375C50.916 7.2207 50.916 6.42285 50.916 6.2002C50.916 5.96517 50.916 5.61263 50.916 5.14258C50.916 4.67253 50.916 4.4375 50.916 4.4375C50.916 4.4375 51.1696 4.4375 51.6768 4.4375C52.1839 4.4375 52.4375 4.4375 52.4375 4.4375C52.4375 4.4375 52.4375 4.67253 52.4375 5.14258C52.4375 5.61263 52.4375 5.96517 52.4375 6.2002C52.4375 6.43522 52.4375 7.23307 52.4375 8.59375C52.4375 10.041 52.4375 10.8883 52.4375 11.1357C52.4375 11.3708 52.4375 11.7233 52.4375 12.1934C52.4375 12.6634 52.4375 12.8984 52.4375 12.8984C52.4375 12.8984 52.1839 12.8984 51.6768 12.8984ZM53.1982 12.8984C52.6911 12.8984 52.4375 12.8984 52.4375 12.8984C52.4375 12.8984 52.4375 12.6634 52.4375 12.1934C52.4375 11.7233 52.4375 11.3646 52.4375 11.1172C52.4375 10.8574 52.4375 10.0163 52.4375 8.59375C52.4375 7.2207 52.4375 6.42285 52.4375 6.2002C52.4375 5.96517 52.4375 5.61263 52.4375 5.14258C52.4375 4.67253 52.4375 4.4375 52.4375 4.4375C52.4375 4.4375 52.6911 4.4375 53.1982 4.4375C53.7054 4.4375 53.959 4.4375 53.959 4.4375C53.959 4.4375 53.959 4.67253 53.959 5.14258C53.959 5.61263 53.959 5.96517 53.959 6.2002C53.959 6.43522 53.959 7.23307 53.959 8.59375C53.959 10.041 53.959 10.8883 53.959 11.1357C53.959 11.3708 53.959 11.7233 53.959 12.1934C53.959 12.6634 53.959 12.8984 53.959 12.8984C53.959 12.8984 53.7054 12.8984 53.1982 12.8984ZM51.6768 24.1797C51.1696 24.1797 50.916 24.1797 50.916 24.1797C50.916 24.1797 50.916 23.9447 50.916 23.4746C50.916 23.0046 50.916 22.6582 50.916 22.4355C50.916 22.2005 50.916 21.3717 50.916 19.9492C50.916 18.5762 50.916 17.766 50.916 17.5186C50.916 17.2588 50.916 16.8939 50.916 16.4238C50.916 15.9538 50.916 15.7188 50.916 15.7188C50.916 15.7188 51.1696 15.7188 51.6768 15.7188C52.1839 15.7188 52.4375 15.7188 52.4375 15.7188C52.4375 15.7188 52.4375 15.9538 52.4375 16.4238C52.4375 16.8939 52.4375 17.2588 52.4375 17.5186C52.4375 17.7783 52.4375 18.5885 52.4375 19.9492C52.4375 21.3965 52.4375 22.2314 52.4375 22.4541C52.4375 22.6644 52.4375 23.0046 52.4375 23.4746C52.4375 23.9447 52.4375 24.1797 52.4375 24.1797C52.4375 24.1797 52.1839 24.1797 51.6768 24.1797ZM53.1982 24.1797C52.6911 24.1797 52.4375 24.1797 52.4375 24.1797C52.4375 24.1797 52.4375 23.9447 52.4375 23.4746C52.4375 23.0046 52.4375 22.6582 52.4375 22.4355C52.4375 22.2005 52.4375 21.3717 52.4375 19.9492C52.4375 18.5762 52.4375 17.766 52.4375 17.5186C52.4375 17.2588 52.4375 16.8939 52.4375 16.4238C52.4375 15.9538 52.4375 15.7188 52.4375 15.7188C52.4375 15.7188 52.6911 15.7188 53.1982 15.7188C53.7054 15.7188 53.959 15.7188 53.959 15.7188C53.959 15.7188 53.959 15.9538 53.959 16.4238C53.959 16.8939 53.959 17.2588 53.959 17.5186C53.959 17.7783 53.959 18.5885 53.959 19.9492C53.959 21.3965 53.959 22.2314 53.959 22.4541C53.959 22.6644 53.959 23.0046 53.959 23.4746C53.959 23.9447 53.959 24.1797 53.959 24.1797C53.959 24.1797 53.7054 24.1797 53.1982 24.1797ZM51.6768 27C51.1696 27 50.916 27 50.916 27C50.916 27 50.916 26.765 50.916 26.2949C50.916 25.8249 50.916 25.5898 50.916 25.5898C50.916 25.5898 51.1696 25.5898 51.6768 25.5898C52.1839 25.5898 52.4375 25.5898 52.4375 25.5898C52.4375 25.5898 52.4375 25.8249 52.4375 26.2949C52.4375 26.765 52.4375 27 52.4375 27C52.4375 27 52.1839 27 51.6768 27ZM51.6768 25.5898C51.1696 25.5898 50.916 25.5898 50.916 25.5898C50.916 25.5898 50.916 25.3548 50.916 24.8848C50.916 24.4147 50.916 24.1797 50.916 24.1797C50.916 24.1797 51.1696 24.1797 51.6768 24.1797C52.1839 24.1797 52.4375 24.1797 52.4375 24.1797C52.4375 24.1797 52.4375 24.4147 52.4375 24.8848C52.4375 25.3548 52.4375 25.5898 52.4375 25.5898C52.4375 25.5898 52.1839 25.5898 51.6768 25.5898ZM53.1982 27C52.6911 27 52.4375 27 52.4375 27C52.4375 27 52.4375 26.765 52.4375 26.2949C52.4375 25.8249 52.4375 25.5898 52.4375 25.5898C52.4375 25.5898 52.6911 25.5898 53.1982 25.5898C53.7054 25.5898 53.959 25.5898 53.959 25.5898C53.959 25.5898 53.959 25.8249 53.959 26.2949C53.959 26.765 53.959 27 53.959 27C53.959 27 53.7054 27 53.1982 27ZM53.1982 25.5898C52.6911 25.5898 52.4375 25.5898 52.4375 25.5898C52.4375 25.5898 52.4375 25.3548 52.4375 24.8848C52.4375 24.4147 52.4375 24.1797 52.4375 24.1797C52.4375 24.1797 52.6911 24.1797 53.1982 24.1797C53.7054 24.1797 53.959 24.1797 53.959 24.1797C53.959 24.1797 53.959 24.4147 53.959 24.8848C53.959 25.3548 53.959 25.5898 53.959 25.5898C53.959 25.5898 53.7054 25.5898 53.1982 25.5898ZM51.6768 4.4375C51.1696 4.4375 50.916 4.4375 50.916 4.4375C50.916 4.4375 50.916 4.20247 50.916 3.73242C50.916 3.26237 50.916 3.02734 50.916 3.02734C50.916 3.02734 51.1696 3.02734 51.6768 3.02734C52.1839 3.02734 52.4375 3.02734 52.4375 3.02734C52.4375 3.02734 52.4375 3.26237 52.4375 3.73242C52.4375 4.20247 52.4375 4.4375 52.4375 4.4375C52.4375 4.4375 52.1839 4.4375 51.6768 4.4375ZM51.6768 3.02734C51.1696 3.02734 50.916 3.02734 50.916 3.02734C50.916 3.02734 50.916 2.79232 50.916 2.32227C50.916 1.85221 50.916 1.61719 50.916 1.61719C50.916 1.61719 51.1696 1.61719 51.6768 1.61719C52.1839 1.61719 52.4375 1.61719 52.4375 1.61719C52.4375 1.61719 52.4375 1.85221 52.4375 2.32227C52.4375 2.79232 52.4375 3.02734 52.4375 3.02734C52.4375 3.02734 52.1839 3.02734 51.6768 3.02734ZM53.1982 4.4375C52.6911 4.4375 52.4375 4.4375 52.4375 4.4375C52.4375 4.4375 52.4375 4.20247 52.4375 3.73242C52.4375 3.26237 52.4375 3.02734 52.4375 3.02734C52.4375 3.02734 52.6911 3.02734 53.1982 3.02734C53.7054 3.02734 53.959 3.02734 53.959 3.02734C53.959 3.02734 53.959 3.26237 53.959 3.73242C53.959 4.20247 53.959 4.4375 53.959 4.4375C53.959 4.4375 53.7054 4.4375 53.1982 4.4375ZM53.1982 3.02734C52.6911 3.02734 52.4375 3.02734 52.4375 3.02734C52.4375 3.02734 52.4375 2.79232 52.4375 2.32227C52.4375 1.85221 52.4375 1.61719 52.4375 1.61719C52.4375 1.61719 52.6911 1.61719 53.1982 1.61719C53.7054 1.61719 53.959 1.61719 53.959 1.61719C53.959 1.61719 53.959 1.85221 53.959 2.32227C53.959 2.79232 53.959 3.02734 53.959 3.02734C53.959 3.02734 53.7054 3.02734 53.1982 3.02734ZM73.3857 27.501C73.1878 27.5133 73.0889 27.5195 73.0889 27.5195C73.0889 27.5195 73.0889 27.2907 73.0889 26.833C73.0889 26.3753 73.0889 26.1465 73.0889 26.1465C73.0889 26.1465 73.2064 26.1465 73.4414 26.1465C73.7135 26.1217 73.9486 26.097 74.1465 26.0723C74.3444 26.0352 74.5856 25.9857 74.8701 25.9238C75.1299 25.862 75.2598 25.8311 75.2598 25.8311C75.2598 25.8311 75.2598 26.0537 75.2598 26.499C75.2598 26.9691 75.2598 27.2041 75.2598 27.2041C75.2598 27.2041 75.1299 27.235 74.8701 27.2969C74.6227 27.3464 74.363 27.3896 74.0908 27.4268C73.8311 27.4639 73.596 27.4886 73.3857 27.501ZM73.4414 26.1465C73.2064 26.1465 73.0889 26.1465 73.0889 26.1465C73.0889 26.1465 73.0889 25.93 73.0889 25.4971C73.0889 25.0394 73.0889 24.8105 73.0889 24.8105C73.0889 24.8105 73.1816 24.8044 73.3672 24.792C73.627 24.7796 73.8558 24.7611 74.0537 24.7363C74.264 24.7116 74.5052 24.6683 74.7773 24.6064C75.099 24.5199 75.2598 24.4766 75.2598 24.4766C75.2598 24.4766 75.2598 24.6992 75.2598 25.1445C75.2598 25.6022 75.2598 25.8311 75.2598 25.8311C75.2598 25.8311 75.1299 25.862 74.8701 25.9238C74.5856 25.9857 74.3444 26.0352 74.1465 26.0723C73.9486 26.097 73.7135 26.1217 73.4414 26.1465ZM74.7588 4.10352C74.5238 4.05404 74.2949 4.01074 74.0723 3.97363C73.862 3.93652 73.627 3.9056 73.3672 3.88086C73.1816 3.86849 73.0889 3.8623 73.0889 3.8623C73.0889 3.8623 73.0889 3.62109 73.0889 3.13867C73.0889 2.66862 73.0889 2.43359 73.0889 2.43359C73.0889 2.43359 73.1816 2.43978 73.3672 2.45215C73.5404 2.46452 73.7754 2.48926 74.0723 2.52637C74.3815 2.56348 74.6475 2.61296 74.8701 2.6748C75.1299 2.74902 75.2598 2.78613 75.2598 2.78613C75.2598 2.78613 75.2598 3.02734 75.2598 3.50977C75.2598 3.99219 75.2598 4.2334 75.2598 4.2334C75.2598 4.2334 75.0928 4.1901 74.7588 4.10352ZM74.8701 2.6748C74.6475 2.61296 74.3815 2.56348 74.0723 2.52637C73.7754 2.48926 73.5404 2.46452 73.3672 2.45215C73.1816 2.43978 73.0889 2.43359 73.0889 2.43359C73.0889 2.43359 73.0889 2.19238 73.0889 1.70996C73.0889 1.22754 73.0889 0.986328 73.0889 0.986328C73.0889 0.986328 73.2002 0.992513 73.4229 1.00488C73.6331 1.01725 73.8929 1.05436 74.2021 1.11621C74.5114 1.16569 74.7464 1.20898 74.9072 1.24609C75.1423 1.29557 75.2598 1.3265 75.2598 1.33887C75.2598 1.33887 75.2598 1.58008 75.2598 2.0625C75.2598 2.54492 75.2598 2.78613 75.2598 2.78613C75.2598 2.78613 75.1299 2.74902 74.8701 2.6748ZM71.3262 27.5195C70.9056 27.4948 70.6953 27.4824 70.6953 27.4824C70.6953 27.4824 70.6953 27.235 70.6953 26.7402C70.6953 26.3073 70.6953 26.0908 70.6953 26.0908C70.6953 26.0908 70.9056 26.1156 71.3262 26.165C71.7591 26.165 71.9756 26.165 71.9756 26.165C71.9756 26.165 71.9756 26.3815 71.9756 26.8145C71.9756 27.2969 71.9756 27.5381 71.9756 27.5381C71.9756 27.5381 71.7591 27.5319 71.3262 27.5195ZM71.3262 26.165C70.9056 26.1156 70.6953 26.0908 70.6953 26.0908C70.6953 26.0908 70.6953 25.8805 70.6953 25.46C70.6953 24.9652 70.6953 24.7178 70.6953 24.7178C70.6953 24.7178 70.918 24.7425 71.3633 24.792C71.7715 24.8167 71.9756 24.8291 71.9756 24.8291C71.9756 24.8291 71.9756 25.0641 71.9756 25.5342C71.9756 25.9548 71.9756 26.165 71.9756 26.165C71.9756 26.165 71.7591 26.165 71.3262 26.165ZM71.2891 3.84375C70.8932 3.89323 70.6953 3.91797 70.6953 3.91797C70.6953 3.91797 70.6953 3.65202 70.6953 3.12012C70.6953 2.68717 70.6953 2.4707 70.6953 2.4707C70.6953 2.4707 70.8994 2.45215 71.3076 2.41504C71.7035 2.40267 71.9014 2.39648 71.9014 2.39648C71.9014 2.39648 71.9014 2.62533 71.9014 3.08301C71.9014 3.5778 71.9014 3.8252 71.9014 3.8252C71.9014 3.8252 71.6973 3.83138 71.2891 3.84375ZM71.3076 2.41504C70.8994 2.45215 70.6953 2.4707 70.6953 2.4707C70.6953 2.4707 70.6953 2.23568 70.6953 1.76562C70.6953 1.25846 70.6953 1.00488 70.6953 1.00488C70.6953 1.00488 70.8932 0.992513 71.2891 0.967773C71.6973 0.967773 71.9014 0.967773 71.9014 0.967773C71.9014 0.967773 71.9014 1.22135 71.9014 1.72852C71.9014 2.17383 71.9014 2.39648 71.9014 2.39648C71.9014 2.39648 71.7035 2.40267 71.3076 2.41504ZM72.5508 27.5381C72.1673 27.5381 71.9756 27.5381 71.9756 27.5381C71.9756 27.5381 71.9756 27.2969 71.9756 26.8145C71.9756 26.3815 71.9756 26.165 71.9756 26.165C71.9756 26.165 72.1549 26.165 72.5137 26.165C72.8971 26.1527 73.0889 26.1465 73.0889 26.1465C73.0889 26.1465 73.0889 26.3691 73.0889 26.8145C73.0889 27.2845 73.0889 27.5195 73.0889 27.5195C73.0889 27.5195 72.9095 27.5257 72.5508 27.5381ZM72.5137 26.165C72.1549 26.165 71.9756 26.165 71.9756 26.165C71.9756 26.165 71.9756 25.9548 71.9756 25.5342C71.9756 25.0641 71.9756 24.8291 71.9756 24.8291C71.9756 24.8291 72.1611 24.8291 72.5322 24.8291C72.9033 24.8167 73.0889 24.8105 73.0889 24.8105C73.0889 24.8105 73.0889 25.0332 73.0889 25.4785C73.0889 25.9238 73.0889 26.1465 73.0889 26.1465C73.0889 26.1465 72.8971 26.1527 72.5137 26.165ZM72.4951 3.84375C72.0993 3.83138 71.9014 3.8252 71.9014 3.8252C71.9014 3.8252 71.9014 3.5778 71.9014 3.08301C71.9014 2.62533 71.9014 2.39648 71.9014 2.39648C71.9014 2.39648 72.0931 2.40267 72.4766 2.41504C72.8848 2.42741 73.0889 2.43359 73.0889 2.43359C73.0889 2.43359 73.0889 2.66862 73.0889 3.13867C73.0889 3.62109 73.0889 3.8623 73.0889 3.8623C73.0889 3.8623 72.891 3.85612 72.4951 3.84375ZM72.4766 2.41504C72.0931 2.40267 71.9014 2.39648 71.9014 2.39648C71.9014 2.39648 71.9014 2.17383 71.9014 1.72852C71.9014 1.22135 71.9014 0.967773 71.9014 0.967773C71.9014 0.967773 72.1055 0.967773 72.5137 0.967773C72.8971 0.980143 73.0889 0.986328 73.0889 0.986328C73.0889 0.986328 73.0889 1.23372 73.0889 1.72852C73.0889 2.19857 73.0889 2.43359 73.0889 2.43359C73.0889 2.43359 72.8848 2.42741 72.4766 2.41504ZM76.0205 27C75.5133 27.1361 75.2598 27.2041 75.2598 27.2041C75.2598 27.2041 75.2598 26.9691 75.2598 26.499C75.2598 26.0537 75.2598 25.8311 75.2598 25.8311C75.2598 25.8311 75.5195 25.7568 76.0391 25.6084C76.5339 25.4352 76.7812 25.3486 76.7812 25.3486C76.7812 25.3486 76.7812 25.5837 76.7812 26.0537C76.7812 26.5361 76.7812 26.7773 76.7812 26.7773C76.7812 26.7773 76.5277 26.8516 76.0205 27ZM76.0391 25.6084C75.5195 25.7568 75.2598 25.8311 75.2598 25.8311C75.2598 25.8311 75.2598 25.6022 75.2598 25.1445C75.2598 24.6992 75.2598 24.4766 75.2598 24.4766C75.2598 24.4766 75.5257 24.39 76.0576 24.2168C76.54 24.0312 76.7812 23.9385 76.7812 23.9385C76.7812 23.9385 76.7812 24.1673 76.7812 24.625C76.7812 25.1074 76.7812 25.3486 76.7812 25.3486C76.7812 25.3486 76.5339 25.4352 76.0391 25.6084ZM77.5605 26.499C77.041 26.6846 76.7812 26.7773 76.7812 26.7773C76.7812 26.7773 76.7812 26.5361 76.7812 26.0537C76.7812 25.5837 76.7812 25.3486 76.7812 25.3486C76.7812 25.3486 77.0348 25.2311 77.542 24.9961C78.0492 24.6992 78.3027 24.5508 78.3027 24.5508C78.3027 24.5508 78.3027 24.891 78.3027 25.5713C78.3027 25.9548 78.3027 26.1465 78.3027 26.1465C78.3027 26.1465 78.0553 26.264 77.5605 26.499ZM77.542 24.9961C77.0348 25.2311 76.7812 25.3486 76.7812 25.3486C76.7812 25.3486 76.7812 25.1074 76.7812 24.625C76.7812 24.1673 76.7812 23.9385 76.7812 23.9385C76.7812 23.9385 77.0225 23.8086 77.5049 23.5488C78.0368 23.1777 78.3027 22.9922 78.3027 22.9922C78.3027 22.9922 78.3027 23.3138 78.3027 23.957C78.3027 24.3529 78.3027 24.5508 78.3027 24.5508C78.3027 24.5508 78.0492 24.6992 77.542 24.9961ZM76.0576 4.51172C75.5257 4.32617 75.2598 4.2334 75.2598 4.2334C75.2598 4.2334 75.2598 3.99837 75.2598 3.52832C75.2598 3.03353 75.2598 2.78613 75.2598 2.78613C75.2598 2.78613 75.5195 2.86035 76.0391 3.00879C76.5339 3.18197 76.7812 3.26855 76.7812 3.26855C76.7812 3.26855 76.7812 3.52214 76.7812 4.0293C76.7812 4.5612 76.7812 4.82715 76.7812 4.82715C76.7812 4.82715 76.54 4.72201 76.0576 4.51172ZM76.0391 3.00879C75.5195 2.86035 75.2598 2.78613 75.2598 2.78613C75.2598 2.78613 75.2598 2.56348 75.2598 2.11816C75.2598 1.58626 75.2598 1.32031 75.2598 1.32031C75.2598 1.32031 75.5133 1.38216 76.0205 1.50586C76.5277 1.6543 76.7812 1.72852 76.7812 1.72852C76.7812 1.72852 76.7812 1.9821 76.7812 2.48926C76.7812 3.00879 76.7812 3.26855 76.7812 3.26855C76.7812 3.26855 76.5339 3.18197 76.0391 3.00879ZM77.5049 5.2168C77.0225 4.95703 76.7812 4.82715 76.7812 4.82715C76.7812 4.82715 76.7812 4.5612 76.7812 4.0293C76.7812 3.52214 76.7812 3.26855 76.7812 3.26855C76.7812 3.26855 77.0348 3.3737 77.542 3.58398C78.0492 3.83138 78.3027 3.95508 78.3027 3.95508C78.3027 3.95508 78.3027 4.1901 78.3027 4.66016C78.3027 5.3776 78.3027 5.73633 78.3027 5.73633C78.3027 5.73633 78.0368 5.56315 77.5049 5.2168ZM77.542 3.58398C77.0348 3.3737 76.7812 3.26855 76.7812 3.26855C76.7812 3.26855 76.7812 3.00879 76.7812 2.48926C76.7812 1.9821 76.7812 1.72852 76.7812 1.72852C76.7812 1.72852 77.0348 1.82747 77.542 2.02539C78.0492 2.24805 78.3027 2.35938 78.3027 2.35938C78.3027 2.35938 78.3027 2.60059 78.3027 3.08301C78.3027 3.66439 78.3027 3.95508 78.3027 3.95508C78.3027 3.95508 78.0492 3.83138 77.542 3.58398ZM59.3398 15.7188C58.8327 15.7188 58.5791 15.7188 58.5791 15.7188C58.5791 15.7188 58.5667 15.4837 58.542 15.0137C58.5296 14.5436 58.5234 14.3086 58.5234 14.3086C58.5234 14.3086 58.7832 14.3086 59.3027 14.3086C59.7975 14.3086 60.0449 14.3086 60.0449 14.3086C60.0449 14.3086 60.0449 14.5436 60.0449 15.0137C60.0697 15.4837 60.082 15.7188 60.082 15.7188C60.082 15.7188 59.8346 15.7188 59.3398 15.7188ZM59.3027 14.3086C58.7832 14.3086 58.5234 14.3086 58.5234 14.3086C58.5234 14.3086 58.5296 14.0736 58.542 13.6035C58.5667 13.1335 58.5791 12.8984 58.5791 12.8984C58.5791 12.8984 58.8203 12.8984 59.3027 12.8984C59.8223 12.8984 60.082 12.8984 60.082 12.8984C60.082 12.8984 60.0697 13.1335 60.0449 13.6035C60.0449 14.0736 60.0449 14.3086 60.0449 14.3086C60.0449 14.3086 59.7975 14.3086 59.3027 14.3086ZM60.917 15.7188C60.3604 15.7188 60.082 15.7188 60.082 15.7188C60.082 15.7188 60.0697 15.4837 60.0449 15.0137C60.0449 14.5436 60.0449 14.3086 60.0449 14.3086C60.0449 14.3086 60.3232 14.3086 60.8799 14.3086C61.3994 14.3086 61.6592 14.3086 61.6592 14.3086C61.6592 14.3086 61.6654 14.5436 61.6777 15.0137C61.7148 15.4837 61.7334 15.7188 61.7334 15.7188C61.7334 15.7188 61.4613 15.7188 60.917 15.7188ZM60.8799 14.3086C60.3232 14.3086 60.0449 14.3086 60.0449 14.3086C60.0449 14.3086 60.0449 14.0736 60.0449 13.6035C60.0697 13.1335 60.082 12.8984 60.082 12.8984C60.082 12.8984 60.348 12.8984 60.8799 12.8984C61.4489 12.8984 61.7334 12.8984 61.7334 12.8984C61.7334 12.8984 61.7148 13.1335 61.6777 13.6035C61.6654 14.0736 61.6592 14.3086 61.6592 14.3086C61.6592 14.3086 61.3994 14.3086 60.8799 14.3086ZM69.8975 27.3711C68.611 27.1608 67.3864 26.8145 66.2236 26.332C65.0609 25.8496 63.9785 25.1755 62.9766 24.3096C61.8262 23.3324 60.8675 22.1696 60.1006 20.8213C59.346 19.473 58.8636 18.0319 58.6533 16.498C58.6038 15.9785 58.5791 15.7188 58.5791 15.7188C58.5791 15.7188 58.8327 15.7188 59.3398 15.7188C59.8841 15.7188 60.1562 15.7188 60.1562 15.7188C60.1562 15.7188 60.1872 15.96 60.249 16.4424C60.484 17.766 60.917 19.0091 61.5479 20.1719C62.1787 21.3346 62.9889 22.3613 63.9785 23.252C64.7454 23.957 65.6113 24.526 66.5762 24.959C67.541 25.3919 68.6234 25.7259 69.8232 25.9609C70.4046 26.0475 70.6953 26.0908 70.6953 26.0908C70.6953 26.0908 70.6953 26.3135 70.6953 26.7588C70.6953 27.2288 70.6953 27.4639 70.6953 27.4639C70.6953 27.4639 70.4294 27.4329 69.8975 27.3711ZM69.8232 25.9609C68.6234 25.7259 67.541 25.3919 66.5762 24.959C65.6113 24.526 64.7454 23.957 63.9785 23.252C62.9889 22.3613 62.1787 21.3346 61.5479 20.1719C60.917 19.0091 60.484 17.766 60.249 16.4424C60.1872 15.96 60.1562 15.7188 60.1562 15.7188C60.1562 15.7188 60.4098 15.7188 60.917 15.7188C61.4613 15.7188 61.7334 15.7188 61.7334 15.7188C61.7334 15.7188 61.7705 15.9414 61.8447 16.3867C62.0303 17.4629 62.3766 18.502 62.8838 19.5039C63.4033 20.4935 64.0713 21.3717 64.8877 22.1387C65.6917 22.8932 66.471 23.4561 67.2256 23.8271C67.9801 24.1859 68.8893 24.4518 69.9531 24.625C70.4479 24.6745 70.6953 24.6992 70.6953 24.6992C70.6953 24.6992 70.6953 24.9466 70.6953 25.4414C70.6953 25.8743 70.6953 26.0908 70.6953 26.0908C70.6953 26.0908 70.4046 26.0475 69.8232 25.9609ZM59.3398 12.8984C58.8327 12.8984 58.5791 12.8984 58.5791 12.8984C58.5791 12.8984 58.6038 12.6387 58.6533 12.1191C58.8265 10.8327 59.2223 9.54622 59.8408 8.25977C60.4717 6.96094 61.2943 5.81673 62.3086 4.82715C63.3353 3.8252 64.4671 2.99642 65.7041 2.34082C66.9535 1.67285 68.3512 1.24609 69.8975 1.06055C70.4294 1.02344 70.6953 1.00488 70.6953 1.00488C70.6953 1.00488 70.6953 1.25228 70.6953 1.74707C70.6953 2.21712 70.6953 2.45215 70.6953 2.45215C70.6953 2.45215 70.4355 2.47689 69.916 2.52637C68.6172 2.68717 67.4235 3.05208 66.335 3.62109C65.2464 4.17773 64.2692 4.88281 63.4033 5.73633C62.5374 6.58984 61.8385 7.58561 61.3066 8.72363C60.7747 9.84928 60.4098 10.9935 60.2119 12.1562C60.1501 12.651 60.1191 12.8984 60.1191 12.8984C60.1191 12.8984 59.8594 12.8984 59.3398 12.8984ZM60.917 12.8984C60.3851 12.8984 60.1191 12.8984 60.1191 12.8984C60.1191 12.8984 60.1501 12.651 60.2119 12.1562C60.4098 10.9935 60.7747 9.84928 61.3066 8.72363C61.8385 7.58561 62.5374 6.58984 63.4033 5.73633C64.2692 4.88281 65.2464 4.17773 66.335 3.62109C67.4235 3.05208 68.6172 2.68717 69.916 2.52637C70.4355 2.47689 70.6953 2.45215 70.6953 2.45215C70.6953 2.45215 70.6953 2.68099 70.6953 3.13867C70.6953 3.6582 70.6953 3.91797 70.6953 3.91797C70.6953 3.91797 70.4417 3.94889 69.9346 4.01074C68.8337 4.19629 67.807 4.52409 66.8545 4.99414C65.902 5.45182 65.0794 6.03939 64.3867 6.75684C63.694 7.47428 63.1374 8.31543 62.7168 9.28027C62.2962 10.2327 62.0055 11.21 61.8447 12.2119C61.7705 12.6696 61.7334 12.8984 61.7334 12.8984C61.7334 12.8984 61.4613 12.8984 60.917 12.8984ZM84.7969 22.4727C83.5475 22.4727 82.9229 22.4727 82.9229 22.4727C82.9229 22.4727 83.0156 22.2624 83.2012 21.8418C83.3867 21.4212 83.4795 21.2109 83.4795 21.2109C83.4795 21.2109 83.9186 21.2109 84.7969 21.2109C85.3535 21.2109 86.0895 21.2109 87.0049 21.2109C87.9326 21.2109 88.9222 21.2109 89.9736 21.2109C90.9385 21.2109 91.9157 21.2109 92.9053 21.2109C93.9072 21.2109 94.8411 21.2109 95.707 21.2109C96.3255 21.2109 96.6348 21.2109 96.6348 21.2109C96.6348 21.2109 96.7275 21.4212 96.9131 21.8418C97.0986 22.2624 97.1914 22.4727 97.1914 22.4727C97.1914 22.4727 96.8512 22.4727 96.1709 22.4727C95.2555 22.4727 94.2598 22.4727 93.1836 22.4727C92.1074 22.4727 91.0374 22.4727 89.9736 22.4727C88.9222 22.4727 87.9264 22.4727 86.9863 22.4727C86.0462 22.4727 85.3164 22.4727 84.7969 22.4727ZM84.7969 21.2109C83.9186 21.2109 83.4795 21.2109 83.4795 21.2109C83.4795 21.2109 83.5723 21.0007 83.7578 20.5801C83.9434 20.1595 84.0361 19.9492 84.0361 19.9492C84.0361 19.9492 84.2897 19.9492 84.7969 19.9492C85.4896 19.9492 86.2936 19.9492 87.209 19.9492C88.1243 19.9492 89.0459 19.9492 89.9736 19.9492C90.9014 19.9492 91.7982 19.9492 92.6641 19.9492C93.5423 19.9492 94.3835 19.9492 95.1875 19.9492C95.7812 19.9492 96.0781 19.9492 96.0781 19.9492C96.0781 19.9492 96.1709 20.1595 96.3564 20.5801C96.542 21.0007 96.6348 21.2109 96.6348 21.2109C96.6348 21.2109 96.3255 21.2109 95.707 21.2109C94.8659 21.2109 93.9443 21.2109 92.9424 21.2109C91.9528 21.2109 90.9632 21.2109 89.9736 21.2109C88.8727 21.2109 87.846 21.2109 86.8936 21.2109C85.9535 21.2109 85.2546 21.2109 84.7969 21.2109ZM84.5928 13.585C84.1846 13.4118 83.9805 13.3252 83.9805 13.3252C83.9805 13.3252 84.0732 13.1087 84.2588 12.6758C85.3721 10.1895 86.1514 8.42057 86.5967 7.36914C87.042 6.31771 87.4007 5.5013 87.6729 4.91992C87.8213 4.59831 87.8955 4.4375 87.8955 4.4375C87.8955 4.4375 88.1491 4.4375 88.6562 4.4375C89.151 4.4375 89.3984 4.4375 89.3984 4.4375C89.3984 4.4375 89.25 4.77767 88.9531 5.45801C88.5573 6.31152 88.1182 7.28255 87.6357 8.37109C87.1657 9.45964 86.4421 11.1172 85.4648 13.3438C85.3164 13.7025 85.2422 13.8818 85.2422 13.8818C85.2422 13.8818 85.0257 13.7829 84.5928 13.585ZM85.873 14.1602C85.4525 13.9746 85.2422 13.8818 85.2422 13.8818C85.2422 13.8818 85.3164 13.7025 85.4648 13.3438C86.4421 11.1172 87.1657 9.45964 87.6357 8.37109C88.1182 7.28255 88.5573 6.31152 88.9531 5.45801C89.25 4.77767 89.3984 4.4375 89.3984 4.4375C89.3984 4.4375 89.5221 4.73438 89.7695 5.32812C90.0169 5.88477 90.1406 6.16309 90.1406 6.16309C90.1406 6.16309 90.0726 6.32389 89.9365 6.64551C89.7139 7.16504 89.3799 7.9196 88.9346 8.90918C88.4893 9.88639 87.7718 11.5068 86.7822 13.7705C86.5843 14.2282 86.4854 14.457 86.4854 14.457C86.4854 14.457 86.2812 14.3581 85.873 14.1602ZM95.707 13.6221C95.2493 13.82 95.0205 13.9189 95.0205 13.9189C95.0205 13.9189 94.9401 13.7396 94.7793 13.3809C93.901 11.4264 93.2393 9.91113 92.7939 8.83496C92.3486 7.75879 91.9095 6.7321 91.4766 5.75488C91.0931 4.87663 90.9014 4.4375 90.9014 4.4375C90.9014 4.4375 91.1426 4.4375 91.625 4.4375C92.1322 4.4375 92.3857 4.4375 92.3857 4.4375C92.3857 4.4375 92.46 4.59212 92.6084 4.90137C93.1156 6.00228 93.598 7.08464 94.0557 8.14844C94.5133 9.19987 95.1999 10.7646 96.1152 12.8428C96.2637 13.1768 96.3379 13.3438 96.3379 13.3438C96.3379 13.3438 96.1276 13.4365 95.707 13.6221ZM94.3525 14.1973C93.9072 14.3952 93.6846 14.4941 93.6846 14.4941C93.6846 14.4941 93.6042 14.3086 93.4434 13.9375C92.4414 11.6367 91.7301 9.97917 91.3096 8.96484C90.9014 7.95052 90.5798 7.17741 90.3447 6.64551C90.2087 6.32389 90.1406 6.16309 90.1406 6.16309C90.1406 6.16309 90.2581 5.87858 90.4932 5.30957C90.7653 4.72819 90.9014 4.4375 90.9014 4.4375C90.9014 4.4375 91.0931 4.87663 91.4766 5.75488C91.9095 6.7321 92.3486 7.75879 92.7939 8.83496C93.2393 9.91113 93.901 11.4264 94.7793 13.3809C94.9401 13.7396 95.0205 13.9189 95.0205 13.9189C95.0205 13.9189 94.7979 14.0117 94.3525 14.1973ZM88.6562 4.4375C88.1491 4.4375 87.8955 4.4375 87.8955 4.4375C87.8955 4.4375 87.9945 4.21484 88.1924 3.76953C88.3903 3.32422 88.4893 3.10156 88.4893 3.10156C88.4893 3.10156 88.7552 3.10156 89.2871 3.10156C89.8561 3.10156 90.1406 3.10156 90.1406 3.10156C90.1406 3.10156 90.0169 3.3304 89.7695 3.78809C89.5221 4.22103 89.3984 4.4375 89.3984 4.4375C89.3984 4.4375 89.151 4.4375 88.6562 4.4375ZM89.2871 3.10156C88.7552 3.10156 88.4893 3.10156 88.4893 3.10156C88.4893 3.10156 88.6006 2.84798 88.8232 2.34082C89.0335 1.8584 89.1387 1.61719 89.1387 1.61719C89.1387 1.61719 89.3118 1.61719 89.6582 1.61719C89.9798 1.61719 90.1406 1.61719 90.1406 1.61719C90.1406 1.61719 90.1406 1.8584 90.1406 2.34082C90.1406 2.84798 90.1406 3.10156 90.1406 3.10156C90.1406 3.10156 89.8561 3.10156 89.2871 3.10156ZM89.7695 5.32812C89.5221 4.73438 89.3984 4.4375 89.3984 4.4375C89.3984 4.4375 89.5221 4.22103 89.7695 3.78809C90.0169 3.3304 90.1406 3.10156 90.1406 3.10156C90.1406 3.10156 90.2767 3.33659 90.5488 3.80664C90.7839 4.22721 90.9014 4.4375 90.9014 4.4375C90.9014 4.4375 90.7715 4.72819 90.5117 5.30957C90.2643 5.87858 90.1406 6.16309 90.1406 6.16309C90.1406 6.16309 90.0169 5.88477 89.7695 5.32812ZM91.625 4.4375C91.1426 4.4375 90.9014 4.4375 90.9014 4.4375C90.9014 4.4375 90.7839 4.22721 90.5488 3.80664C90.2767 3.33659 90.1406 3.10156 90.1406 3.10156C90.1406 3.10156 90.4251 3.10156 90.9941 3.10156C91.526 3.10156 91.792 3.10156 91.792 3.10156C91.792 3.10156 91.891 3.32422 92.0889 3.76953C92.2868 4.21484 92.3857 4.4375 92.3857 4.4375C92.3857 4.4375 92.1322 4.4375 91.625 4.4375ZM90.9941 3.10156C90.4251 3.10156 90.1406 3.10156 90.1406 3.10156C90.1406 3.10156 90.1406 2.84798 90.1406 2.34082C90.1406 1.8584 90.1406 1.61719 90.1406 1.61719C90.1406 1.61719 90.3014 1.61719 90.623 1.61719C90.9694 1.61719 91.1426 1.61719 91.1426 1.61719C91.1426 1.61719 91.2477 1.8584 91.458 2.34082C91.6807 2.84798 91.792 3.10156 91.792 3.10156C91.792 3.10156 91.526 3.10156 90.9941 3.10156ZM81.3086 24.5137C81.7292 24.6992 81.9395 24.792 81.9395 24.792C81.9395 24.792 81.8467 25.0023 81.6611 25.4229C81.4756 25.8311 81.3828 26.0352 81.3828 26.0352C81.3828 26.0352 81.1725 25.9486 80.752 25.7754C80.3438 25.5898 80.1396 25.4971 80.1396 25.4971C80.1396 25.4971 80.2324 25.2868 80.418 24.8662C80.6035 24.4456 80.6963 24.2354 80.6963 24.2354C80.6963 24.2354 80.9004 24.3281 81.3086 24.5137ZM80.752 25.7754C81.1725 25.9486 81.3828 26.0352 81.3828 26.0352C81.3828 26.0352 81.29 26.2454 81.1045 26.666C80.9189 27.0866 80.8262 27.2969 80.8262 27.2969C80.8262 27.2969 80.6221 27.2041 80.2139 27.0186C79.7933 26.833 79.583 26.7402 79.583 26.7402C79.583 26.7402 79.6758 26.5299 79.8613 26.1094C80.0469 25.7012 80.1396 25.4971 80.1396 25.4971C80.1396 25.4971 80.3438 25.5898 80.752 25.7754ZM80.0654 23.957C80.486 24.1426 80.6963 24.2354 80.6963 24.2354C80.6963 24.2354 80.6035 24.4456 80.418 24.8662C80.2324 25.2868 80.1396 25.4971 80.1396 25.4971C80.1396 25.4971 79.9294 25.4043 79.5088 25.2188C79.0882 25.0332 78.8779 24.9404 78.8779 24.9404C78.8779 24.9404 78.9707 24.7301 79.1562 24.3096C79.3418 23.889 79.4346 23.6787 79.4346 23.6787C79.4346 23.6787 79.6449 23.7715 80.0654 23.957ZM79.5088 25.2188C79.9294 25.4043 80.1396 25.4971 80.1396 25.4971C80.1396 25.4971 80.0469 25.7012 79.8613 26.1094C79.6758 26.5299 79.583 26.7402 79.583 26.7402C79.583 26.7402 79.3727 26.6475 78.9521 26.4619C78.5316 26.2764 78.3213 26.1836 78.3213 26.1836C78.3213 26.1836 78.4141 25.9733 78.5996 25.5527C78.7852 25.1445 78.8779 24.9404 78.8779 24.9404C78.8779 24.9404 79.0882 25.0332 79.5088 25.2188ZM85.8916 14.1602C86.3122 14.3457 86.5225 14.4385 86.5225 14.4385C86.5225 14.4385 86.4297 14.6488 86.2441 15.0693C86.0586 15.4899 85.9658 15.7002 85.9658 15.7002C85.9658 15.7002 85.7555 15.6074 85.335 15.4219C84.9144 15.2363 84.7041 15.1436 84.7041 15.1436C84.7041 15.1436 84.7969 14.9333 84.9824 14.5127C85.168 14.0921 85.2607 13.8818 85.2607 13.8818C85.2607 13.8818 85.471 13.9746 85.8916 14.1602ZM85.335 15.4219C85.7555 15.6074 85.9658 15.7002 85.9658 15.7002C85.9658 15.7002 85.873 15.9043 85.6875 16.3125C85.502 16.7331 85.4092 16.9434 85.4092 16.9434C85.4092 16.9434 85.1989 16.8506 84.7783 16.665C84.3701 16.4795 84.166 16.3867 84.166 16.3867C84.166 16.3867 84.2588 16.1826 84.4443 15.7744C84.6175 15.3538 84.7041 15.1436 84.7041 15.1436C84.7041 15.1436 84.9144 15.2363 85.335 15.4219ZM84.6484 13.6035C85.0566 13.7891 85.2607 13.8818 85.2607 13.8818C85.2607 13.8818 85.168 14.0921 84.9824 14.5127C84.7969 14.9333 84.7041 15.1436 84.7041 15.1436C84.7041 15.1436 84.5 15.0508 84.0918 14.8652C83.6712 14.6797 83.4609 14.5869 83.4609 14.5869C83.4609 14.5869 83.5537 14.3766 83.7393 13.9561C83.9248 13.5355 84.0176 13.3252 84.0176 13.3252C84.0176 13.3252 84.2279 13.418 84.6484 13.6035ZM84.0918 14.8652C84.5 15.0508 84.7041 15.1436 84.7041 15.1436C84.7041 15.1436 84.6175 15.3538 84.4443 15.7744C84.2588 16.1826 84.166 16.3867 84.166 16.3867C84.166 16.3867 83.9557 16.2939 83.5352 16.1084C83.1146 15.9229 82.9043 15.8301 82.9043 15.8301C82.9043 15.8301 82.9971 15.626 83.1826 15.2178C83.3682 14.7972 83.4609 14.5869 83.4609 14.5869C83.4609 14.5869 83.6712 14.6797 84.0918 14.8652ZM84.7783 16.665C85.1989 16.8506 85.4092 16.9434 85.4092 16.9434C85.4092 16.9434 85.3164 17.1536 85.1309 17.5742C84.9453 17.9948 84.7969 18.335 84.6855 18.5947C84.5742 18.8421 84.234 19.6152 83.665 20.9141C83.1084 22.1758 82.7744 22.9242 82.6631 23.1592C82.5641 23.3818 82.4219 23.7096 82.2363 24.1426C82.0384 24.5755 81.9395 24.792 81.9395 24.792C81.9395 24.792 81.7292 24.6992 81.3086 24.5137C80.9004 24.3281 80.6963 24.2354 80.6963 24.2354C80.6963 24.2354 80.7891 24.0189 80.9746 23.5859C81.1602 23.153 81.3024 22.819 81.4014 22.584C81.5127 22.349 81.8467 21.6068 82.4033 20.3574C82.9847 19.0339 83.3311 18.2546 83.4424 18.0195C83.5537 17.7721 83.7021 17.4382 83.8877 17.0176C84.0732 16.597 84.166 16.3867 84.166 16.3867C84.166 16.3867 84.3701 16.4795 84.7783 16.665ZM83.5352 16.1084C83.9557 16.2939 84.166 16.3867 84.166 16.3867C84.166 16.3867 84.0732 16.597 83.8877 17.0176C83.7021 17.4382 83.5475 17.7783 83.4238 18.0381C83.3125 18.2855 82.9723 19.0586 82.4033 20.3574C81.8467 21.6191 81.5127 22.3675 81.4014 22.6025C81.3024 22.8252 81.1602 23.153 80.9746 23.5859C80.7891 24.0189 80.6963 24.2354 80.6963 24.2354C80.6963 24.2354 80.486 24.1426 80.0654 23.957C79.6449 23.7715 79.4346 23.6787 79.4346 23.6787C79.4346 23.6787 79.5273 23.4622 79.7129 23.0293C79.9108 22.5964 80.0592 22.2624 80.1582 22.0273C80.2695 21.7923 80.5973 21.0501 81.1416 19.8008C81.7354 18.4772 82.0817 17.6979 82.1807 17.4629C82.292 17.2155 82.4404 16.8815 82.626 16.4609C82.8115 16.0404 82.9043 15.8301 82.9043 15.8301C82.9043 15.8301 83.1146 15.9229 83.5352 16.1084ZM100.216 23.9941C100.661 23.8086 100.884 23.7158 100.884 23.7158C100.884 23.7158 100.977 23.9199 101.162 24.3281C101.335 24.7487 101.422 24.959 101.422 24.959C101.422 24.959 101.205 25.0579 100.772 25.2559C100.327 25.4538 100.104 25.5527 100.104 25.5527C100.104 25.5527 100.012 25.3424 99.8262 24.9219C99.6406 24.5013 99.5479 24.291 99.5479 24.291C99.5479 24.291 99.7705 24.1921 100.216 23.9941ZM100.772 25.2559C101.205 25.0579 101.422 24.959 101.422 24.959C101.422 24.959 101.515 25.1693 101.7 25.5898C101.886 26.0104 101.979 26.2207 101.979 26.2207C101.979 26.2207 101.756 26.3197 101.311 26.5176C100.865 26.7031 100.643 26.7959 100.643 26.7959C100.643 26.7959 100.556 26.5856 100.383 26.165C100.197 25.7568 100.104 25.5527 100.104 25.5527C100.104 25.5527 100.327 25.4538 100.772 25.2559ZM98.8799 24.5693C99.3252 24.3838 99.5479 24.291 99.5479 24.291C99.5479 24.291 99.6406 24.5013 99.8262 24.9219C100.012 25.3424 100.104 25.5527 100.104 25.5527C100.104 25.5527 99.8818 25.6455 99.4365 25.8311C98.9912 26.029 98.7686 26.1279 98.7686 26.1279C98.7686 26.1279 98.682 25.9176 98.5088 25.4971C98.3232 25.0765 98.2305 24.8662 98.2305 24.8662C98.2305 24.8662 98.4469 24.7673 98.8799 24.5693ZM99.4365 25.8311C99.8818 25.6455 100.104 25.5527 100.104 25.5527C100.104 25.5527 100.197 25.7568 100.383 26.165C100.556 26.5856 100.643 26.7959 100.643 26.7959C100.643 26.7959 100.426 26.8949 99.9932 27.0928C99.5479 27.2907 99.3252 27.3896 99.3252 27.3896C99.3252 27.3896 99.2324 27.1794 99.0469 26.7588C98.8613 26.3382 98.7686 26.1279 98.7686 26.1279C98.7686 26.1279 98.9912 26.029 99.4365 25.8311ZM96.7832 16.1455C97.2285 15.9476 97.4512 15.8486 97.4512 15.8486C97.4512 15.8486 97.5439 16.0589 97.7295 16.4795C97.915 16.9124 98.0635 17.2588 98.1748 17.5186C98.2861 17.766 98.6263 18.5391 99.1953 19.8379C99.7396 21.0996 100.061 21.848 100.16 22.083C100.259 22.3057 100.408 22.6335 100.605 23.0664C100.791 23.4993 100.884 23.7158 100.884 23.7158C100.884 23.7158 100.661 23.8086 100.216 23.9941C99.7705 24.1921 99.5479 24.291 99.5479 24.291C99.5479 24.291 99.4551 24.0745 99.2695 23.6416C99.084 23.2087 98.9355 22.8809 98.8242 22.6582C98.7253 22.4232 98.4036 21.681 97.8594 20.4316C97.2904 19.0957 96.9502 18.3102 96.8389 18.0752C96.7275 17.8278 96.5791 17.4876 96.3936 17.0547C96.208 16.6341 96.1152 16.4238 96.1152 16.4238C96.1152 16.4238 96.3379 16.3311 96.7832 16.1455ZM95.4658 16.7207C95.8988 16.5228 96.1152 16.4238 96.1152 16.4238C96.1152 16.4238 96.208 16.6341 96.3936 17.0547C96.5791 17.4876 96.7275 17.834 96.8389 18.0938C96.9502 18.3411 97.2904 19.1204 97.8594 20.4316C98.416 21.681 98.7438 22.4232 98.8428 22.6582C98.9417 22.8809 99.084 23.2087 99.2695 23.6416C99.4551 24.0745 99.5479 24.291 99.5479 24.291C99.5479 24.291 99.3252 24.3838 98.8799 24.5693C98.4469 24.7673 98.2305 24.8662 98.2305 24.8662C98.2305 24.8662 98.1377 24.6497 97.9521 24.2168C97.7542 23.7839 97.6058 23.4561 97.5068 23.2334C97.4079 22.9984 97.0863 22.2562 96.542 21.0068C95.9606 19.6833 95.6143 18.8978 95.5029 18.6504C95.404 18.403 95.2617 18.0628 95.0762 17.6299C94.8906 17.2217 94.7979 17.0176 94.7979 17.0176C94.7979 17.0176 95.0205 16.9186 95.4658 16.7207ZM95.6885 13.6221C96.1338 13.4242 96.3564 13.3252 96.3564 13.3252C96.3564 13.3252 96.4492 13.5355 96.6348 13.9561C96.8079 14.3766 96.8945 14.5869 96.8945 14.5869C96.8945 14.5869 96.6781 14.6859 96.2451 14.8838C95.7998 15.0693 95.5771 15.1621 95.5771 15.1621C95.5771 15.1621 95.4844 14.958 95.2988 14.5498C95.1133 14.1292 95.0205 13.9189 95.0205 13.9189C95.0205 13.9189 95.2432 13.82 95.6885 13.6221ZM96.2451 14.8838C96.6781 14.6859 96.8945 14.5869 96.8945 14.5869C96.8945 14.5869 96.9873 14.7972 97.1729 15.2178C97.3584 15.6383 97.4512 15.8486 97.4512 15.8486C97.4512 15.8486 97.2285 15.9476 96.7832 16.1455C96.3379 16.3311 96.1152 16.4238 96.1152 16.4238C96.1152 16.4238 96.0286 16.2135 95.8555 15.793C95.6699 15.3724 95.5771 15.1621 95.5771 15.1621C95.5771 15.1621 95.7998 15.0693 96.2451 14.8838ZM94.3525 14.1973C94.7979 14.0117 95.0205 13.9189 95.0205 13.9189C95.0205 13.9189 95.1133 14.1292 95.2988 14.5498C95.4844 14.958 95.5771 15.1621 95.5771 15.1621C95.5771 15.1621 95.3545 15.2611 94.9092 15.459C94.4639 15.6569 94.2412 15.7559 94.2412 15.7559C94.2412 15.7559 94.1546 15.5456 93.9814 15.125C93.7959 14.7044 93.7031 14.4941 93.7031 14.4941C93.7031 14.4941 93.9196 14.3952 94.3525 14.1973ZM94.9092 15.459C95.3545 15.2611 95.5771 15.1621 95.5771 15.1621C95.5771 15.1621 95.6699 15.3724 95.8555 15.793C96.0286 16.2135 96.1152 16.4238 96.1152 16.4238C96.1152 16.4238 95.8988 16.5228 95.4658 16.7207C95.0205 16.9186 94.7979 17.0176 94.7979 17.0176C94.7979 17.0176 94.7051 16.8073 94.5195 16.3867C94.334 15.9661 94.2412 15.7559 94.2412 15.7559C94.2412 15.7559 94.4639 15.6569 94.9092 15.459ZM105.764 12.8984C105.244 12.8984 104.984 12.8984 104.984 12.8984C104.984 12.8984 104.984 12.4655 104.984 11.5996C104.984 10.9935 104.984 10.3008 104.984 9.52148C104.984 8.74219 104.984 7.97526 104.984 7.2207C104.984 6.60221 104.984 5.98372 104.984 5.36523C104.984 4.74674 104.984 4.01074 104.984 3.15723C104.984 3.07064 104.984 3.02734 104.984 3.02734C104.984 3.02734 105.238 3.02734 105.745 3.02734C106.252 3.02734 106.506 3.02734 106.506 3.02734C106.506 3.02734 106.506 3.07064 106.506 3.15723C106.506 3.25618 106.506 3.64583 106.506 4.32617C106.506 4.99414 106.506 5.98372 106.506 7.29492C106.506 8.25977 106.506 9.05143 106.506 9.66992C106.506 10.276 106.506 10.9193 106.506 11.5996C106.506 12.4655 106.506 12.8984 106.506 12.8984C106.506 12.8984 106.258 12.8984 105.764 12.8984ZM112.555 14.1045C112.109 14.3271 111.887 14.4385 111.887 14.4385C111.887 14.4385 111.726 14.0859 111.404 13.3809C110.984 12.4284 110.464 11.3584 109.846 10.1709C109.24 8.97103 108.788 8.05566 108.491 7.4248C107.168 4.49316 106.506 3.02734 106.506 3.02734C106.506 3.02734 106.506 2.86654 106.506 2.54492C106.506 1.92643 106.506 1.61719 106.506 1.61719C106.506 1.61719 106.685 1.61719 107.044 1.61719C107.304 1.61719 107.434 1.61719 107.434 1.61719C107.434 1.61719 107.57 1.93262 107.842 2.56348C108.287 3.62728 108.658 4.46842 108.955 5.08691C109.252 5.69303 109.555 6.33008 109.864 6.99805C110.495 8.37109 111.008 9.44727 111.404 10.2266C111.8 10.9935 112.239 11.8717 112.722 12.8613C113.043 13.4922 113.204 13.8076 113.204 13.8076C113.204 13.8076 112.988 13.9066 112.555 14.1045ZM121.851 14.1416C121.455 13.9561 121.257 13.8633 121.257 13.8633C121.257 13.8633 121.554 13.2633 122.147 12.0635C122.358 11.6182 122.648 11.0059 123.02 10.2266C123.391 9.44727 123.892 8.37109 124.522 6.99805C124.832 6.33008 125.135 5.69303 125.432 5.08691C125.729 4.46842 126.1 3.62728 126.545 2.56348C126.817 1.93262 126.953 1.61719 126.953 1.61719C126.953 1.61719 127.083 1.61719 127.343 1.61719C127.701 1.61719 127.881 1.61719 127.881 1.61719C127.881 1.61719 127.881 1.92643 127.881 2.54492C127.881 3.05208 127.881 3.30566 127.881 3.30566C127.881 3.30566 127.219 4.67871 125.896 7.4248C125.623 8.00618 125.184 8.90918 124.578 10.1338C123.984 11.3584 123.601 12.1562 123.428 12.5273C122.809 13.8014 122.5 14.4385 122.5 14.4385C122.5 14.4385 122.284 14.3395 121.851 14.1416ZM128.623 12.8984C128.128 12.8984 127.881 12.8984 127.881 12.8984C127.881 12.8984 127.881 12.4655 127.881 11.5996C127.881 10.9193 127.881 10.276 127.881 9.66992C127.881 9.05143 127.881 8.25977 127.881 7.29492C127.881 5.98372 127.881 5.08691 127.881 4.60449C127.881 4.1097 127.881 3.76953 127.881 3.58398C127.881 3.39844 127.881 3.30566 127.881 3.30566C127.881 3.30566 128.128 3.30566 128.623 3.30566C129.143 3.30566 129.402 3.30566 129.402 3.30566C129.402 3.30566 129.402 3.39844 129.402 3.58398C129.402 4.15299 129.402 4.74674 129.402 5.36523C129.402 5.98372 129.402 6.60221 129.402 7.2207C129.402 7.97526 129.402 8.74219 129.402 9.52148C129.402 10.3008 129.402 10.9935 129.402 11.5996C129.402 12.4655 129.402 12.8984 129.402 12.8984C129.402 12.8984 129.143 12.8984 128.623 12.8984ZM107.248 12.8984C106.753 12.8984 106.506 12.8984 106.506 12.8984C106.506 12.8984 106.506 12.4655 106.506 11.5996C106.506 10.5111 106.506 9.36068 106.506 8.14844C106.506 6.92383 106.506 5.89714 106.506 5.06836C106.506 3.70768 106.506 3.02734 106.506 3.02734C106.506 3.02734 106.79 3.65202 107.359 4.90137C107.805 5.89095 108.027 6.38574 108.027 6.38574C108.027 6.38574 108.027 7.04134 108.027 8.35254C108.027 8.99577 108.027 9.5957 108.027 10.1523C108.027 10.6966 108.027 11.179 108.027 11.5996C108.027 12.4655 108.027 12.8984 108.027 12.8984C108.027 12.8984 107.768 12.8984 107.248 12.8984ZM111.219 14.7354C110.786 14.9333 110.569 15.0322 110.569 15.0322C110.569 15.0322 110.415 14.6921 110.105 14.0117C109.734 13.2201 109.394 12.5026 109.085 11.8594C108.776 11.2038 108.565 10.7585 108.454 10.5234C108.17 9.8431 108.027 9.50293 108.027 9.50293C108.027 9.50293 108.027 9.11947 108.027 8.35254C108.027 7.04134 108.027 6.38574 108.027 6.38574C108.027 6.38574 108.182 6.7321 108.491 7.4248C108.788 8.05566 109.24 8.97103 109.846 10.1709C110.464 11.3584 110.984 12.4284 111.404 13.3809C111.726 14.0859 111.887 14.4385 111.887 14.4385C111.887 14.4385 111.664 14.5374 111.219 14.7354ZM115.709 24.1797C115.177 24.1797 114.911 24.1797 114.911 24.1797C114.911 24.1797 114.447 23.1777 113.52 21.1738C113 20.0977 112.709 19.4977 112.647 19.374C112.586 19.2503 112.499 19.0648 112.388 18.8174C111.942 17.9391 111.72 17.5 111.72 17.5C111.72 17.5 111.949 17.3949 112.406 17.1846C112.827 16.9867 113.037 16.8877 113.037 16.8877C113.037 16.8877 113.26 17.3639 113.705 18.3164C113.854 18.6133 114.027 18.9782 114.225 19.4111C114.435 19.8317 115.047 21.1182 116.062 23.2705C116.346 23.8766 116.488 24.1797 116.488 24.1797C116.488 24.1797 116.229 24.1797 115.709 24.1797ZM116.841 23.3076C116.606 23.889 116.488 24.1797 116.488 24.1797C116.488 24.1797 116.346 23.8766 116.062 23.2705C115.047 21.1182 114.435 19.8317 114.225 19.4111C114.027 18.9782 113.854 18.6133 113.705 18.3164C113.26 17.3639 113.037 16.8877 113.037 16.8877C113.037 16.8877 113.26 16.7887 113.705 16.5908C114.138 16.3929 114.354 16.2939 114.354 16.2939C114.354 16.2939 114.577 16.7702 115.022 17.7227C115.183 18.0566 115.443 18.6318 115.802 19.4482C116.173 20.2646 116.525 21.0068 116.859 21.6748C117.082 22.1943 117.193 22.4541 117.193 22.4541C117.193 22.4541 117.076 22.7386 116.841 23.3076ZM117.546 23.3076C117.311 22.7386 117.193 22.4541 117.193 22.4541C117.193 22.4541 117.305 22.1943 117.527 21.6748C117.861 21.0068 118.208 20.277 118.566 19.4854C118.938 18.6813 119.241 18.0443 119.476 17.5742C119.896 16.7331 120.106 16.3125 120.106 16.3125C120.106 16.3125 120.311 16.4115 120.719 16.6094C121.139 16.8073 121.35 16.9062 121.35 16.9062C121.35 16.9062 121.152 17.3083 120.756 18.1123C120.546 18.5205 120.341 18.9473 120.144 19.3926C119.946 19.8255 119.34 21.1182 118.325 23.2705C118.041 23.8766 117.898 24.1797 117.898 24.1797C117.898 24.1797 117.781 23.889 117.546 23.3076ZM118.678 24.1797C118.158 24.1797 117.898 24.1797 117.898 24.1797C117.898 24.1797 118.041 23.8766 118.325 23.2705C119.34 21.1182 119.946 19.8255 120.144 19.3926C120.341 18.9473 120.546 18.5205 120.756 18.1123C121.152 17.3083 121.35 16.9062 121.35 16.9062C121.35 16.9062 121.554 17.0052 121.962 17.2031C122.382 17.3887 122.593 17.4814 122.593 17.4814C122.593 17.4814 122.389 17.9144 121.98 18.7803C121.869 19.0277 121.783 19.2194 121.721 19.3555C121.671 19.4915 121.387 20.0977 120.867 21.1738C119.927 23.1777 119.457 24.1797 119.457 24.1797C119.457 24.1797 119.197 24.1797 118.678 24.1797ZM123.094 14.7168C122.698 14.5312 122.5 14.4385 122.5 14.4385C122.5 14.4385 122.809 13.8014 123.428 12.5273C123.601 12.1562 123.978 11.3708 124.56 10.1709C125.153 8.97103 125.599 8.05566 125.896 7.4248C126.205 6.78158 126.359 6.45996 126.359 6.45996C126.359 6.45996 126.359 6.92383 126.359 7.85156C126.359 8.82878 126.359 9.31738 126.359 9.31738C126.359 9.31738 126.217 9.65755 125.933 10.3379C125.821 10.5729 125.599 11.0368 125.265 11.7295C124.943 12.4222 124.727 12.8923 124.615 13.1396C124.034 14.389 123.743 15.0137 123.743 15.0137C123.743 15.0137 123.527 14.9147 123.094 14.7168ZM127.139 12.8984C126.619 12.8984 126.359 12.8984 126.359 12.8984C126.359 12.8984 126.359 12.4655 126.359 11.5996C126.359 11.179 126.359 10.6966 126.359 10.1523C126.359 9.5957 126.359 8.99577 126.359 8.35254C126.359 7.09082 126.359 6.45996 126.359 6.45996C126.359 6.45996 126.613 5.93424 127.12 4.88281C127.627 3.83138 127.881 3.30566 127.881 3.30566C127.881 3.30566 127.881 3.89323 127.881 5.06836C127.881 5.89714 127.881 6.92383 127.881 8.14844C127.881 9.36068 127.881 10.5111 127.881 11.5996C127.881 12.4655 127.881 12.8984 127.881 12.8984C127.881 12.8984 127.633 12.8984 127.139 12.8984ZM116.711 27C116.365 27 116.191 27 116.191 27C116.191 27 116.086 26.7588 115.876 26.2764C115.641 25.7692 115.523 25.5156 115.523 25.5156C115.523 25.5156 115.796 25.5156 116.34 25.5156C116.909 25.5156 117.193 25.5156 117.193 25.5156C117.193 25.5156 117.193 25.7692 117.193 26.2764C117.193 26.7588 117.193 27 117.193 27C117.193 27 117.033 27 116.711 27ZM116.34 25.5156C115.796 25.5156 115.523 25.5156 115.523 25.5156C115.523 25.5156 115.424 25.293 115.227 24.8477C115.016 24.4023 114.911 24.1797 114.911 24.1797C114.911 24.1797 115.177 24.1797 115.709 24.1797C116.229 24.1797 116.488 24.1797 116.488 24.1797C116.488 24.1797 116.6 24.39 116.822 24.8105C117.07 25.2806 117.193 25.5156 117.193 25.5156C117.193 25.5156 116.909 25.5156 116.34 25.5156ZM117.676 27C117.354 27 117.193 27 117.193 27C117.193 27 117.193 26.7588 117.193 26.2764C117.193 25.7692 117.193 25.5156 117.193 25.5156C117.193 25.5156 117.478 25.5156 118.047 25.5156C118.579 25.5156 118.845 25.5156 118.845 25.5156C118.845 25.5156 118.733 25.7692 118.511 26.2764C118.3 26.7588 118.195 27 118.195 27C118.195 27 118.022 27 117.676 27ZM118.047 25.5156C117.478 25.5156 117.193 25.5156 117.193 25.5156C117.193 25.5156 117.317 25.2806 117.564 24.8105C117.787 24.39 117.898 24.1797 117.898 24.1797C117.898 24.1797 118.158 24.1797 118.678 24.1797C119.197 24.1797 119.457 24.1797 119.457 24.1797C119.457 24.1797 119.352 24.4023 119.142 24.8477C118.944 25.293 118.845 25.5156 118.845 25.5156C118.845 25.5156 118.579 25.5156 118.047 25.5156ZM117.193 25.5156C116.723 24.625 116.488 24.1797 116.488 24.1797C116.488 24.1797 116.606 23.889 116.841 23.3076C117.076 22.7386 117.193 22.4541 117.193 22.4541C117.193 22.4541 117.311 22.7386 117.546 23.3076C117.781 23.889 117.898 24.1797 117.898 24.1797C117.898 24.1797 117.663 24.625 117.193 25.5156ZM105.745 3.02734C105.238 3.02734 104.984 3.02734 104.984 3.02734C104.984 3.02734 104.984 2.79232 104.984 2.32227C104.984 1.85221 104.984 1.61719 104.984 1.61719C104.984 1.61719 105.238 1.61719 105.745 1.61719C106.252 1.61719 106.506 1.61719 106.506 1.61719C106.506 1.61719 106.506 1.85221 106.506 2.32227C106.506 2.79232 106.506 3.02734 106.506 3.02734C106.506 3.02734 106.252 3.02734 105.745 3.02734ZM128.642 3.30566C128.134 3.30566 127.881 3.30566 127.881 3.30566C127.881 3.30566 127.881 2.97786 127.881 2.32227C127.881 1.85221 127.881 1.61719 127.881 1.61719C127.881 1.61719 128.134 1.61719 128.642 1.61719C129.149 1.61719 129.402 1.61719 129.402 1.61719C129.402 1.61719 129.402 1.85221 129.402 2.32227C129.402 2.97786 129.402 3.30566 129.402 3.30566C129.402 3.30566 129.149 3.30566 128.642 3.30566ZM105.745 27C105.238 27 104.984 27 104.984 27C104.984 27 104.984 26.765 104.984 26.2949C104.984 25.8249 104.984 25.5898 104.984 25.5898C104.984 25.5898 105.238 25.5898 105.745 25.5898C106.252 25.5898 106.506 25.5898 106.506 25.5898C106.506 25.5898 106.506 25.8249 106.506 26.2949C106.506 26.765 106.506 27 106.506 27C106.506 27 106.252 27 105.745 27ZM105.745 25.5898C105.238 25.5898 104.984 25.5898 104.984 25.5898C104.984 25.5898 104.984 25.3548 104.984 24.8848C104.984 24.4147 104.984 24.1797 104.984 24.1797C104.984 24.1797 105.238 24.1797 105.745 24.1797C106.252 24.1797 106.506 24.1797 106.506 24.1797C106.506 24.1797 106.506 24.4147 106.506 24.8848C106.506 25.3548 106.506 25.5898 106.506 25.5898C106.506 25.5898 106.252 25.5898 105.745 25.5898ZM107.267 27C106.759 27 106.506 27 106.506 27C106.506 27 106.506 26.765 106.506 26.2949C106.506 25.8249 106.506 25.5898 106.506 25.5898C106.506 25.5898 106.759 25.5898 107.267 25.5898C107.774 25.5898 108.027 25.5898 108.027 25.5898C108.027 25.5898 108.027 25.8249 108.027 26.2949C108.027 26.765 108.027 27 108.027 27C108.027 27 107.774 27 107.267 27ZM107.267 25.5898C106.759 25.5898 106.506 25.5898 106.506 25.5898C106.506 25.5898 106.506 25.3548 106.506 24.8848C106.506 24.4147 106.506 24.1797 106.506 24.1797C106.506 24.1797 106.759 24.1797 107.267 24.1797C107.774 24.1797 108.027 24.1797 108.027 24.1797C108.027 24.1797 108.027 24.4147 108.027 24.8848C108.027 25.3548 108.027 25.5898 108.027 25.5898C108.027 25.5898 107.774 25.5898 107.267 25.5898ZM105.745 15.7188C105.238 15.7188 104.984 15.7188 104.984 15.7188C104.984 15.7188 104.984 15.4837 104.984 15.0137C104.984 14.5436 104.984 14.3086 104.984 14.3086C104.984 14.3086 105.238 14.3086 105.745 14.3086C106.252 14.3086 106.506 14.3086 106.506 14.3086C106.506 14.3086 106.506 14.5436 106.506 15.0137C106.506 15.4837 106.506 15.7188 106.506 15.7188C106.506 15.7188 106.252 15.7188 105.745 15.7188ZM105.745 14.3086C105.238 14.3086 104.984 14.3086 104.984 14.3086C104.984 14.3086 104.984 14.0736 104.984 13.6035C104.984 13.1335 104.984 12.8984 104.984 12.8984C104.984 12.8984 105.238 12.8984 105.745 12.8984C106.252 12.8984 106.506 12.8984 106.506 12.8984C106.506 12.8984 106.506 13.1335 106.506 13.6035C106.506 14.0736 106.506 14.3086 106.506 14.3086C106.506 14.3086 106.252 14.3086 105.745 14.3086ZM107.267 15.7188C106.759 15.7188 106.506 15.7188 106.506 15.7188C106.506 15.7188 106.506 15.4837 106.506 15.0137C106.506 14.5436 106.506 14.3086 106.506 14.3086C106.506 14.3086 106.759 14.3086 107.267 14.3086C107.774 14.3086 108.027 14.3086 108.027 14.3086C108.027 14.3086 108.027 14.5436 108.027 15.0137C108.027 15.4837 108.027 15.7188 108.027 15.7188C108.027 15.7188 107.774 15.7188 107.267 15.7188ZM107.267 14.3086C106.759 14.3086 106.506 14.3086 106.506 14.3086C106.506 14.3086 106.506 14.0736 106.506 13.6035C106.506 13.1335 106.506 12.8984 106.506 12.8984C106.506 12.8984 106.759 12.8984 107.267 12.8984C107.774 12.8984 108.027 12.8984 108.027 12.8984C108.027 12.8984 108.027 13.1335 108.027 13.6035C108.027 14.0736 108.027 14.3086 108.027 14.3086C108.027 14.3086 107.774 14.3086 107.267 14.3086ZM105.745 24.1797C105.238 24.1797 104.984 24.1797 104.984 24.1797C104.984 24.1797 104.984 23.9447 104.984 23.4746C104.984 23.0046 104.984 22.6582 104.984 22.4355C104.984 22.2005 104.984 21.3717 104.984 19.9492C104.984 18.5762 104.984 17.766 104.984 17.5186C104.984 17.2588 104.984 16.8939 104.984 16.4238C104.984 15.9538 104.984 15.7188 104.984 15.7188C104.984 15.7188 105.238 15.7188 105.745 15.7188C106.252 15.7188 106.506 15.7188 106.506 15.7188C106.506 15.7188 106.506 15.9538 106.506 16.4238C106.506 16.8939 106.506 17.2588 106.506 17.5186C106.506 17.7783 106.506 18.5885 106.506 19.9492C106.506 21.3965 106.506 22.2314 106.506 22.4541C106.506 22.6644 106.506 23.0046 106.506 23.4746C106.506 23.9447 106.506 24.1797 106.506 24.1797C106.506 24.1797 106.252 24.1797 105.745 24.1797ZM107.267 24.1797C106.759 24.1797 106.506 24.1797 106.506 24.1797C106.506 24.1797 106.506 23.9447 106.506 23.4746C106.506 23.0046 106.506 22.6582 106.506 22.4355C106.506 22.2005 106.506 21.3717 106.506 19.9492C106.506 18.5762 106.506 17.766 106.506 17.5186C106.506 17.2588 106.506 16.8939 106.506 16.4238C106.506 15.9538 106.506 15.7188 106.506 15.7188C106.506 15.7188 106.759 15.7188 107.267 15.7188C107.774 15.7188 108.027 15.7188 108.027 15.7188C108.027 15.7188 108.027 15.9538 108.027 16.4238C108.027 16.8939 108.027 17.2588 108.027 17.5186C108.027 17.7783 108.027 18.5885 108.027 19.9492C108.027 21.3965 108.027 22.2314 108.027 22.4541C108.027 22.6644 108.027 23.0046 108.027 23.4746C108.027 23.9447 108.027 24.1797 108.027 24.1797C108.027 24.1797 107.774 24.1797 107.267 24.1797ZM127.12 27C126.613 27 126.359 27 126.359 27C126.359 27 126.359 26.765 126.359 26.2949C126.359 25.8249 126.359 25.5898 126.359 25.5898C126.359 25.5898 126.613 25.5898 127.12 25.5898C127.627 25.5898 127.881 25.5898 127.881 25.5898C127.881 25.5898 127.881 25.8249 127.881 26.2949C127.881 26.765 127.881 27 127.881 27C127.881 27 127.627 27 127.12 27ZM127.12 25.5898C126.613 25.5898 126.359 25.5898 126.359 25.5898C126.359 25.5898 126.359 25.3548 126.359 24.8848C126.359 24.4147 126.359 24.1797 126.359 24.1797C126.359 24.1797 126.613 24.1797 127.12 24.1797C127.627 24.1797 127.881 24.1797 127.881 24.1797C127.881 24.1797 127.881 24.4147 127.881 24.8848C127.881 25.3548 127.881 25.5898 127.881 25.5898C127.881 25.5898 127.627 25.5898 127.12 25.5898ZM128.642 27C128.134 27 127.881 27 127.881 27C127.881 27 127.881 26.765 127.881 26.2949C127.881 25.8249 127.881 25.5898 127.881 25.5898C127.881 25.5898 128.134 25.5898 128.642 25.5898C129.149 25.5898 129.402 25.5898 129.402 25.5898C129.402 25.5898 129.402 25.8249 129.402 26.2949C129.402 26.765 129.402 27 129.402 27C129.402 27 129.149 27 128.642 27ZM128.642 25.5898C128.134 25.5898 127.881 25.5898 127.881 25.5898C127.881 25.5898 127.881 25.3548 127.881 24.8848C127.881 24.4147 127.881 24.1797 127.881 24.1797C127.881 24.1797 128.134 24.1797 128.642 24.1797C129.149 24.1797 129.402 24.1797 129.402 24.1797C129.402 24.1797 129.402 24.4147 129.402 24.8848C129.402 25.3548 129.402 25.5898 129.402 25.5898C129.402 25.5898 129.149 25.5898 128.642 25.5898ZM127.12 15.7188C126.613 15.7188 126.359 15.7188 126.359 15.7188C126.359 15.7188 126.359 15.4837 126.359 15.0137C126.359 14.5436 126.359 14.3086 126.359 14.3086C126.359 14.3086 126.613 14.3086 127.12 14.3086C127.627 14.3086 127.881 14.3086 127.881 14.3086C127.881 14.3086 127.881 14.5436 127.881 15.0137C127.881 15.4837 127.881 15.7188 127.881 15.7188C127.881 15.7188 127.627 15.7188 127.12 15.7188ZM127.12 14.3086C126.613 14.3086 126.359 14.3086 126.359 14.3086C126.359 14.3086 126.359 14.0736 126.359 13.6035C126.359 13.1335 126.359 12.8984 126.359 12.8984C126.359 12.8984 126.613 12.8984 127.12 12.8984C127.627 12.8984 127.881 12.8984 127.881 12.8984C127.881 12.8984 127.881 13.1335 127.881 13.6035C127.881 14.0736 127.881 14.3086 127.881 14.3086C127.881 14.3086 127.627 14.3086 127.12 14.3086ZM128.642 15.7188C128.134 15.7188 127.881 15.7188 127.881 15.7188C127.881 15.7188 127.881 15.4837 127.881 15.0137C127.881 14.5436 127.881 14.3086 127.881 14.3086C127.881 14.3086 128.134 14.3086 128.642 14.3086C129.149 14.3086 129.402 14.3086 129.402 14.3086C129.402 14.3086 129.402 14.5436 129.402 15.0137C129.402 15.4837 129.402 15.7188 129.402 15.7188C129.402 15.7188 129.149 15.7188 128.642 15.7188ZM128.642 14.3086C128.134 14.3086 127.881 14.3086 127.881 14.3086C127.881 14.3086 127.881 14.0736 127.881 13.6035C127.881 13.1335 127.881 12.8984 127.881 12.8984C127.881 12.8984 128.134 12.8984 128.642 12.8984C129.149 12.8984 129.402 12.8984 129.402 12.8984C129.402 12.8984 129.402 13.1335 129.402 13.6035C129.402 14.0736 129.402 14.3086 129.402 14.3086C129.402 14.3086 129.149 14.3086 128.642 14.3086ZM127.12 24.1797C126.613 24.1797 126.359 24.1797 126.359 24.1797C126.359 24.1797 126.359 23.9447 126.359 23.4746C126.359 23.0046 126.359 22.6582 126.359 22.4355C126.359 22.2005 126.359 21.3717 126.359 19.9492C126.359 18.5762 126.359 17.766 126.359 17.5186C126.359 17.2588 126.359 16.8939 126.359 16.4238C126.359 15.9538 126.359 15.7188 126.359 15.7188C126.359 15.7188 126.613 15.7188 127.12 15.7188C127.627 15.7188 127.881 15.7188 127.881 15.7188C127.881 15.7188 127.881 15.9538 127.881 16.4238C127.881 16.8939 127.881 17.2588 127.881 17.5186C127.881 17.7783 127.881 18.5885 127.881 19.9492C127.881 21.3965 127.881 22.2314 127.881 22.4541C127.881 22.6644 127.881 23.0046 127.881 23.4746C127.881 23.9447 127.881 24.1797 127.881 24.1797C127.881 24.1797 127.627 24.1797 127.12 24.1797ZM128.642 24.1797C128.134 24.1797 127.881 24.1797 127.881 24.1797C127.881 24.1797 127.881 23.9447 127.881 23.4746C127.881 23.0046 127.881 22.6582 127.881 22.4355C127.881 22.2005 127.881 21.3717 127.881 19.9492C127.881 18.5762 127.881 17.766 127.881 17.5186C127.881 17.2588 127.881 16.8939 127.881 16.4238C127.881 15.9538 127.881 15.7188 127.881 15.7188C127.881 15.7188 128.134 15.7188 128.642 15.7188C129.149 15.7188 129.402 15.7188 129.402 15.7188C129.402 15.7188 129.402 15.9538 129.402 16.4238C129.402 16.8939 129.402 17.2588 129.402 17.5186C129.402 17.7783 129.402 18.5885 129.402 19.9492C129.402 21.3965 129.402 22.2314 129.402 22.4541C129.402 22.6644 129.402 23.0046 129.402 23.4746C129.402 23.9447 129.402 24.1797 129.402 24.1797C129.402 24.1797 129.149 24.1797 128.642 24.1797ZM112.388 17.2031C111.955 17.4134 111.738 17.5186 111.738 17.5186C111.738 17.5186 111.639 17.3083 111.441 16.8877C111.243 16.4795 111.145 16.2754 111.145 16.2754C111.145 16.2754 111.367 16.1702 111.812 15.96C112.245 15.762 112.462 15.6631 112.462 15.6631C112.462 15.6631 112.561 15.8672 112.759 16.2754C112.944 16.696 113.037 16.9062 113.037 16.9062C113.037 16.9062 112.821 17.0052 112.388 17.2031ZM111.812 15.96C111.367 16.1702 111.145 16.2754 111.145 16.2754C111.145 16.2754 111.052 16.0651 110.866 15.6445C110.668 15.2363 110.569 15.0322 110.569 15.0322C110.569 15.0322 110.792 14.9271 111.237 14.7168C111.67 14.5189 111.887 14.4199 111.887 14.4199C111.887 14.4199 111.979 14.624 112.165 15.0322C112.363 15.4528 112.462 15.6631 112.462 15.6631C112.462 15.6631 112.245 15.762 111.812 15.96ZM113.705 16.5908C113.26 16.8011 113.037 16.9062 113.037 16.9062C113.037 16.9062 112.944 16.696 112.759 16.2754C112.561 15.8672 112.462 15.6631 112.462 15.6631C112.462 15.6631 112.678 15.5579 113.111 15.3477C113.557 15.1497 113.779 15.0508 113.779 15.0508C113.779 15.0508 113.872 15.2549 114.058 15.6631C114.256 16.0837 114.354 16.2939 114.354 16.2939C114.354 16.2939 114.138 16.3929 113.705 16.5908ZM113.111 15.3477C112.678 15.5579 112.462 15.6631 112.462 15.6631C112.462 15.6631 112.363 15.4528 112.165 15.0322C111.979 14.624 111.887 14.4199 111.887 14.4199C111.887 14.4199 112.103 14.3148 112.536 14.1045C112.981 13.9066 113.204 13.8076 113.204 13.8076C113.204 13.8076 113.297 14.0117 113.482 14.4199C113.68 14.8405 113.779 15.0508 113.779 15.0508C113.779 15.0508 113.557 15.1497 113.111 15.3477ZM120.719 16.6279C120.298 16.4424 120.088 16.3496 120.088 16.3496C120.088 16.3496 120.187 16.1393 120.385 15.7188C120.583 15.2982 120.682 15.0879 120.682 15.0879C120.682 15.0879 120.886 15.1868 121.294 15.3848C121.715 15.5827 121.925 15.6816 121.925 15.6816C121.925 15.6816 121.826 15.8857 121.628 16.2939C121.43 16.7145 121.331 16.9248 121.331 16.9248C121.331 16.9248 121.127 16.8258 120.719 16.6279ZM121.294 15.3848C120.886 15.1868 120.682 15.0879 120.682 15.0879C120.682 15.0879 120.774 14.8838 120.96 14.4756C121.158 14.055 121.257 13.8447 121.257 13.8447C121.257 13.8447 121.461 13.9437 121.869 14.1416C122.29 14.3395 122.5 14.4385 122.5 14.4385C122.5 14.4385 122.401 14.6426 122.203 15.0508C122.018 15.4714 121.925 15.6816 121.925 15.6816C121.925 15.6816 121.715 15.5827 121.294 15.3848ZM121.962 17.2031C121.541 17.0176 121.331 16.9248 121.331 16.9248C121.331 16.9248 121.43 16.7145 121.628 16.2939C121.826 15.8857 121.925 15.6816 121.925 15.6816C121.925 15.6816 122.129 15.7744 122.537 15.96C122.958 16.1579 123.168 16.2568 123.168 16.2568C123.168 16.2568 123.069 16.4671 122.871 16.8877C122.673 17.2959 122.574 17.5 122.574 17.5C122.574 17.5 122.37 17.401 121.962 17.2031ZM122.537 15.96C122.129 15.7744 121.925 15.6816 121.925 15.6816C121.925 15.6816 122.018 15.4714 122.203 15.0508C122.401 14.6426 122.5 14.4385 122.5 14.4385C122.5 14.4385 122.704 14.5312 123.112 14.7168C123.533 14.9147 123.743 15.0137 123.743 15.0137C123.743 15.0137 123.644 15.2178 123.446 15.626C123.261 16.0465 123.168 16.2568 123.168 16.2568C123.168 16.2568 122.958 16.1579 122.537 15.96Z" fill="white"/>
</g>
<defs>
<filter id="filter0_i" x="0.521484" y="0.949219" width="128.881" height="30.5889" filterUnits="userSpaceOnUse" color-interpolation-filters="sRGB">
<feFlood flood-opacity="0" result="BackgroundImageFix"/>
<feBlend mode="normal" in="SourceGraphic" in2="BackgroundImageFix" result="shape"/>
<feColorMatrix in="SourceAlpha" type="matrix" values="0 0 0 0 0 0 0 0 0 0 0 0 0 0 0 0 0 0 127 0" result="hardAlpha"/>
<feOffset dy="4"/>
<feGaussianBlur stdDeviation="2"/>
<feComposite in2="hardAlpha" operator="arithmetic" k2="-1" k3="1"/>
<feColorMatrix type="matrix" values="0 0 0 0 0 0 0 0 0 0 0 0 0 0 0 0 0 0 0.25 0"/>
<feBlend mode="normal" in2="shape" result="effect1_innerShadow"/>
</filter>
</defs>
</svg>
