<svg width="138" height="36" viewBox="0 0 138 36" fill="none" xmlns="http://www.w3.org/2000/svg">
<g filter="url(#filter0_d)">
<path d="M5.33789 15.7188C4.83073 15.7188 4.57715 15.7188 4.57715 15.7188C4.57715 15.7188 4.56478 15.4837 4.54004 15.0137C4.52767 14.5436 4.52148 14.3086 4.52148 14.3086C4.52148 14.3086 4.78125 14.3086 5.30078 14.3086C5.79557 14.3086 6.04297 14.3086 6.04297 14.3086C6.04297 14.3086 6.04297 14.5436 6.04297 15.0137C6.06771 15.4837 6.08008 15.7188 6.08008 15.7188C6.08008 15.7188 5.83268 15.7188 5.33789 15.7188ZM5.30078 14.3086C4.78125 14.3086 4.52148 14.3086 4.52148 14.3086C4.52148 14.3086 4.52767 14.0736 4.54004 13.6035C4.56478 13.1335 4.57715 12.8984 4.57715 12.8984C4.57715 12.8984 4.81836 12.8984 5.30078 12.8984C5.82031 12.8984 6.08008 12.8984 6.08008 12.8984C6.08008 12.8984 6.06771 13.1335 6.04297 13.6035C6.04297 14.0736 6.04297 14.3086 6.04297 14.3086C6.04297 14.3086 5.79557 14.3086 5.30078 14.3086ZM6.91504 15.7188C6.3584 15.7188 6.08008 15.7188 6.08008 15.7188C6.08008 15.7188 6.06771 15.4837 6.04297 15.0137C6.04297 14.5436 6.04297 14.3086 6.04297 14.3086C6.04297 14.3086 6.32129 14.3086 6.87793 14.3086C7.39746 14.3086 7.65723 14.3086 7.65723 14.3086C7.65723 14.3086 7.66341 14.5436 7.67578 15.0137C7.71289 15.4837 7.73145 15.7188 7.73145 15.7188C7.73145 15.7188 7.45931 15.7188 6.91504 15.7188ZM6.87793 14.3086C6.32129 14.3086 6.04297 14.3086 6.04297 14.3086C6.04297 14.3086 6.04297 14.0736 6.04297 13.6035C6.06771 13.1335 6.08008 12.8984 6.08008 12.8984C6.08008 12.8984 6.34603 12.8984 6.87793 12.8984C7.44694 12.8984 7.73145 12.8984 7.73145 12.8984C7.73145 12.8984 7.71289 13.1335 7.67578 13.6035C7.66341 14.0736 7.65723 14.3086 7.65723 14.3086C7.65723 14.3086 7.39746 14.3086 6.87793 14.3086ZM5.33789 12.8984C4.83073 12.8984 4.57715 12.8984 4.57715 12.8984C4.57715 12.8984 4.60189 12.6387 4.65137 12.1191C4.82454 10.8327 5.22038 9.54622 5.83887 8.25977C6.46973 6.96094 7.29232 5.81673 8.30664 4.82715C9.33333 3.8252 10.4652 2.99642 11.7021 2.34082C12.9515 1.67285 14.3493 1.24609 15.8955 1.06055C16.4274 1.02344 16.6934 1.00488 16.6934 1.00488C16.6934 1.00488 16.6934 1.25228 16.6934 1.74707C16.6934 2.21712 16.6934 2.45215 16.6934 2.45215C16.6934 2.45215 16.4336 2.47689 15.9141 2.52637C14.6152 2.68717 13.4215 3.05208 12.333 3.62109C11.2445 4.17773 10.2673 4.88281 9.40137 5.73633C8.53548 6.58984 7.83659 7.58561 7.30469 8.72363C6.77279 9.84928 6.40788 10.9935 6.20996 12.1562C6.14811 12.651 6.11719 12.8984 6.11719 12.8984C6.11719 12.8984 5.85742 12.8984 5.33789 12.8984ZM6.91504 12.8984C6.38314 12.8984 6.11719 12.8984 6.11719 12.8984C6.11719 12.8984 6.14811 12.651 6.20996 12.1562C6.40788 10.9935 6.77279 9.84928 7.30469 8.72363C7.83659 7.58561 8.53548 6.58984 9.40137 5.73633C10.2673 4.88281 11.2445 4.17773 12.333 3.62109C13.4215 3.05208 14.6152 2.68717 15.9141 2.52637C16.4336 2.47689 16.6934 2.45215 16.6934 2.45215C16.6934 2.45215 16.6934 2.68099 16.6934 3.13867C16.6934 3.6582 16.6934 3.91797 16.6934 3.91797C16.6934 3.91797 16.4398 3.94889 15.9326 4.01074C14.8317 4.19629 13.805 4.52409 12.8525 4.99414C11.9001 5.45182 11.0775 6.03939 10.3848 6.75684C9.69206 7.47428 9.13542 8.31543 8.71484 9.28027C8.29427 10.2327 8.00358 11.21 7.84277 12.2119C7.76855 12.6696 7.73145 12.8984 7.73145 12.8984C7.73145 12.8984 7.45931 12.8984 6.91504 12.8984ZM17.4912 3.84375C16.9593 3.89323 16.6934 3.91797 16.6934 3.91797C16.6934 3.91797 16.6934 3.65202 16.6934 3.12012C16.6934 2.6748 16.6934 2.45215 16.6934 2.45215C16.6934 2.45215 16.9531 2.42741 17.4727 2.37793C17.9674 2.36556 18.2148 2.35938 18.2148 2.35938C18.2148 2.35938 18.2148 2.60059 18.2148 3.08301C18.2148 3.5778 18.2148 3.8252 18.2148 3.8252C18.2148 3.8252 17.9736 3.83138 17.4912 3.84375ZM17.4727 2.37793C16.9531 2.42741 16.6934 2.45215 16.6934 2.45215C16.6934 2.45215 16.6934 2.22331 16.6934 1.76562C16.6934 1.25846 16.6934 1.00488 16.6934 1.00488C16.6934 1.00488 16.9469 0.992513 17.4541 0.967773C17.9613 0.955404 18.2148 0.949219 18.2148 0.949219C18.2148 0.949219 18.2148 1.19661 18.2148 1.69141C18.2148 2.13672 18.2148 2.35938 18.2148 2.35938C18.2148 2.35938 17.9674 2.36556 17.4727 2.37793ZM18.9385 3.84375C18.4561 3.83138 18.2148 3.8252 18.2148 3.8252C18.2148 3.8252 18.2148 3.5778 18.2148 3.08301C18.2148 2.60059 18.2148 2.35938 18.2148 2.35938C18.2148 2.35938 18.4622 2.36556 18.957 2.37793C19.4766 2.41504 19.7363 2.43359 19.7363 2.43359C19.7363 2.43359 19.7363 2.66862 19.7363 3.13867C19.7363 3.6582 19.7363 3.91797 19.7363 3.91797C19.7363 3.91797 19.4704 3.89323 18.9385 3.84375ZM18.957 2.37793C18.4622 2.36556 18.2148 2.35938 18.2148 2.35938C18.2148 2.35938 18.2148 2.13672 18.2148 1.69141C18.2148 1.19661 18.2148 0.949219 18.2148 0.949219C18.2148 0.949219 18.4684 0.955404 18.9756 0.967773C19.4827 1.00488 19.7363 1.02344 19.7363 1.02344C19.7363 1.02344 19.7363 1.26465 19.7363 1.74707C19.7363 2.20475 19.7363 2.43359 19.7363 2.43359C19.7363 2.43359 19.4766 2.41504 18.957 2.37793ZM31.0918 12.8984C30.5475 12.8984 30.2754 12.8984 30.2754 12.8984C30.2754 12.8984 30.2445 12.6572 30.1826 12.1748C29.9476 10.8512 29.5023 9.62044 28.8467 8.48242C28.1911 7.3444 27.3685 6.33008 26.3789 5.43945C25.612 4.73438 24.7832 4.13444 23.8926 3.63965C23.002 3.14486 21.9072 2.77995 20.6084 2.54492C20.027 2.4707 19.7363 2.43359 19.7363 2.43359C19.7363 2.43359 19.7363 2.24186 19.7363 1.8584C19.7363 1.30176 19.7363 1.02344 19.7363 1.02344C19.7363 1.02344 20.0332 1.05436 20.627 1.11621C21.8763 1.28939 23.0638 1.64193 24.1895 2.17383C25.3151 2.69336 26.3789 3.39225 27.3809 4.27051C28.5312 5.26009 29.4961 6.42904 30.2754 7.77734C31.0671 9.11328 31.568 10.5544 31.7783 12.1006C31.8278 12.6325 31.8525 12.8984 31.8525 12.8984C31.8525 12.8984 31.599 12.8984 31.0918 12.8984ZM29.5146 12.8984C28.9704 12.8984 28.6982 12.8984 28.6982 12.8984C28.6982 12.8984 28.6611 12.6758 28.5869 12.2305C28.4014 11.1543 28.0365 10.1338 27.4922 9.16895C26.9603 8.19173 26.2861 7.31966 25.4697 6.55273C24.6657 5.79818 23.8926 5.23535 23.1504 4.86426C22.4206 4.48079 21.5361 4.19629 20.4971 4.01074C19.9899 3.94889 19.7363 3.91797 19.7363 3.91797C19.7363 3.91797 19.7363 3.67057 19.7363 3.17578C19.7363 2.68099 19.7363 2.43359 19.7363 2.43359C19.7363 2.43359 20.027 2.4707 20.6084 2.54492C21.9072 2.77995 23.002 3.14486 23.8926 3.63965C24.7832 4.13444 25.612 4.73438 26.3789 5.43945C27.3685 6.33008 28.1911 7.3444 28.8467 8.48242C29.5023 9.62044 29.9476 10.8512 30.1826 12.1748C30.2445 12.6572 30.2754 12.8984 30.2754 12.8984C30.2754 12.8984 30.0218 12.8984 29.5146 12.8984ZM29.5146 15.7188C28.9704 15.7188 28.6982 15.7188 28.6982 15.7188C28.6982 15.7188 28.7168 15.4837 28.7539 15.0137C28.7663 14.5436 28.7725 14.3086 28.7725 14.3086C28.7725 14.3086 29.0322 14.3086 29.5518 14.3086C30.0837 14.3086 30.3496 14.3086 30.3496 14.3086C30.3496 14.3086 30.3496 14.5436 30.3496 15.0137C30.3249 15.4837 30.3125 15.7188 30.3125 15.7188C30.3125 15.7188 30.0465 15.7188 29.5146 15.7188ZM29.5518 14.3086C29.0322 14.3086 28.7725 14.3086 28.7725 14.3086C28.7725 14.3086 28.7663 14.0736 28.7539 13.6035C28.7168 13.1335 28.6982 12.8984 28.6982 12.8984C28.6982 12.8984 28.9827 12.8984 29.5518 12.8984C30.0713 12.8984 30.3311 12.8984 30.3311 12.8984C30.3311 12.8984 30.3372 13.1335 30.3496 13.6035C30.3496 14.0736 30.3496 14.3086 30.3496 14.3086C30.3496 14.3086 30.0837 14.3086 29.5518 14.3086ZM31.0918 15.7188C30.5723 15.7188 30.3125 15.7188 30.3125 15.7188C30.3125 15.7188 30.3249 15.4837 30.3496 15.0137C30.3496 14.5436 30.3496 14.3086 30.3496 14.3086C30.3496 14.3086 30.6094 14.3086 31.1289 14.3086C31.6484 14.3086 31.9082 14.3086 31.9082 14.3086C31.9082 14.3086 31.902 14.5436 31.8896 15.0137C31.8649 15.4837 31.8525 15.7188 31.8525 15.7188C31.8525 15.7188 31.599 15.7188 31.0918 15.7188ZM31.1289 14.3086C30.6094 14.3086 30.3496 14.3086 30.3496 14.3086C30.3496 14.3086 30.3496 14.0736 30.3496 13.6035C30.3372 13.1335 30.3311 12.8984 30.3311 12.8984C30.3311 12.8984 30.597 12.8984 31.1289 12.8984C31.6113 12.8984 31.8525 12.8984 31.8525 12.8984C31.8525 12.8984 31.8649 13.1335 31.8896 13.6035C31.902 14.0736 31.9082 14.3086 31.9082 14.3086C31.9082 14.3086 31.6484 14.3086 31.1289 14.3086ZM20.6826 27.3896C20.0518 27.4391 19.7363 27.4639 19.7363 27.4639C19.7363 27.4639 19.7363 27.2412 19.7363 26.7959C19.7363 26.3382 19.7363 26.1094 19.7363 26.1094C19.7363 26.1094 20.0332 26.0723 20.627 25.998C21.7155 25.8125 22.8164 25.4352 23.9297 24.8662C25.0553 24.2972 26.0511 23.5921 26.917 22.751C27.7829 21.9098 28.5003 20.945 29.0693 19.8564C29.6383 18.7555 30.0218 17.6175 30.2197 16.4424C30.2816 15.96 30.3125 15.7188 30.3125 15.7188C30.3125 15.7188 30.5723 15.7188 31.0918 15.7188C31.599 15.7188 31.8525 15.7188 31.8525 15.7188C31.8525 15.7188 31.8278 15.9785 31.7783 16.498C31.6051 17.7845 31.1846 19.0586 30.5166 20.3203C29.861 21.5697 29.026 22.6891 28.0117 23.6787C26.985 24.6807 25.8099 25.5156 24.4863 26.1836C23.1628 26.8392 21.8949 27.2412 20.6826 27.3896ZM20.627 25.998C20.0332 26.0723 19.7363 26.1094 19.7363 26.1094C19.7363 26.1094 19.7363 25.8805 19.7363 25.4229C19.7363 24.9404 19.7363 24.6992 19.7363 24.6992C19.7363 24.6992 19.9899 24.6745 20.4971 24.625C21.598 24.4271 22.6061 24.0807 23.5215 23.5859C24.4368 23.0788 25.2409 22.4665 25.9336 21.749C26.6263 21.0316 27.2015 20.2152 27.6592 19.2998C28.1169 18.3721 28.4261 17.4072 28.5869 16.4053C28.6611 15.9476 28.6982 15.7188 28.6982 15.7188C28.6982 15.7188 28.9704 15.7188 29.5146 15.7188C30.0465 15.7188 30.3125 15.7188 30.3125 15.7188C30.3125 15.7188 30.2816 15.96 30.2197 16.4424C30.0218 17.6175 29.6383 18.7555 29.0693 19.8564C28.5003 20.945 27.7829 21.9098 26.917 22.751C26.0511 23.5921 25.0553 24.2972 23.9297 24.8662C22.8164 25.4352 21.7155 25.8125 20.627 25.998ZM17.4541 27.5195C16.9469 27.4824 16.6934 27.4639 16.6934 27.4639C16.6934 27.4639 16.6934 27.2288 16.6934 26.7588C16.6934 26.3011 16.6934 26.0723 16.6934 26.0723C16.6934 26.0723 16.9531 26.1032 17.4727 26.165C17.9674 26.1774 18.2148 26.1836 18.2148 26.1836C18.2148 26.1836 18.2148 26.4001 18.2148 26.833C18.2148 27.3031 18.2148 27.5381 18.2148 27.5381C18.2148 27.5381 17.9613 27.5319 17.4541 27.5195ZM17.4727 26.165C16.9531 26.1032 16.6934 26.0723 16.6934 26.0723C16.6934 26.0723 16.6934 25.8682 16.6934 25.46C16.6934 24.9528 16.6934 24.6992 16.6934 24.6992C16.6934 24.6992 16.9593 24.724 17.4912 24.7734C17.9736 24.7858 18.2148 24.792 18.2148 24.792C18.2148 24.792 18.2148 25.027 18.2148 25.4971C18.2148 25.9548 18.2148 26.1836 18.2148 26.1836C18.2148 26.1836 17.9674 26.1774 17.4727 26.165ZM18.9756 27.5195C18.4684 27.5319 18.2148 27.5381 18.2148 27.5381C18.2148 27.5381 18.2148 27.3031 18.2148 26.833C18.2148 26.4001 18.2148 26.1836 18.2148 26.1836C18.2148 26.1836 18.4622 26.1774 18.957 26.165C19.4766 26.1156 19.7363 26.0908 19.7363 26.0908C19.7363 26.0908 19.7363 26.3135 19.7363 26.7588C19.7363 27.2288 19.7363 27.4639 19.7363 27.4639C19.7363 27.4639 19.4827 27.4824 18.9756 27.5195ZM18.957 26.165C18.4622 26.1774 18.2148 26.1836 18.2148 26.1836C18.2148 26.1836 18.2148 25.9548 18.2148 25.4971C18.2148 25.027 18.2148 24.792 18.2148 24.792C18.2148 24.792 18.4561 24.7858 18.9385 24.7734C19.4704 24.724 19.7363 24.6992 19.7363 24.6992C19.7363 24.6992 19.7363 24.9466 19.7363 25.4414C19.7363 25.8743 19.7363 26.0908 19.7363 26.0908C19.7363 26.0908 19.4766 26.1156 18.957 26.165ZM15.8955 27.3711C14.609 27.1608 13.3844 26.8145 12.2217 26.332C11.0589 25.8496 9.97656 25.1755 8.97461 24.3096C7.82422 23.3324 6.86556 22.1696 6.09863 20.8213C5.34408 19.473 4.86165 18.0319 4.65137 16.498C4.60189 15.9785 4.57715 15.7188 4.57715 15.7188C4.57715 15.7188 4.83073 15.7188 5.33789 15.7188C5.88216 15.7188 6.1543 15.7188 6.1543 15.7188C6.1543 15.7188 6.18522 15.96 6.24707 16.4424C6.4821 17.766 6.91504 19.0091 7.5459 20.1719C8.17676 21.3346 8.98698 22.3613 9.97656 23.252C10.7435 23.957 11.6094 24.526 12.5742 24.959C13.5391 25.3919 14.6214 25.7259 15.8213 25.9609C16.4027 26.0475 16.6934 26.0908 16.6934 26.0908C16.6934 26.0908 16.6934 26.3135 16.6934 26.7588C16.6934 27.2288 16.6934 27.4639 16.6934 27.4639C16.6934 27.4639 16.4274 27.4329 15.8955 27.3711ZM15.8213 25.9609C14.6214 25.7259 13.5391 25.3919 12.5742 24.959C11.6094 24.526 10.7435 23.957 9.97656 23.252C8.98698 22.3613 8.17676 21.3346 7.5459 20.1719C6.91504 19.0091 6.4821 17.766 6.24707 16.4424C6.18522 15.96 6.1543 15.7188 6.1543 15.7188C6.1543 15.7188 6.40788 15.7188 6.91504 15.7188C7.45931 15.7188 7.73145 15.7188 7.73145 15.7188C7.73145 15.7188 7.76855 15.9414 7.84277 16.3867C8.02832 17.4629 8.37467 18.502 8.88184 19.5039C9.40137 20.4935 10.0693 21.3717 10.8857 22.1387C11.6898 22.8932 12.4691 23.4561 13.2236 23.8271C13.9782 24.1859 14.8874 24.4518 15.9512 24.625C16.446 24.6745 16.6934 24.6992 16.6934 24.6992C16.6934 24.6992 16.6934 24.9466 16.6934 25.4414C16.6934 25.8743 16.6934 26.0908 16.6934 26.0908C16.6934 26.0908 16.4027 26.0475 15.8213 25.9609ZM37.2334 24.1797C36.7262 24.1797 36.4727 24.1797 36.4727 24.1797C36.4727 24.1797 36.4727 23.9447 36.4727 23.4746C36.4727 23.0046 36.4727 22.7139 36.4727 22.6025C36.4727 22.4788 36.4727 22.0397 36.4727 21.2852C36.4727 20.543 36.4727 20.1162 36.4727 20.0049C36.4727 19.8936 36.4727 19.6029 36.4727 19.1328C36.4727 18.6628 36.4727 18.4277 36.4727 18.4277C36.4727 18.4277 36.7262 18.4277 37.2334 18.4277C37.7406 18.4277 37.9941 18.4277 37.9941 18.4277C37.9941 18.4277 37.9941 18.6628 37.9941 19.1328C37.9941 19.6029 37.9941 19.8936 37.9941 20.0049C37.9941 20.1162 37.9941 20.543 37.9941 21.2852C37.9941 22.0397 37.9941 22.4788 37.9941 22.6025C37.9941 22.7139 37.9941 23.0046 37.9941 23.4746C37.9941 23.9447 37.9941 24.1797 37.9941 24.1797C37.9941 24.1797 37.7406 24.1797 37.2334 24.1797ZM37.2334 15.6074C36.7262 15.6074 36.4727 15.6074 36.4727 15.6074C36.4727 15.6074 36.4727 15.3724 36.4727 14.9023C36.4727 14.4323 36.4727 13.8571 36.4727 13.1768C36.4727 12.484 36.4727 11.4264 36.4727 10.0039C36.4727 8.64323 36.4727 7.61035 36.4727 6.90527C36.4727 6.2002 36.4727 5.61263 36.4727 5.14258C36.4727 4.67253 36.4727 4.4375 36.4727 4.4375C36.4727 4.4375 36.7262 4.4375 37.2334 4.4375C37.7406 4.4375 37.9941 4.4375 37.9941 4.4375C37.9941 4.4375 37.9941 4.67253 37.9941 5.14258C37.9941 5.61263 37.9941 6.2002 37.9941 6.90527C37.9941 7.61035 37.9941 8.64323 37.9941 10.0039C37.9941 11.4264 37.9941 12.484 37.9941 13.1768C37.9941 13.8571 37.9941 14.4323 37.9941 14.9023C37.9941 15.3724 37.9941 15.6074 37.9941 15.6074C37.9941 15.6074 37.7406 15.6074 37.2334 15.6074ZM38.7549 24.1797C38.2477 24.1797 37.9941 24.1797 37.9941 24.1797C37.9941 24.1797 37.9941 23.9447 37.9941 23.4746C37.9941 23.0046 37.9941 22.7139 37.9941 22.6025C37.9941 22.4788 37.9941 22.0397 37.9941 21.2852C37.9941 20.543 37.9941 20.1162 37.9941 20.0049C37.9941 19.8936 37.9941 19.6029 37.9941 19.1328C37.9941 18.6628 37.9941 18.4277 37.9941 18.4277C37.9941 18.4277 38.2477 18.4277 38.7549 18.4277C39.262 18.4277 39.5156 18.4277 39.5156 18.4277C39.5156 18.4277 39.5156 18.6628 39.5156 19.1328C39.5156 19.6029 39.5156 19.8936 39.5156 20.0049C39.5156 20.1162 39.5156 20.543 39.5156 21.2852C39.5156 22.0397 39.5156 22.4788 39.5156 22.6025C39.5156 22.7139 39.5156 23.0046 39.5156 23.4746C39.5156 23.9447 39.5156 24.1797 39.5156 24.1797C39.5156 24.1797 39.262 24.1797 38.7549 24.1797ZM38.7549 15.6074C38.2477 15.6074 37.9941 15.6074 37.9941 15.6074C37.9941 15.6074 37.9941 15.3724 37.9941 14.9023C37.9941 14.4323 37.9941 13.8571 37.9941 13.1768C37.9941 12.484 37.9941 11.4264 37.9941 10.0039C37.9941 8.64323 37.9941 7.61035 37.9941 6.90527C37.9941 6.2002 37.9941 5.61263 37.9941 5.14258C37.9941 4.67253 37.9941 4.4375 37.9941 4.4375C37.9941 4.4375 38.2477 4.4375 38.7549 4.4375C39.262 4.4375 39.5156 4.4375 39.5156 4.4375C39.5156 4.4375 39.5156 4.67253 39.5156 5.14258C39.5156 5.61263 39.5156 6.2002 39.5156 6.90527C39.5156 7.61035 39.5156 8.64323 39.5156 10.0039C39.5156 11.4264 39.5156 12.484 39.5156 13.1768C39.5156 13.8571 39.5156 14.4323 39.5156 14.9023C39.5156 15.3724 39.5156 15.6074 39.5156 15.6074C39.5156 15.6074 39.262 15.6074 38.7549 15.6074ZM39.6455 18.4277C39.5589 18.4277 39.5156 18.4277 39.5156 18.4277C39.5156 18.4277 39.5156 18.1927 39.5156 17.7227C39.5156 17.2526 39.5156 17.0176 39.5156 17.0176C39.5156 17.0176 39.5589 17.0176 39.6455 17.0176C39.6826 17.0176 39.7507 17.0176 39.8496 17.0176C39.9486 17.0176 40.0352 17.0176 40.1094 17.0176C40.1836 17.0176 40.3506 17.0114 40.6104 16.999C40.8701 16.9867 41.1051 16.9681 41.3154 16.9434C41.5257 16.9186 41.6309 16.9062 41.6309 16.9062C41.6309 16.9062 41.7669 17.1165 42.0391 17.5371C42.3112 17.9577 42.4473 18.168 42.4473 18.168C42.4473 18.168 42.3669 18.1803 42.2061 18.2051C41.8473 18.2793 41.4762 18.335 41.0928 18.3721C40.7217 18.4092 40.3444 18.4277 39.9609 18.4277C39.9362 18.4277 39.8805 18.4277 39.7939 18.4277C39.7197 18.4277 39.6702 18.4277 39.6455 18.4277ZM39.6455 17.0176C39.5589 17.0176 39.5156 17.0176 39.5156 17.0176C39.5156 17.0176 39.5156 16.7702 39.5156 16.2754C39.5156 15.8301 39.5156 15.6074 39.5156 15.6074C39.5156 15.6074 39.5589 15.6074 39.6455 15.6074C39.6702 15.6074 39.7197 15.6074 39.7939 15.6074C39.8682 15.6074 39.9424 15.6074 40.0166 15.6074C40.1156 15.6074 40.1898 15.6074 40.2393 15.6074C40.2887 15.6074 40.3877 15.6012 40.5361 15.5889C40.6846 15.5765 40.7588 15.5703 40.7588 15.5703C40.7588 15.5703 40.9072 15.7992 41.2041 16.2568C41.4886 16.6898 41.6309 16.9062 41.6309 16.9062C41.6309 16.9062 41.5257 16.9186 41.3154 16.9434C41.1051 16.9681 40.8701 16.9867 40.6104 16.999C40.3506 17.0114 40.1836 17.0176 40.1094 17.0176C40.0352 17.0176 39.9548 17.0176 39.8682 17.0176C39.7816 17.0176 39.7074 17.0176 39.6455 17.0176ZM47.0117 9.78125C46.4922 9.78125 46.2324 9.78125 46.2324 9.78125C46.2324 9.78125 46.2324 9.73796 46.2324 9.65137C46.2324 8.27832 45.6263 7.06608 44.4141 6.01465C43.2142 4.96322 41.7174 4.4375 39.9238 4.4375C39.8991 4.4375 39.8496 4.4375 39.7754 4.4375C39.7135 4.4375 39.6702 4.4375 39.6455 4.4375C39.5589 4.4375 39.5156 4.4375 39.5156 4.4375C39.5156 4.4375 39.5156 4.21484 39.5156 3.76953C39.5156 3.27474 39.5156 3.02734 39.5156 3.02734C39.5156 3.02734 39.5589 3.02734 39.6455 3.02734C39.6702 3.02734 39.7135 3.02734 39.7754 3.02734C39.8496 3.02734 39.8991 3.02734 39.9238 3.02734C42.1133 3.02734 43.9688 3.68294 45.4902 4.99414C47.0117 6.30534 47.7725 7.85156 47.7725 9.63281C47.7725 9.73177 47.7725 9.78125 47.7725 9.78125C47.7725 9.78125 47.5189 9.78125 47.0117 9.78125ZM48.5518 9.78125C48.0322 9.78125 47.7725 9.78125 47.7725 9.78125C47.7725 9.78125 47.7725 9.73177 47.7725 9.63281C47.7725 7.85156 47.0117 6.30534 45.4902 4.99414C43.9688 3.68294 42.1133 3.02734 39.9238 3.02734C39.8991 3.02734 39.8496 3.02734 39.7754 3.02734C39.7135 3.02734 39.6702 3.02734 39.6455 3.02734C39.5589 3.02734 39.5156 3.02734 39.5156 3.02734C39.5156 3.02734 39.5156 2.79232 39.5156 2.32227C39.5156 1.85221 39.5156 1.61719 39.5156 1.61719C39.5156 1.61719 39.5589 1.61719 39.6455 1.61719C39.6702 1.61719 39.7197 1.61719 39.7939 1.61719C39.8805 1.61719 39.9362 1.61719 39.9609 1.61719C42.6823 1.61719 44.9212 2.40267 46.6777 3.97363C48.4466 5.53223 49.3311 7.37533 49.3311 9.50293C49.3311 9.68848 49.3311 9.78125 49.3311 9.78125C49.3311 9.78125 49.0713 9.78125 48.5518 9.78125ZM47.9023 24.6807C47.4941 24.9652 47.29 25.1074 47.29 25.1074C47.29 25.1074 47.123 24.8786 46.7891 24.4209C46.4798 24.0127 46.0345 23.3695 45.4531 22.4912C44.8717 21.613 44.043 20.4131 42.9668 18.8916C42.6204 18.4092 42.4473 18.168 42.4473 18.168C42.4473 18.168 42.6885 18.1061 43.1709 17.9824C43.641 17.8216 43.876 17.7412 43.876 17.7412C43.876 17.7412 44.043 17.9762 44.377 18.4463C45.3171 19.7699 46.0654 20.8275 46.6221 21.6191C47.1911 22.3984 47.6611 23.0602 48.0322 23.6045C48.3291 24.0498 48.4775 24.2725 48.4775 24.2725C48.4775 24.2725 48.2858 24.4085 47.9023 24.6807ZM44.5996 15.7002C44.377 15.8239 44.2656 15.8857 44.2656 15.8857C44.2656 15.8857 44.1296 15.694 43.8574 15.3105C43.5729 14.9023 43.4307 14.6982 43.4307 14.6982C43.4307 14.6982 43.5358 14.6364 43.7461 14.5127C44.4017 14.1416 44.9769 13.554 45.4717 12.75C45.9788 11.9336 46.2324 11.111 46.2324 10.2822C46.2324 10.1956 46.2324 10.1523 46.2324 10.1523C46.2324 10.1523 46.4922 10.1523 47.0117 10.1523C47.5189 10.1523 47.7725 10.1523 47.7725 10.1523C47.7725 10.1523 47.7725 10.2018 47.7725 10.3008C47.7725 11.377 47.4756 12.3975 46.8818 13.3623C46.3005 14.3148 45.5397 15.0941 44.5996 15.7002ZM49.0898 23.8457C48.6816 24.1302 48.4775 24.2725 48.4775 24.2725C48.4775 24.2725 48.3291 24.0498 48.0322 23.6045C47.6611 23.0602 47.1911 22.3984 46.6221 21.6191C46.0654 20.8275 45.3171 19.7699 44.377 18.4463C44.043 17.9762 43.876 17.7412 43.876 17.7412C43.876 17.7412 44.0986 17.6484 44.5439 17.4629C44.9521 17.2526 45.1562 17.1475 45.1562 17.1475C45.1562 17.1475 45.3418 17.4072 45.7129 17.9268C46.6159 19.1885 47.3333 20.2028 47.8652 20.9697C48.3971 21.7243 48.8053 22.2871 49.0898 22.6582C49.4733 23.1901 49.665 23.4561 49.665 23.4561C49.665 23.4561 49.4733 23.5859 49.0898 23.8457ZM45.4346 16.9619C45.249 17.0856 45.1562 17.1475 45.1562 17.1475C45.1562 17.1475 45.0016 16.9372 44.6924 16.5166C44.4079 16.096 44.2656 15.8857 44.2656 15.8857C44.2656 15.8857 44.377 15.8239 44.5996 15.7002C45.5397 15.0941 46.3005 14.3148 46.8818 13.3623C47.4756 12.3975 47.7725 11.377 47.7725 10.3008C47.7725 10.2018 47.7725 10.1523 47.7725 10.1523C47.7725 10.1523 48.0322 10.1523 48.5518 10.1523C49.0713 10.1523 49.3311 10.1523 49.3311 10.1523C49.3311 10.1523 49.3311 10.2451 49.3311 10.4307C49.3311 11.7542 48.9785 12.9974 48.2734 14.1602C47.5684 15.3229 46.6221 16.2568 45.4346 16.9619ZM42.3545 16.7207C41.8721 16.8444 41.6309 16.9062 41.6309 16.9062C41.6309 16.9062 41.4886 16.6898 41.2041 16.2568C40.9072 15.7992 40.7588 15.5703 40.7588 15.5703C40.7588 15.5703 41.0062 15.527 41.501 15.4404C41.9587 15.3044 42.1813 15.2363 42.1689 15.2363C42.1689 15.2363 42.2865 15.4095 42.5215 15.7559C42.8555 16.2383 43.0225 16.4795 43.0225 16.4795C43.0225 16.4795 42.7998 16.5599 42.3545 16.7207ZM43.1709 17.9824C42.6885 18.1061 42.4473 18.168 42.4473 18.168C42.4473 18.168 42.3112 17.9577 42.0391 17.5371C41.7669 17.1165 41.6309 16.9062 41.6309 16.9062C41.6309 16.9062 41.8721 16.8444 42.3545 16.7207C42.7998 16.5599 43.0225 16.4795 43.0225 16.4795C43.0225 16.4795 43.1523 16.6836 43.4121 17.0918C43.7214 17.5247 43.876 17.7412 43.876 17.7412C43.876 17.7412 43.641 17.8216 43.1709 17.9824ZM43.6533 16.2197C43.2327 16.3929 43.0225 16.4795 43.0225 16.4795C43.0225 16.4795 42.8555 16.2383 42.5215 15.7559C42.2865 15.4095 42.1689 15.2363 42.1689 15.2363C42.1813 15.2363 42.404 15.1621 42.8369 15.0137C43.2327 14.8034 43.4307 14.6982 43.4307 14.6982C43.4307 14.6982 43.5729 14.9023 43.8574 15.3105C44.1296 15.694 44.2656 15.8857 44.2656 15.8857C44.2656 15.8857 44.0615 15.9971 43.6533 16.2197ZM44.5439 17.4629C44.0986 17.6484 43.876 17.7412 43.876 17.7412C43.876 17.7412 43.7214 17.5247 43.4121 17.0918C43.1523 16.6836 43.0225 16.4795 43.0225 16.4795C43.0225 16.4795 43.2327 16.3929 43.6533 16.2197C44.0615 15.9971 44.2656 15.8857 44.2656 15.8857C44.2656 15.8857 44.4079 16.096 44.6924 16.5166C45.0016 16.9372 45.1562 17.1475 45.1562 17.1475C45.1562 17.1475 44.9521 17.2526 44.5439 17.4629ZM47.0117 10.1523C46.4922 10.1523 46.2324 10.1523 46.2324 10.1523C46.2324 10.1523 46.2324 10.1214 46.2324 10.0596C46.2324 9.99772 46.2324 9.9668 46.2324 9.9668C46.2324 9.9668 46.4922 9.9668 47.0117 9.9668C47.5189 9.9668 47.7725 9.9668 47.7725 9.9668C47.7725 9.9668 47.7725 9.99772 47.7725 10.0596C47.7725 10.1214 47.7725 10.1523 47.7725 10.1523C47.7725 10.1523 47.5189 10.1523 47.0117 10.1523ZM47.0117 9.9668C46.4922 9.9668 46.2324 9.9668 46.2324 9.9668C46.2324 9.9668 46.2324 9.93587 46.2324 9.87402C46.2324 9.81217 46.2324 9.78125 46.2324 9.78125C46.2324 9.78125 46.4922 9.78125 47.0117 9.78125C47.5189 9.78125 47.7725 9.78125 47.7725 9.78125C47.7725 9.78125 47.7725 9.81217 47.7725 9.87402C47.7725 9.93587 47.7725 9.9668 47.7725 9.9668C47.7725 9.9668 47.5189 9.9668 47.0117 9.9668ZM48.5518 10.1523C48.0322 10.1523 47.7725 10.1523 47.7725 10.1523C47.7725 10.1523 47.7725 10.1214 47.7725 10.0596C47.7725 9.99772 47.7725 9.9668 47.7725 9.9668C47.7725 9.9668 48.0322 9.9668 48.5518 9.9668C49.0713 9.9668 49.3311 9.9668 49.3311 9.9668C49.3311 9.9668 49.3311 9.99772 49.3311 10.0596C49.3311 10.1214 49.3311 10.1523 49.3311 10.1523C49.3311 10.1523 49.0713 10.1523 48.5518 10.1523ZM48.5518 9.9668C48.0322 9.9668 47.7725 9.9668 47.7725 9.9668C47.7725 9.9668 47.7725 9.93587 47.7725 9.87402C47.7725 9.81217 47.7725 9.78125 47.7725 9.78125C47.7725 9.78125 48.0322 9.78125 48.5518 9.78125C49.0713 9.78125 49.3311 9.78125 49.3311 9.78125C49.3311 9.78125 49.3311 9.81217 49.3311 9.87402C49.3311 9.93587 49.3311 9.9668 49.3311 9.9668C49.3311 9.9668 49.0713 9.9668 48.5518 9.9668ZM37.2334 18.4277C36.7262 18.4277 36.4727 18.4277 36.4727 18.4277C36.4727 18.4277 36.4727 18.1927 36.4727 17.7227C36.4727 17.2526 36.4727 17.0176 36.4727 17.0176C36.4727 17.0176 36.7262 17.0176 37.2334 17.0176C37.7406 17.0176 37.9941 17.0176 37.9941 17.0176C37.9941 17.0176 37.9941 17.2526 37.9941 17.7227C37.9941 18.1927 37.9941 18.4277 37.9941 18.4277C37.9941 18.4277 37.7406 18.4277 37.2334 18.4277ZM37.2334 17.0176C36.7262 17.0176 36.4727 17.0176 36.4727 17.0176C36.4727 17.0176 36.4727 16.7826 36.4727 16.3125C36.4727 15.8424 36.4727 15.6074 36.4727 15.6074C36.4727 15.6074 36.7262 15.6074 37.2334 15.6074C37.7406 15.6074 37.9941 15.6074 37.9941 15.6074C37.9941 15.6074 37.9941 15.8424 37.9941 16.3125C37.9941 16.7826 37.9941 17.0176 37.9941 17.0176C37.9941 17.0176 37.7406 17.0176 37.2334 17.0176ZM38.7549 18.4277C38.2477 18.4277 37.9941 18.4277 37.9941 18.4277C37.9941 18.4277 37.9941 18.1927 37.9941 17.7227C37.9941 17.2526 37.9941 17.0176 37.9941 17.0176C37.9941 17.0176 38.2477 17.0176 38.7549 17.0176C39.262 17.0176 39.5156 17.0176 39.5156 17.0176C39.5156 17.0176 39.5156 17.2526 39.5156 17.7227C39.5156 18.1927 39.5156 18.4277 39.5156 18.4277C39.5156 18.4277 39.262 18.4277 38.7549 18.4277ZM38.7549 17.0176C38.2477 17.0176 37.9941 17.0176 37.9941 17.0176C37.9941 17.0176 37.9941 16.7826 37.9941 16.3125C37.9941 15.8424 37.9941 15.6074 37.9941 15.6074C37.9941 15.6074 38.2477 15.6074 38.7549 15.6074C39.262 15.6074 39.5156 15.6074 39.5156 15.6074C39.5156 15.6074 39.5156 15.8424 39.5156 16.3125C39.5156 16.7826 39.5156 17.0176 39.5156 17.0176C39.5156 17.0176 39.262 17.0176 38.7549 17.0176ZM37.2334 27C36.7262 27 36.4727 27 36.4727 27C36.4727 27 36.4727 26.765 36.4727 26.2949C36.4727 25.8249 36.4727 25.5898 36.4727 25.5898C36.4727 25.5898 36.7262 25.5898 37.2334 25.5898C37.7406 25.5898 37.9941 25.5898 37.9941 25.5898C37.9941 25.5898 37.9941 25.8249 37.9941 26.2949C37.9941 26.765 37.9941 27 37.9941 27C37.9941 27 37.7406 27 37.2334 27ZM37.2334 25.5898C36.7262 25.5898 36.4727 25.5898 36.4727 25.5898C36.4727 25.5898 36.4727 25.3548 36.4727 24.8848C36.4727 24.4147 36.4727 24.1797 36.4727 24.1797C36.4727 24.1797 36.7262 24.1797 37.2334 24.1797C37.7406 24.1797 37.9941 24.1797 37.9941 24.1797C37.9941 24.1797 37.9941 24.4147 37.9941 24.8848C37.9941 25.3548 37.9941 25.5898 37.9941 25.5898C37.9941 25.5898 37.7406 25.5898 37.2334 25.5898ZM38.7549 27C38.2477 27 37.9941 27 37.9941 27C37.9941 27 37.9941 26.765 37.9941 26.2949C37.9941 25.8249 37.9941 25.5898 37.9941 25.5898C37.9941 25.5898 38.2477 25.5898 38.7549 25.5898C39.262 25.5898 39.5156 25.5898 39.5156 25.5898C39.5156 25.5898 39.5156 25.8249 39.5156 26.2949C39.5156 26.765 39.5156 27 39.5156 27C39.5156 27 39.262 27 38.7549 27ZM38.7549 25.5898C38.2477 25.5898 37.9941 25.5898 37.9941 25.5898C37.9941 25.5898 37.9941 25.3548 37.9941 24.8848C37.9941 24.4147 37.9941 24.1797 37.9941 24.1797C37.9941 24.1797 38.2477 24.1797 38.7549 24.1797C39.262 24.1797 39.5156 24.1797 39.5156 24.1797C39.5156 24.1797 39.5156 24.4147 39.5156 24.8848C39.5156 25.3548 39.5156 25.5898 39.5156 25.5898C39.5156 25.5898 39.262 25.5898 38.7549 25.5898ZM37.2334 4.4375C36.7262 4.4375 36.4727 4.4375 36.4727 4.4375C36.4727 4.4375 36.4727 4.20247 36.4727 3.73242C36.4727 3.26237 36.4727 3.02734 36.4727 3.02734C36.4727 3.02734 36.7262 3.02734 37.2334 3.02734C37.7406 3.02734 37.9941 3.02734 37.9941 3.02734C37.9941 3.02734 37.9941 3.26237 37.9941 3.73242C37.9941 4.20247 37.9941 4.4375 37.9941 4.4375C37.9941 4.4375 37.7406 4.4375 37.2334 4.4375ZM37.2334 3.02734C36.7262 3.02734 36.4727 3.02734 36.4727 3.02734C36.4727 3.02734 36.4727 2.79232 36.4727 2.32227C36.4727 1.85221 36.4727 1.61719 36.4727 1.61719C36.4727 1.61719 36.7262 1.61719 37.2334 1.61719C37.7406 1.61719 37.9941 1.61719 37.9941 1.61719C37.9941 1.61719 37.9941 1.85221 37.9941 2.32227C37.9941 2.79232 37.9941 3.02734 37.9941 3.02734C37.9941 3.02734 37.7406 3.02734 37.2334 3.02734ZM38.7549 4.4375C38.2477 4.4375 37.9941 4.4375 37.9941 4.4375C37.9941 4.4375 37.9941 4.20247 37.9941 3.73242C37.9941 3.26237 37.9941 3.02734 37.9941 3.02734C37.9941 3.02734 38.2477 3.02734 38.7549 3.02734C39.262 3.02734 39.5156 3.02734 39.5156 3.02734C39.5156 3.02734 39.5156 3.26237 39.5156 3.73242C39.5156 4.20247 39.5156 4.4375 39.5156 4.4375C39.5156 4.4375 39.262 4.4375 38.7549 4.4375ZM38.7549 3.02734C38.2477 3.02734 37.9941 3.02734 37.9941 3.02734C37.9941 3.02734 37.9941 2.79232 37.9941 2.32227C37.9941 1.85221 37.9941 1.61719 37.9941 1.61719C37.9941 1.61719 38.2477 1.61719 38.7549 1.61719C39.262 1.61719 39.5156 1.61719 39.5156 1.61719C39.5156 1.61719 39.5156 1.85221 39.5156 2.32227C39.5156 2.79232 39.5156 3.02734 39.5156 3.02734C39.5156 3.02734 39.262 3.02734 38.7549 3.02734ZM49.0713 23.8643C49.4671 23.5798 49.665 23.4375 49.665 23.4375C49.665 23.4375 49.7949 23.6292 50.0547 24.0127C50.3145 24.3838 50.4443 24.5693 50.4443 24.5693C50.4443 24.5693 50.2464 24.7054 49.8506 24.9775C49.4548 25.262 49.2568 25.4043 49.2568 25.4043C49.2568 25.4043 49.127 25.2126 48.8672 24.8291C48.6074 24.458 48.4775 24.2725 48.4775 24.2725C48.4775 24.2725 48.6755 24.1364 49.0713 23.8643ZM49.8506 24.9775C50.2464 24.7054 50.4443 24.5693 50.4443 24.5693C50.4443 24.5693 50.5742 24.7549 50.834 25.126C51.0938 25.5094 51.2236 25.7012 51.2236 25.7012C51.2236 25.7012 51.0319 25.8372 50.6484 26.1094C50.2526 26.3815 50.0547 26.5176 50.0547 26.5176C50.0547 26.5176 49.9186 26.332 49.6465 25.9609C49.3867 25.5898 49.2568 25.4043 49.2568 25.4043C49.2568 25.4043 49.4548 25.262 49.8506 24.9775ZM47.8838 24.6807C48.2796 24.4085 48.4775 24.2725 48.4775 24.2725C48.4775 24.2725 48.6074 24.458 48.8672 24.8291C49.127 25.2126 49.2568 25.4043 49.2568 25.4043C49.2568 25.4043 49.0589 25.5404 48.6631 25.8125C48.2673 26.0846 48.0693 26.2207 48.0693 26.2207C48.0693 26.2207 47.9395 26.0352 47.6797 25.6641C47.4199 25.293 47.29 25.1074 47.29 25.1074C47.29 25.1074 47.488 24.9652 47.8838 24.6807ZM48.6631 25.8125C49.0589 25.5404 49.2568 25.4043 49.2568 25.4043C49.2568 25.4043 49.3867 25.5898 49.6465 25.9609C49.9186 26.332 50.0547 26.5176 50.0547 26.5176C50.0547 26.5176 49.8568 26.6598 49.4609 26.9443C49.0651 27.2165 48.8672 27.3525 48.8672 27.3525C48.8672 27.3525 48.7311 27.167 48.459 26.7959C48.1992 26.4124 48.0693 26.2207 48.0693 26.2207C48.0693 26.2207 48.2673 26.0846 48.6631 25.8125ZM55.6768 15.7188C55.1696 15.7188 54.916 15.7188 54.916 15.7188C54.916 15.7188 54.916 15.4837 54.916 15.0137C54.916 14.5436 54.916 14.3086 54.916 14.3086C54.916 14.3086 55.1696 14.3086 55.6768 14.3086C56.1839 14.3086 56.4375 14.3086 56.4375 14.3086C56.4375 14.3086 56.4375 14.5436 56.4375 15.0137C56.4375 15.4837 56.4375 15.7188 56.4375 15.7188C56.4375 15.7188 56.1839 15.7188 55.6768 15.7188ZM55.6768 14.3086C55.1696 14.3086 54.916 14.3086 54.916 14.3086C54.916 14.3086 54.916 14.0736 54.916 13.6035C54.916 13.1335 54.916 12.8984 54.916 12.8984C54.916 12.8984 55.1696 12.8984 55.6768 12.8984C56.1839 12.8984 56.4375 12.8984 56.4375 12.8984C56.4375 12.8984 56.4375 13.1335 56.4375 13.6035C56.4375 14.0736 56.4375 14.3086 56.4375 14.3086C56.4375 14.3086 56.1839 14.3086 55.6768 14.3086ZM57.1982 15.7188C56.6911 15.7188 56.4375 15.7188 56.4375 15.7188C56.4375 15.7188 56.4375 15.4837 56.4375 15.0137C56.4375 14.5436 56.4375 14.3086 56.4375 14.3086C56.4375 14.3086 56.6911 14.3086 57.1982 14.3086C57.7054 14.3086 57.959 14.3086 57.959 14.3086C57.959 14.3086 57.959 14.5436 57.959 15.0137C57.959 15.4837 57.959 15.7188 57.959 15.7188C57.959 15.7188 57.7054 15.7188 57.1982 15.7188ZM57.1982 14.3086C56.6911 14.3086 56.4375 14.3086 56.4375 14.3086C56.4375 14.3086 56.4375 14.0736 56.4375 13.6035C56.4375 13.1335 56.4375 12.8984 56.4375 12.8984C56.4375 12.8984 56.6911 12.8984 57.1982 12.8984C57.7054 12.8984 57.959 12.8984 57.959 12.8984C57.959 12.8984 57.959 13.1335 57.959 13.6035C57.959 14.0736 57.959 14.3086 57.959 14.3086C57.959 14.3086 57.7054 14.3086 57.1982 14.3086ZM55.6768 12.8984C55.1696 12.8984 54.916 12.8984 54.916 12.8984C54.916 12.8984 54.916 12.6634 54.916 12.1934C54.916 11.7233 54.916 11.3646 54.916 11.1172C54.916 10.8574 54.916 10.0163 54.916 8.59375C54.916 7.2207 54.916 6.42285 54.916 6.2002C54.916 5.96517 54.916 5.61263 54.916 5.14258C54.916 4.67253 54.916 4.4375 54.916 4.4375C54.916 4.4375 55.1696 4.4375 55.6768 4.4375C56.1839 4.4375 56.4375 4.4375 56.4375 4.4375C56.4375 4.4375 56.4375 4.67253 56.4375 5.14258C56.4375 5.61263 56.4375 5.96517 56.4375 6.2002C56.4375 6.43522 56.4375 7.23307 56.4375 8.59375C56.4375 10.041 56.4375 10.8883 56.4375 11.1357C56.4375 11.3708 56.4375 11.7233 56.4375 12.1934C56.4375 12.6634 56.4375 12.8984 56.4375 12.8984C56.4375 12.8984 56.1839 12.8984 55.6768 12.8984ZM57.1982 12.8984C56.6911 12.8984 56.4375 12.8984 56.4375 12.8984C56.4375 12.8984 56.4375 12.6634 56.4375 12.1934C56.4375 11.7233 56.4375 11.3646 56.4375 11.1172C56.4375 10.8574 56.4375 10.0163 56.4375 8.59375C56.4375 7.2207 56.4375 6.42285 56.4375 6.2002C56.4375 5.96517 56.4375 5.61263 56.4375 5.14258C56.4375 4.67253 56.4375 4.4375 56.4375 4.4375C56.4375 4.4375 56.6911 4.4375 57.1982 4.4375C57.7054 4.4375 57.959 4.4375 57.959 4.4375C57.959 4.4375 57.959 4.67253 57.959 5.14258C57.959 5.61263 57.959 5.96517 57.959 6.2002C57.959 6.43522 57.959 7.23307 57.959 8.59375C57.959 10.041 57.959 10.8883 57.959 11.1357C57.959 11.3708 57.959 11.7233 57.959 12.1934C57.959 12.6634 57.959 12.8984 57.959 12.8984C57.959 12.8984 57.7054 12.8984 57.1982 12.8984ZM55.6768 24.1797C55.1696 24.1797 54.916 24.1797 54.916 24.1797C54.916 24.1797 54.916 23.9447 54.916 23.4746C54.916 23.0046 54.916 22.6582 54.916 22.4355C54.916 22.2005 54.916 21.3717 54.916 19.9492C54.916 18.5762 54.916 17.766 54.916 17.5186C54.916 17.2588 54.916 16.8939 54.916 16.4238C54.916 15.9538 54.916 15.7188 54.916 15.7188C54.916 15.7188 55.1696 15.7188 55.6768 15.7188C56.1839 15.7188 56.4375 15.7188 56.4375 15.7188C56.4375 15.7188 56.4375 15.9538 56.4375 16.4238C56.4375 16.8939 56.4375 17.2588 56.4375 17.5186C56.4375 17.7783 56.4375 18.5885 56.4375 19.9492C56.4375 21.3965 56.4375 22.2314 56.4375 22.4541C56.4375 22.6644 56.4375 23.0046 56.4375 23.4746C56.4375 23.9447 56.4375 24.1797 56.4375 24.1797C56.4375 24.1797 56.1839 24.1797 55.6768 24.1797ZM57.1982 24.1797C56.6911 24.1797 56.4375 24.1797 56.4375 24.1797C56.4375 24.1797 56.4375 23.9447 56.4375 23.4746C56.4375 23.0046 56.4375 22.6582 56.4375 22.4355C56.4375 22.2005 56.4375 21.3717 56.4375 19.9492C56.4375 18.5762 56.4375 17.766 56.4375 17.5186C56.4375 17.2588 56.4375 16.8939 56.4375 16.4238C56.4375 15.9538 56.4375 15.7188 56.4375 15.7188C56.4375 15.7188 56.6911 15.7188 57.1982 15.7188C57.7054 15.7188 57.959 15.7188 57.959 15.7188C57.959 15.7188 57.959 15.9538 57.959 16.4238C57.959 16.8939 57.959 17.2588 57.959 17.5186C57.959 17.7783 57.959 18.5885 57.959 19.9492C57.959 21.3965 57.959 22.2314 57.959 22.4541C57.959 22.6644 57.959 23.0046 57.959 23.4746C57.959 23.9447 57.959 24.1797 57.959 24.1797C57.959 24.1797 57.7054 24.1797 57.1982 24.1797ZM55.6768 27C55.1696 27 54.916 27 54.916 27C54.916 27 54.916 26.765 54.916 26.2949C54.916 25.8249 54.916 25.5898 54.916 25.5898C54.916 25.5898 55.1696 25.5898 55.6768 25.5898C56.1839 25.5898 56.4375 25.5898 56.4375 25.5898C56.4375 25.5898 56.4375 25.8249 56.4375 26.2949C56.4375 26.765 56.4375 27 56.4375 27C56.4375 27 56.1839 27 55.6768 27ZM55.6768 25.5898C55.1696 25.5898 54.916 25.5898 54.916 25.5898C54.916 25.5898 54.916 25.3548 54.916 24.8848C54.916 24.4147 54.916 24.1797 54.916 24.1797C54.916 24.1797 55.1696 24.1797 55.6768 24.1797C56.1839 24.1797 56.4375 24.1797 56.4375 24.1797C56.4375 24.1797 56.4375 24.4147 56.4375 24.8848C56.4375 25.3548 56.4375 25.5898 56.4375 25.5898C56.4375 25.5898 56.1839 25.5898 55.6768 25.5898ZM57.1982 27C56.6911 27 56.4375 27 56.4375 27C56.4375 27 56.4375 26.765 56.4375 26.2949C56.4375 25.8249 56.4375 25.5898 56.4375 25.5898C56.4375 25.5898 56.6911 25.5898 57.1982 25.5898C57.7054 25.5898 57.959 25.5898 57.959 25.5898C57.959 25.5898 57.959 25.8249 57.959 26.2949C57.959 26.765 57.959 27 57.959 27C57.959 27 57.7054 27 57.1982 27ZM57.1982 25.5898C56.6911 25.5898 56.4375 25.5898 56.4375 25.5898C56.4375 25.5898 56.4375 25.3548 56.4375 24.8848C56.4375 24.4147 56.4375 24.1797 56.4375 24.1797C56.4375 24.1797 56.6911 24.1797 57.1982 24.1797C57.7054 24.1797 57.959 24.1797 57.959 24.1797C57.959 24.1797 57.959 24.4147 57.959 24.8848C57.959 25.3548 57.959 25.5898 57.959 25.5898C57.959 25.5898 57.7054 25.5898 57.1982 25.5898ZM55.6768 4.4375C55.1696 4.4375 54.916 4.4375 54.916 4.4375C54.916 4.4375 54.916 4.20247 54.916 3.73242C54.916 3.26237 54.916 3.02734 54.916 3.02734C54.916 3.02734 55.1696 3.02734 55.6768 3.02734C56.1839 3.02734 56.4375 3.02734 56.4375 3.02734C56.4375 3.02734 56.4375 3.26237 56.4375 3.73242C56.4375 4.20247 56.4375 4.4375 56.4375 4.4375C56.4375 4.4375 56.1839 4.4375 55.6768 4.4375ZM55.6768 3.02734C55.1696 3.02734 54.916 3.02734 54.916 3.02734C54.916 3.02734 54.916 2.79232 54.916 2.32227C54.916 1.85221 54.916 1.61719 54.916 1.61719C54.916 1.61719 55.1696 1.61719 55.6768 1.61719C56.1839 1.61719 56.4375 1.61719 56.4375 1.61719C56.4375 1.61719 56.4375 1.85221 56.4375 2.32227C56.4375 2.79232 56.4375 3.02734 56.4375 3.02734C56.4375 3.02734 56.1839 3.02734 55.6768 3.02734ZM57.1982 4.4375C56.6911 4.4375 56.4375 4.4375 56.4375 4.4375C56.4375 4.4375 56.4375 4.20247 56.4375 3.73242C56.4375 3.26237 56.4375 3.02734 56.4375 3.02734C56.4375 3.02734 56.6911 3.02734 57.1982 3.02734C57.7054 3.02734 57.959 3.02734 57.959 3.02734C57.959 3.02734 57.959 3.26237 57.959 3.73242C57.959 4.20247 57.959 4.4375 57.959 4.4375C57.959 4.4375 57.7054 4.4375 57.1982 4.4375ZM57.1982 3.02734C56.6911 3.02734 56.4375 3.02734 56.4375 3.02734C56.4375 3.02734 56.4375 2.79232 56.4375 2.32227C56.4375 1.85221 56.4375 1.61719 56.4375 1.61719C56.4375 1.61719 56.6911 1.61719 57.1982 1.61719C57.7054 1.61719 57.959 1.61719 57.959 1.61719C57.959 1.61719 57.959 1.85221 57.959 2.32227C57.959 2.79232 57.959 3.02734 57.959 3.02734C57.959 3.02734 57.7054 3.02734 57.1982 3.02734ZM77.3857 27.501C77.1878 27.5133 77.0889 27.5195 77.0889 27.5195C77.0889 27.5195 77.0889 27.2907 77.0889 26.833C77.0889 26.3753 77.0889 26.1465 77.0889 26.1465C77.0889 26.1465 77.2064 26.1465 77.4414 26.1465C77.7135 26.1217 77.9486 26.097 78.1465 26.0723C78.3444 26.0352 78.5856 25.9857 78.8701 25.9238C79.1299 25.862 79.2598 25.8311 79.2598 25.8311C79.2598 25.8311 79.2598 26.0537 79.2598 26.499C79.2598 26.9691 79.2598 27.2041 79.2598 27.2041C79.2598 27.2041 79.1299 27.235 78.8701 27.2969C78.6227 27.3464 78.363 27.3896 78.0908 27.4268C77.8311 27.4639 77.596 27.4886 77.3857 27.501ZM77.4414 26.1465C77.2064 26.1465 77.0889 26.1465 77.0889 26.1465C77.0889 26.1465 77.0889 25.93 77.0889 25.4971C77.0889 25.0394 77.0889 24.8105 77.0889 24.8105C77.0889 24.8105 77.1816 24.8044 77.3672 24.792C77.627 24.7796 77.8558 24.7611 78.0537 24.7363C78.264 24.7116 78.5052 24.6683 78.7773 24.6064C79.099 24.5199 79.2598 24.4766 79.2598 24.4766C79.2598 24.4766 79.2598 24.6992 79.2598 25.1445C79.2598 25.6022 79.2598 25.8311 79.2598 25.8311C79.2598 25.8311 79.1299 25.862 78.8701 25.9238C78.5856 25.9857 78.3444 26.0352 78.1465 26.0723C77.9486 26.097 77.7135 26.1217 77.4414 26.1465ZM78.7588 4.10352C78.5238 4.05404 78.2949 4.01074 78.0723 3.97363C77.862 3.93652 77.627 3.9056 77.3672 3.88086C77.1816 3.86849 77.0889 3.8623 77.0889 3.8623C77.0889 3.8623 77.0889 3.62109 77.0889 3.13867C77.0889 2.66862 77.0889 2.43359 77.0889 2.43359C77.0889 2.43359 77.1816 2.43978 77.3672 2.45215C77.5404 2.46452 77.7754 2.48926 78.0723 2.52637C78.3815 2.56348 78.6475 2.61296 78.8701 2.6748C79.1299 2.74902 79.2598 2.78613 79.2598 2.78613C79.2598 2.78613 79.2598 3.02734 79.2598 3.50977C79.2598 3.99219 79.2598 4.2334 79.2598 4.2334C79.2598 4.2334 79.0928 4.1901 78.7588 4.10352ZM78.8701 2.6748C78.6475 2.61296 78.3815 2.56348 78.0723 2.52637C77.7754 2.48926 77.5404 2.46452 77.3672 2.45215C77.1816 2.43978 77.0889 2.43359 77.0889 2.43359C77.0889 2.43359 77.0889 2.19238 77.0889 1.70996C77.0889 1.22754 77.0889 0.986328 77.0889 0.986328C77.0889 0.986328 77.2002 0.992513 77.4229 1.00488C77.6331 1.01725 77.8929 1.05436 78.2021 1.11621C78.5114 1.16569 78.7464 1.20898 78.9072 1.24609C79.1423 1.29557 79.2598 1.3265 79.2598 1.33887C79.2598 1.33887 79.2598 1.58008 79.2598 2.0625C79.2598 2.54492 79.2598 2.78613 79.2598 2.78613C79.2598 2.78613 79.1299 2.74902 78.8701 2.6748ZM75.3262 27.5195C74.9056 27.4948 74.6953 27.4824 74.6953 27.4824C74.6953 27.4824 74.6953 27.235 74.6953 26.7402C74.6953 26.3073 74.6953 26.0908 74.6953 26.0908C74.6953 26.0908 74.9056 26.1156 75.3262 26.165C75.7591 26.165 75.9756 26.165 75.9756 26.165C75.9756 26.165 75.9756 26.3815 75.9756 26.8145C75.9756 27.2969 75.9756 27.5381 75.9756 27.5381C75.9756 27.5381 75.7591 27.5319 75.3262 27.5195ZM75.3262 26.165C74.9056 26.1156 74.6953 26.0908 74.6953 26.0908C74.6953 26.0908 74.6953 25.8805 74.6953 25.46C74.6953 24.9652 74.6953 24.7178 74.6953 24.7178C74.6953 24.7178 74.918 24.7425 75.3633 24.792C75.7715 24.8167 75.9756 24.8291 75.9756 24.8291C75.9756 24.8291 75.9756 25.0641 75.9756 25.5342C75.9756 25.9548 75.9756 26.165 75.9756 26.165C75.9756 26.165 75.7591 26.165 75.3262 26.165ZM75.2891 3.84375C74.8932 3.89323 74.6953 3.91797 74.6953 3.91797C74.6953 3.91797 74.6953 3.65202 74.6953 3.12012C74.6953 2.68717 74.6953 2.4707 74.6953 2.4707C74.6953 2.4707 74.8994 2.45215 75.3076 2.41504C75.7035 2.40267 75.9014 2.39648 75.9014 2.39648C75.9014 2.39648 75.9014 2.62533 75.9014 3.08301C75.9014 3.5778 75.9014 3.8252 75.9014 3.8252C75.9014 3.8252 75.6973 3.83138 75.2891 3.84375ZM75.3076 2.41504C74.8994 2.45215 74.6953 2.4707 74.6953 2.4707C74.6953 2.4707 74.6953 2.23568 74.6953 1.76562C74.6953 1.25846 74.6953 1.00488 74.6953 1.00488C74.6953 1.00488 74.8932 0.992513 75.2891 0.967773C75.6973 0.967773 75.9014 0.967773 75.9014 0.967773C75.9014 0.967773 75.9014 1.22135 75.9014 1.72852C75.9014 2.17383 75.9014 2.39648 75.9014 2.39648C75.9014 2.39648 75.7035 2.40267 75.3076 2.41504ZM76.5508 27.5381C76.1673 27.5381 75.9756 27.5381 75.9756 27.5381C75.9756 27.5381 75.9756 27.2969 75.9756 26.8145C75.9756 26.3815 75.9756 26.165 75.9756 26.165C75.9756 26.165 76.1549 26.165 76.5137 26.165C76.8971 26.1527 77.0889 26.1465 77.0889 26.1465C77.0889 26.1465 77.0889 26.3691 77.0889 26.8145C77.0889 27.2845 77.0889 27.5195 77.0889 27.5195C77.0889 27.5195 76.9095 27.5257 76.5508 27.5381ZM76.5137 26.165C76.1549 26.165 75.9756 26.165 75.9756 26.165C75.9756 26.165 75.9756 25.9548 75.9756 25.5342C75.9756 25.0641 75.9756 24.8291 75.9756 24.8291C75.9756 24.8291 76.1611 24.8291 76.5322 24.8291C76.9033 24.8167 77.0889 24.8105 77.0889 24.8105C77.0889 24.8105 77.0889 25.0332 77.0889 25.4785C77.0889 25.9238 77.0889 26.1465 77.0889 26.1465C77.0889 26.1465 76.8971 26.1527 76.5137 26.165ZM76.4951 3.84375C76.0993 3.83138 75.9014 3.8252 75.9014 3.8252C75.9014 3.8252 75.9014 3.5778 75.9014 3.08301C75.9014 2.62533 75.9014 2.39648 75.9014 2.39648C75.9014 2.39648 76.0931 2.40267 76.4766 2.41504C76.8848 2.42741 77.0889 2.43359 77.0889 2.43359C77.0889 2.43359 77.0889 2.66862 77.0889 3.13867C77.0889 3.62109 77.0889 3.8623 77.0889 3.8623C77.0889 3.8623 76.891 3.85612 76.4951 3.84375ZM76.4766 2.41504C76.0931 2.40267 75.9014 2.39648 75.9014 2.39648C75.9014 2.39648 75.9014 2.17383 75.9014 1.72852C75.9014 1.22135 75.9014 0.967773 75.9014 0.967773C75.9014 0.967773 76.1055 0.967773 76.5137 0.967773C76.8971 0.980143 77.0889 0.986328 77.0889 0.986328C77.0889 0.986328 77.0889 1.23372 77.0889 1.72852C77.0889 2.19857 77.0889 2.43359 77.0889 2.43359C77.0889 2.43359 76.8848 2.42741 76.4766 2.41504ZM80.0205 27C79.5133 27.1361 79.2598 27.2041 79.2598 27.2041C79.2598 27.2041 79.2598 26.9691 79.2598 26.499C79.2598 26.0537 79.2598 25.8311 79.2598 25.8311C79.2598 25.8311 79.5195 25.7568 80.0391 25.6084C80.5339 25.4352 80.7812 25.3486 80.7812 25.3486C80.7812 25.3486 80.7812 25.5837 80.7812 26.0537C80.7812 26.5361 80.7812 26.7773 80.7812 26.7773C80.7812 26.7773 80.5277 26.8516 80.0205 27ZM80.0391 25.6084C79.5195 25.7568 79.2598 25.8311 79.2598 25.8311C79.2598 25.8311 79.2598 25.6022 79.2598 25.1445C79.2598 24.6992 79.2598 24.4766 79.2598 24.4766C79.2598 24.4766 79.5257 24.39 80.0576 24.2168C80.54 24.0312 80.7812 23.9385 80.7812 23.9385C80.7812 23.9385 80.7812 24.1673 80.7812 24.625C80.7812 25.1074 80.7812 25.3486 80.7812 25.3486C80.7812 25.3486 80.5339 25.4352 80.0391 25.6084ZM81.5605 26.499C81.041 26.6846 80.7812 26.7773 80.7812 26.7773C80.7812 26.7773 80.7812 26.5361 80.7812 26.0537C80.7812 25.5837 80.7812 25.3486 80.7812 25.3486C80.7812 25.3486 81.0348 25.2311 81.542 24.9961C82.0492 24.6992 82.3027 24.5508 82.3027 24.5508C82.3027 24.5508 82.3027 24.891 82.3027 25.5713C82.3027 25.9548 82.3027 26.1465 82.3027 26.1465C82.3027 26.1465 82.0553 26.264 81.5605 26.499ZM81.542 24.9961C81.0348 25.2311 80.7812 25.3486 80.7812 25.3486C80.7812 25.3486 80.7812 25.1074 80.7812 24.625C80.7812 24.1673 80.7812 23.9385 80.7812 23.9385C80.7812 23.9385 81.0225 23.8086 81.5049 23.5488C82.0368 23.1777 82.3027 22.9922 82.3027 22.9922C82.3027 22.9922 82.3027 23.3138 82.3027 23.957C82.3027 24.3529 82.3027 24.5508 82.3027 24.5508C82.3027 24.5508 82.0492 24.6992 81.542 24.9961ZM80.0576 4.51172C79.5257 4.32617 79.2598 4.2334 79.2598 4.2334C79.2598 4.2334 79.2598 3.99837 79.2598 3.52832C79.2598 3.03353 79.2598 2.78613 79.2598 2.78613C79.2598 2.78613 79.5195 2.86035 80.0391 3.00879C80.5339 3.18197 80.7812 3.26855 80.7812 3.26855C80.7812 3.26855 80.7812 3.52214 80.7812 4.0293C80.7812 4.5612 80.7812 4.82715 80.7812 4.82715C80.7812 4.82715 80.54 4.72201 80.0576 4.51172ZM80.0391 3.00879C79.5195 2.86035 79.2598 2.78613 79.2598 2.78613C79.2598 2.78613 79.2598 2.56348 79.2598 2.11816C79.2598 1.58626 79.2598 1.32031 79.2598 1.32031C79.2598 1.32031 79.5133 1.38216 80.0205 1.50586C80.5277 1.6543 80.7812 1.72852 80.7812 1.72852C80.7812 1.72852 80.7812 1.9821 80.7812 2.48926C80.7812 3.00879 80.7812 3.26855 80.7812 3.26855C80.7812 3.26855 80.5339 3.18197 80.0391 3.00879ZM81.5049 5.2168C81.0225 4.95703 80.7812 4.82715 80.7812 4.82715C80.7812 4.82715 80.7812 4.5612 80.7812 4.0293C80.7812 3.52214 80.7812 3.26855 80.7812 3.26855C80.7812 3.26855 81.0348 3.3737 81.542 3.58398C82.0492 3.83138 82.3027 3.95508 82.3027 3.95508C82.3027 3.95508 82.3027 4.1901 82.3027 4.66016C82.3027 5.3776 82.3027 5.73633 82.3027 5.73633C82.3027 5.73633 82.0368 5.56315 81.5049 5.2168ZM81.542 3.58398C81.0348 3.3737 80.7812 3.26855 80.7812 3.26855C80.7812 3.26855 80.7812 3.00879 80.7812 2.48926C80.7812 1.9821 80.7812 1.72852 80.7812 1.72852C80.7812 1.72852 81.0348 1.82747 81.542 2.02539C82.0492 2.24805 82.3027 2.35938 82.3027 2.35938C82.3027 2.35938 82.3027 2.60059 82.3027 3.08301C82.3027 3.66439 82.3027 3.95508 82.3027 3.95508C82.3027 3.95508 82.0492 3.83138 81.542 3.58398ZM63.3398 15.7188C62.8327 15.7188 62.5791 15.7188 62.5791 15.7188C62.5791 15.7188 62.5667 15.4837 62.542 15.0137C62.5296 14.5436 62.5234 14.3086 62.5234 14.3086C62.5234 14.3086 62.7832 14.3086 63.3027 14.3086C63.7975 14.3086 64.0449 14.3086 64.0449 14.3086C64.0449 14.3086 64.0449 14.5436 64.0449 15.0137C64.0697 15.4837 64.082 15.7188 64.082 15.7188C64.082 15.7188 63.8346 15.7188 63.3398 15.7188ZM63.3027 14.3086C62.7832 14.3086 62.5234 14.3086 62.5234 14.3086C62.5234 14.3086 62.5296 14.0736 62.542 13.6035C62.5667 13.1335 62.5791 12.8984 62.5791 12.8984C62.5791 12.8984 62.8203 12.8984 63.3027 12.8984C63.8223 12.8984 64.082 12.8984 64.082 12.8984C64.082 12.8984 64.0697 13.1335 64.0449 13.6035C64.0449 14.0736 64.0449 14.3086 64.0449 14.3086C64.0449 14.3086 63.7975 14.3086 63.3027 14.3086ZM64.917 15.7188C64.3604 15.7188 64.082 15.7188 64.082 15.7188C64.082 15.7188 64.0697 15.4837 64.0449 15.0137C64.0449 14.5436 64.0449 14.3086 64.0449 14.3086C64.0449 14.3086 64.3232 14.3086 64.8799 14.3086C65.3994 14.3086 65.6592 14.3086 65.6592 14.3086C65.6592 14.3086 65.6654 14.5436 65.6777 15.0137C65.7148 15.4837 65.7334 15.7188 65.7334 15.7188C65.7334 15.7188 65.4613 15.7188 64.917 15.7188ZM64.8799 14.3086C64.3232 14.3086 64.0449 14.3086 64.0449 14.3086C64.0449 14.3086 64.0449 14.0736 64.0449 13.6035C64.0697 13.1335 64.082 12.8984 64.082 12.8984C64.082 12.8984 64.348 12.8984 64.8799 12.8984C65.4489 12.8984 65.7334 12.8984 65.7334 12.8984C65.7334 12.8984 65.7148 13.1335 65.6777 13.6035C65.6654 14.0736 65.6592 14.3086 65.6592 14.3086C65.6592 14.3086 65.3994 14.3086 64.8799 14.3086ZM73.8975 27.3711C72.611 27.1608 71.3864 26.8145 70.2236 26.332C69.0609 25.8496 67.9785 25.1755 66.9766 24.3096C65.8262 23.3324 64.8675 22.1696 64.1006 20.8213C63.346 19.473 62.8636 18.0319 62.6533 16.498C62.6038 15.9785 62.5791 15.7188 62.5791 15.7188C62.5791 15.7188 62.8327 15.7188 63.3398 15.7188C63.8841 15.7188 64.1562 15.7188 64.1562 15.7188C64.1562 15.7188 64.1872 15.96 64.249 16.4424C64.484 17.766 64.917 19.0091 65.5479 20.1719C66.1787 21.3346 66.9889 22.3613 67.9785 23.252C68.7454 23.957 69.6113 24.526 70.5762 24.959C71.541 25.3919 72.6234 25.7259 73.8232 25.9609C74.4046 26.0475 74.6953 26.0908 74.6953 26.0908C74.6953 26.0908 74.6953 26.3135 74.6953 26.7588C74.6953 27.2288 74.6953 27.4639 74.6953 27.4639C74.6953 27.4639 74.4294 27.4329 73.8975 27.3711ZM73.8232 25.9609C72.6234 25.7259 71.541 25.3919 70.5762 24.959C69.6113 24.526 68.7454 23.957 67.9785 23.252C66.9889 22.3613 66.1787 21.3346 65.5479 20.1719C64.917 19.0091 64.484 17.766 64.249 16.4424C64.1872 15.96 64.1562 15.7188 64.1562 15.7188C64.1562 15.7188 64.4098 15.7188 64.917 15.7188C65.4613 15.7188 65.7334 15.7188 65.7334 15.7188C65.7334 15.7188 65.7705 15.9414 65.8447 16.3867C66.0303 17.4629 66.3766 18.502 66.8838 19.5039C67.4033 20.4935 68.0713 21.3717 68.8877 22.1387C69.6917 22.8932 70.471 23.4561 71.2256 23.8271C71.9801 24.1859 72.8893 24.4518 73.9531 24.625C74.4479 24.6745 74.6953 24.6992 74.6953 24.6992C74.6953 24.6992 74.6953 24.9466 74.6953 25.4414C74.6953 25.8743 74.6953 26.0908 74.6953 26.0908C74.6953 26.0908 74.4046 26.0475 73.8232 25.9609ZM63.3398 12.8984C62.8327 12.8984 62.5791 12.8984 62.5791 12.8984C62.5791 12.8984 62.6038 12.6387 62.6533 12.1191C62.8265 10.8327 63.2223 9.54622 63.8408 8.25977C64.4717 6.96094 65.2943 5.81673 66.3086 4.82715C67.3353 3.8252 68.4671 2.99642 69.7041 2.34082C70.9535 1.67285 72.3512 1.24609 73.8975 1.06055C74.4294 1.02344 74.6953 1.00488 74.6953 1.00488C74.6953 1.00488 74.6953 1.25228 74.6953 1.74707C74.6953 2.21712 74.6953 2.45215 74.6953 2.45215C74.6953 2.45215 74.4355 2.47689 73.916 2.52637C72.6172 2.68717 71.4235 3.05208 70.335 3.62109C69.2464 4.17773 68.2692 4.88281 67.4033 5.73633C66.5374 6.58984 65.8385 7.58561 65.3066 8.72363C64.7747 9.84928 64.4098 10.9935 64.2119 12.1562C64.1501 12.651 64.1191 12.8984 64.1191 12.8984C64.1191 12.8984 63.8594 12.8984 63.3398 12.8984ZM64.917 12.8984C64.3851 12.8984 64.1191 12.8984 64.1191 12.8984C64.1191 12.8984 64.1501 12.651 64.2119 12.1562C64.4098 10.9935 64.7747 9.84928 65.3066 8.72363C65.8385 7.58561 66.5374 6.58984 67.4033 5.73633C68.2692 4.88281 69.2464 4.17773 70.335 3.62109C71.4235 3.05208 72.6172 2.68717 73.916 2.52637C74.4355 2.47689 74.6953 2.45215 74.6953 2.45215C74.6953 2.45215 74.6953 2.68099 74.6953 3.13867C74.6953 3.6582 74.6953 3.91797 74.6953 3.91797C74.6953 3.91797 74.4417 3.94889 73.9346 4.01074C72.8337 4.19629 71.807 4.52409 70.8545 4.99414C69.902 5.45182 69.0794 6.03939 68.3867 6.75684C67.694 7.47428 67.1374 8.31543 66.7168 9.28027C66.2962 10.2327 66.0055 11.21 65.8447 12.2119C65.7705 12.6696 65.7334 12.8984 65.7334 12.8984C65.7334 12.8984 65.4613 12.8984 64.917 12.8984ZM88.7969 22.4727C87.5475 22.4727 86.9229 22.4727 86.9229 22.4727C86.9229 22.4727 87.0156 22.2624 87.2012 21.8418C87.3867 21.4212 87.4795 21.2109 87.4795 21.2109C87.4795 21.2109 87.9186 21.2109 88.7969 21.2109C89.3535 21.2109 90.0895 21.2109 91.0049 21.2109C91.9326 21.2109 92.9222 21.2109 93.9736 21.2109C94.9385 21.2109 95.9157 21.2109 96.9053 21.2109C97.9072 21.2109 98.8411 21.2109 99.707 21.2109C100.326 21.2109 100.635 21.2109 100.635 21.2109C100.635 21.2109 100.728 21.4212 100.913 21.8418C101.099 22.2624 101.191 22.4727 101.191 22.4727C101.191 22.4727 100.851 22.4727 100.171 22.4727C99.2555 22.4727 98.2598 22.4727 97.1836 22.4727C96.1074 22.4727 95.0374 22.4727 93.9736 22.4727C92.9222 22.4727 91.9264 22.4727 90.9863 22.4727C90.0462 22.4727 89.3164 22.4727 88.7969 22.4727ZM88.7969 21.2109C87.9186 21.2109 87.4795 21.2109 87.4795 21.2109C87.4795 21.2109 87.5723 21.0007 87.7578 20.5801C87.9434 20.1595 88.0361 19.9492 88.0361 19.9492C88.0361 19.9492 88.2897 19.9492 88.7969 19.9492C89.4896 19.9492 90.2936 19.9492 91.209 19.9492C92.1243 19.9492 93.0459 19.9492 93.9736 19.9492C94.9014 19.9492 95.7982 19.9492 96.6641 19.9492C97.5423 19.9492 98.3835 19.9492 99.1875 19.9492C99.7812 19.9492 100.078 19.9492 100.078 19.9492C100.078 19.9492 100.171 20.1595 100.356 20.5801C100.542 21.0007 100.635 21.2109 100.635 21.2109C100.635 21.2109 100.326 21.2109 99.707 21.2109C98.8659 21.2109 97.9443 21.2109 96.9424 21.2109C95.9528 21.2109 94.9632 21.2109 93.9736 21.2109C92.8727 21.2109 91.846 21.2109 90.8936 21.2109C89.9535 21.2109 89.2546 21.2109 88.7969 21.2109ZM88.5928 13.585C88.1846 13.4118 87.9805 13.3252 87.9805 13.3252C87.9805 13.3252 88.0732 13.1087 88.2588 12.6758C89.3721 10.1895 90.1514 8.42057 90.5967 7.36914C91.042 6.31771 91.4007 5.5013 91.6729 4.91992C91.8213 4.59831 91.8955 4.4375 91.8955 4.4375C91.8955 4.4375 92.1491 4.4375 92.6562 4.4375C93.151 4.4375 93.3984 4.4375 93.3984 4.4375C93.3984 4.4375 93.25 4.77767 92.9531 5.45801C92.5573 6.31152 92.1182 7.28255 91.6357 8.37109C91.1657 9.45964 90.4421 11.1172 89.4648 13.3438C89.3164 13.7025 89.2422 13.8818 89.2422 13.8818C89.2422 13.8818 89.0257 13.7829 88.5928 13.585ZM89.873 14.1602C89.4525 13.9746 89.2422 13.8818 89.2422 13.8818C89.2422 13.8818 89.3164 13.7025 89.4648 13.3438C90.4421 11.1172 91.1657 9.45964 91.6357 8.37109C92.1182 7.28255 92.5573 6.31152 92.9531 5.45801C93.25 4.77767 93.3984 4.4375 93.3984 4.4375C93.3984 4.4375 93.5221 4.73438 93.7695 5.32812C94.0169 5.88477 94.1406 6.16309 94.1406 6.16309C94.1406 6.16309 94.0726 6.32389 93.9365 6.64551C93.7139 7.16504 93.3799 7.9196 92.9346 8.90918C92.4893 9.88639 91.7718 11.5068 90.7822 13.7705C90.5843 14.2282 90.4854 14.457 90.4854 14.457C90.4854 14.457 90.2812 14.3581 89.873 14.1602ZM99.707 13.6221C99.2493 13.82 99.0205 13.9189 99.0205 13.9189C99.0205 13.9189 98.9401 13.7396 98.7793 13.3809C97.901 11.4264 97.2393 9.91113 96.7939 8.83496C96.3486 7.75879 95.9095 6.7321 95.4766 5.75488C95.0931 4.87663 94.9014 4.4375 94.9014 4.4375C94.9014 4.4375 95.1426 4.4375 95.625 4.4375C96.1322 4.4375 96.3857 4.4375 96.3857 4.4375C96.3857 4.4375 96.46 4.59212 96.6084 4.90137C97.1156 6.00228 97.598 7.08464 98.0557 8.14844C98.5133 9.19987 99.1999 10.7646 100.115 12.8428C100.264 13.1768 100.338 13.3438 100.338 13.3438C100.338 13.3438 100.128 13.4365 99.707 13.6221ZM98.3525 14.1973C97.9072 14.3952 97.6846 14.4941 97.6846 14.4941C97.6846 14.4941 97.6042 14.3086 97.4434 13.9375C96.4414 11.6367 95.7301 9.97917 95.3096 8.96484C94.9014 7.95052 94.5798 7.17741 94.3447 6.64551C94.2087 6.32389 94.1406 6.16309 94.1406 6.16309C94.1406 6.16309 94.2581 5.87858 94.4932 5.30957C94.7653 4.72819 94.9014 4.4375 94.9014 4.4375C94.9014 4.4375 95.0931 4.87663 95.4766 5.75488C95.9095 6.7321 96.3486 7.75879 96.7939 8.83496C97.2393 9.91113 97.901 11.4264 98.7793 13.3809C98.9401 13.7396 99.0205 13.9189 99.0205 13.9189C99.0205 13.9189 98.7979 14.0117 98.3525 14.1973ZM92.6562 4.4375C92.1491 4.4375 91.8955 4.4375 91.8955 4.4375C91.8955 4.4375 91.9945 4.21484 92.1924 3.76953C92.3903 3.32422 92.4893 3.10156 92.4893 3.10156C92.4893 3.10156 92.7552 3.10156 93.2871 3.10156C93.8561 3.10156 94.1406 3.10156 94.1406 3.10156C94.1406 3.10156 94.0169 3.3304 93.7695 3.78809C93.5221 4.22103 93.3984 4.4375 93.3984 4.4375C93.3984 4.4375 93.151 4.4375 92.6562 4.4375ZM93.2871 3.10156C92.7552 3.10156 92.4893 3.10156 92.4893 3.10156C92.4893 3.10156 92.6006 2.84798 92.8232 2.34082C93.0335 1.8584 93.1387 1.61719 93.1387 1.61719C93.1387 1.61719 93.3118 1.61719 93.6582 1.61719C93.9798 1.61719 94.1406 1.61719 94.1406 1.61719C94.1406 1.61719 94.1406 1.8584 94.1406 2.34082C94.1406 2.84798 94.1406 3.10156 94.1406 3.10156C94.1406 3.10156 93.8561 3.10156 93.2871 3.10156ZM93.7695 5.32812C93.5221 4.73438 93.3984 4.4375 93.3984 4.4375C93.3984 4.4375 93.5221 4.22103 93.7695 3.78809C94.0169 3.3304 94.1406 3.10156 94.1406 3.10156C94.1406 3.10156 94.2767 3.33659 94.5488 3.80664C94.7839 4.22721 94.9014 4.4375 94.9014 4.4375C94.9014 4.4375 94.7715 4.72819 94.5117 5.30957C94.2643 5.87858 94.1406 6.16309 94.1406 6.16309C94.1406 6.16309 94.0169 5.88477 93.7695 5.32812ZM95.625 4.4375C95.1426 4.4375 94.9014 4.4375 94.9014 4.4375C94.9014 4.4375 94.7839 4.22721 94.5488 3.80664C94.2767 3.33659 94.1406 3.10156 94.1406 3.10156C94.1406 3.10156 94.4251 3.10156 94.9941 3.10156C95.526 3.10156 95.792 3.10156 95.792 3.10156C95.792 3.10156 95.891 3.32422 96.0889 3.76953C96.2868 4.21484 96.3857 4.4375 96.3857 4.4375C96.3857 4.4375 96.1322 4.4375 95.625 4.4375ZM94.9941 3.10156C94.4251 3.10156 94.1406 3.10156 94.1406 3.10156C94.1406 3.10156 94.1406 2.84798 94.1406 2.34082C94.1406 1.8584 94.1406 1.61719 94.1406 1.61719C94.1406 1.61719 94.3014 1.61719 94.623 1.61719C94.9694 1.61719 95.1426 1.61719 95.1426 1.61719C95.1426 1.61719 95.2477 1.8584 95.458 2.34082C95.6807 2.84798 95.792 3.10156 95.792 3.10156C95.792 3.10156 95.526 3.10156 94.9941 3.10156ZM85.3086 24.5137C85.7292 24.6992 85.9395 24.792 85.9395 24.792C85.9395 24.792 85.8467 25.0023 85.6611 25.4229C85.4756 25.8311 85.3828 26.0352 85.3828 26.0352C85.3828 26.0352 85.1725 25.9486 84.752 25.7754C84.3438 25.5898 84.1396 25.4971 84.1396 25.4971C84.1396 25.4971 84.2324 25.2868 84.418 24.8662C84.6035 24.4456 84.6963 24.2354 84.6963 24.2354C84.6963 24.2354 84.9004 24.3281 85.3086 24.5137ZM84.752 25.7754C85.1725 25.9486 85.3828 26.0352 85.3828 26.0352C85.3828 26.0352 85.29 26.2454 85.1045 26.666C84.9189 27.0866 84.8262 27.2969 84.8262 27.2969C84.8262 27.2969 84.6221 27.2041 84.2139 27.0186C83.7933 26.833 83.583 26.7402 83.583 26.7402C83.583 26.7402 83.6758 26.5299 83.8613 26.1094C84.0469 25.7012 84.1396 25.4971 84.1396 25.4971C84.1396 25.4971 84.3438 25.5898 84.752 25.7754ZM84.0654 23.957C84.486 24.1426 84.6963 24.2354 84.6963 24.2354C84.6963 24.2354 84.6035 24.4456 84.418 24.8662C84.2324 25.2868 84.1396 25.4971 84.1396 25.4971C84.1396 25.4971 83.9294 25.4043 83.5088 25.2188C83.0882 25.0332 82.8779 24.9404 82.8779 24.9404C82.8779 24.9404 82.9707 24.7301 83.1562 24.3096C83.3418 23.889 83.4346 23.6787 83.4346 23.6787C83.4346 23.6787 83.6449 23.7715 84.0654 23.957ZM83.5088 25.2188C83.9294 25.4043 84.1396 25.4971 84.1396 25.4971C84.1396 25.4971 84.0469 25.7012 83.8613 26.1094C83.6758 26.5299 83.583 26.7402 83.583 26.7402C83.583 26.7402 83.3727 26.6475 82.9521 26.4619C82.5316 26.2764 82.3213 26.1836 82.3213 26.1836C82.3213 26.1836 82.4141 25.9733 82.5996 25.5527C82.7852 25.1445 82.8779 24.9404 82.8779 24.9404C82.8779 24.9404 83.0882 25.0332 83.5088 25.2188ZM89.8916 14.1602C90.3122 14.3457 90.5225 14.4385 90.5225 14.4385C90.5225 14.4385 90.4297 14.6488 90.2441 15.0693C90.0586 15.4899 89.9658 15.7002 89.9658 15.7002C89.9658 15.7002 89.7555 15.6074 89.335 15.4219C88.9144 15.2363 88.7041 15.1436 88.7041 15.1436C88.7041 15.1436 88.7969 14.9333 88.9824 14.5127C89.168 14.0921 89.2607 13.8818 89.2607 13.8818C89.2607 13.8818 89.471 13.9746 89.8916 14.1602ZM89.335 15.4219C89.7555 15.6074 89.9658 15.7002 89.9658 15.7002C89.9658 15.7002 89.873 15.9043 89.6875 16.3125C89.502 16.7331 89.4092 16.9434 89.4092 16.9434C89.4092 16.9434 89.1989 16.8506 88.7783 16.665C88.3701 16.4795 88.166 16.3867 88.166 16.3867C88.166 16.3867 88.2588 16.1826 88.4443 15.7744C88.6175 15.3538 88.7041 15.1436 88.7041 15.1436C88.7041 15.1436 88.9144 15.2363 89.335 15.4219ZM88.6484 13.6035C89.0566 13.7891 89.2607 13.8818 89.2607 13.8818C89.2607 13.8818 89.168 14.0921 88.9824 14.5127C88.7969 14.9333 88.7041 15.1436 88.7041 15.1436C88.7041 15.1436 88.5 15.0508 88.0918 14.8652C87.6712 14.6797 87.4609 14.5869 87.4609 14.5869C87.4609 14.5869 87.5537 14.3766 87.7393 13.9561C87.9248 13.5355 88.0176 13.3252 88.0176 13.3252C88.0176 13.3252 88.2279 13.418 88.6484 13.6035ZM88.0918 14.8652C88.5 15.0508 88.7041 15.1436 88.7041 15.1436C88.7041 15.1436 88.6175 15.3538 88.4443 15.7744C88.2588 16.1826 88.166 16.3867 88.166 16.3867C88.166 16.3867 87.9557 16.2939 87.5352 16.1084C87.1146 15.9229 86.9043 15.8301 86.9043 15.8301C86.9043 15.8301 86.9971 15.626 87.1826 15.2178C87.3682 14.7972 87.4609 14.5869 87.4609 14.5869C87.4609 14.5869 87.6712 14.6797 88.0918 14.8652ZM88.7783 16.665C89.1989 16.8506 89.4092 16.9434 89.4092 16.9434C89.4092 16.9434 89.3164 17.1536 89.1309 17.5742C88.9453 17.9948 88.7969 18.335 88.6855 18.5947C88.5742 18.8421 88.234 19.6152 87.665 20.9141C87.1084 22.1758 86.7744 22.9242 86.6631 23.1592C86.5641 23.3818 86.4219 23.7096 86.2363 24.1426C86.0384 24.5755 85.9395 24.792 85.9395 24.792C85.9395 24.792 85.7292 24.6992 85.3086 24.5137C84.9004 24.3281 84.6963 24.2354 84.6963 24.2354C84.6963 24.2354 84.7891 24.0189 84.9746 23.5859C85.1602 23.153 85.3024 22.819 85.4014 22.584C85.5127 22.349 85.8467 21.6068 86.4033 20.3574C86.9847 19.0339 87.3311 18.2546 87.4424 18.0195C87.5537 17.7721 87.7021 17.4382 87.8877 17.0176C88.0732 16.597 88.166 16.3867 88.166 16.3867C88.166 16.3867 88.3701 16.4795 88.7783 16.665ZM87.5352 16.1084C87.9557 16.2939 88.166 16.3867 88.166 16.3867C88.166 16.3867 88.0732 16.597 87.8877 17.0176C87.7021 17.4382 87.5475 17.7783 87.4238 18.0381C87.3125 18.2855 86.9723 19.0586 86.4033 20.3574C85.8467 21.6191 85.5127 22.3675 85.4014 22.6025C85.3024 22.8252 85.1602 23.153 84.9746 23.5859C84.7891 24.0189 84.6963 24.2354 84.6963 24.2354C84.6963 24.2354 84.486 24.1426 84.0654 23.957C83.6449 23.7715 83.4346 23.6787 83.4346 23.6787C83.4346 23.6787 83.5273 23.4622 83.7129 23.0293C83.9108 22.5964 84.0592 22.2624 84.1582 22.0273C84.2695 21.7923 84.5973 21.0501 85.1416 19.8008C85.7354 18.4772 86.0817 17.6979 86.1807 17.4629C86.292 17.2155 86.4404 16.8815 86.626 16.4609C86.8115 16.0404 86.9043 15.8301 86.9043 15.8301C86.9043 15.8301 87.1146 15.9229 87.5352 16.1084ZM104.216 23.9941C104.661 23.8086 104.884 23.7158 104.884 23.7158C104.884 23.7158 104.977 23.9199 105.162 24.3281C105.335 24.7487 105.422 24.959 105.422 24.959C105.422 24.959 105.205 25.0579 104.772 25.2559C104.327 25.4538 104.104 25.5527 104.104 25.5527C104.104 25.5527 104.012 25.3424 103.826 24.9219C103.641 24.5013 103.548 24.291 103.548 24.291C103.548 24.291 103.771 24.1921 104.216 23.9941ZM104.772 25.2559C105.205 25.0579 105.422 24.959 105.422 24.959C105.422 24.959 105.515 25.1693 105.7 25.5898C105.886 26.0104 105.979 26.2207 105.979 26.2207C105.979 26.2207 105.756 26.3197 105.311 26.5176C104.865 26.7031 104.643 26.7959 104.643 26.7959C104.643 26.7959 104.556 26.5856 104.383 26.165C104.197 25.7568 104.104 25.5527 104.104 25.5527C104.104 25.5527 104.327 25.4538 104.772 25.2559ZM102.88 24.5693C103.325 24.3838 103.548 24.291 103.548 24.291C103.548 24.291 103.641 24.5013 103.826 24.9219C104.012 25.3424 104.104 25.5527 104.104 25.5527C104.104 25.5527 103.882 25.6455 103.437 25.8311C102.991 26.029 102.769 26.1279 102.769 26.1279C102.769 26.1279 102.682 25.9176 102.509 25.4971C102.323 25.0765 102.23 24.8662 102.23 24.8662C102.23 24.8662 102.447 24.7673 102.88 24.5693ZM103.437 25.8311C103.882 25.6455 104.104 25.5527 104.104 25.5527C104.104 25.5527 104.197 25.7568 104.383 26.165C104.556 26.5856 104.643 26.7959 104.643 26.7959C104.643 26.7959 104.426 26.8949 103.993 27.0928C103.548 27.2907 103.325 27.3896 103.325 27.3896C103.325 27.3896 103.232 27.1794 103.047 26.7588C102.861 26.3382 102.769 26.1279 102.769 26.1279C102.769 26.1279 102.991 26.029 103.437 25.8311ZM100.783 16.1455C101.229 15.9476 101.451 15.8486 101.451 15.8486C101.451 15.8486 101.544 16.0589 101.729 16.4795C101.915 16.9124 102.063 17.2588 102.175 17.5186C102.286 17.766 102.626 18.5391 103.195 19.8379C103.74 21.0996 104.061 21.848 104.16 22.083C104.259 22.3057 104.408 22.6335 104.605 23.0664C104.791 23.4993 104.884 23.7158 104.884 23.7158C104.884 23.7158 104.661 23.8086 104.216 23.9941C103.771 24.1921 103.548 24.291 103.548 24.291C103.548 24.291 103.455 24.0745 103.27 23.6416C103.084 23.2087 102.936 22.8809 102.824 22.6582C102.725 22.4232 102.404 21.681 101.859 20.4316C101.29 19.0957 100.95 18.3102 100.839 18.0752C100.728 17.8278 100.579 17.4876 100.394 17.0547C100.208 16.6341 100.115 16.4238 100.115 16.4238C100.115 16.4238 100.338 16.3311 100.783 16.1455ZM99.4658 16.7207C99.8988 16.5228 100.115 16.4238 100.115 16.4238C100.115 16.4238 100.208 16.6341 100.394 17.0547C100.579 17.4876 100.728 17.834 100.839 18.0938C100.95 18.3411 101.29 19.1204 101.859 20.4316C102.416 21.681 102.744 22.4232 102.843 22.6582C102.942 22.8809 103.084 23.2087 103.27 23.6416C103.455 24.0745 103.548 24.291 103.548 24.291C103.548 24.291 103.325 24.3838 102.88 24.5693C102.447 24.7673 102.23 24.8662 102.23 24.8662C102.23 24.8662 102.138 24.6497 101.952 24.2168C101.754 23.7839 101.606 23.4561 101.507 23.2334C101.408 22.9984 101.086 22.2562 100.542 21.0068C99.9606 19.6833 99.6143 18.8978 99.5029 18.6504C99.404 18.403 99.2617 18.0628 99.0762 17.6299C98.8906 17.2217 98.7979 17.0176 98.7979 17.0176C98.7979 17.0176 99.0205 16.9186 99.4658 16.7207ZM99.6885 13.6221C100.134 13.4242 100.356 13.3252 100.356 13.3252C100.356 13.3252 100.449 13.5355 100.635 13.9561C100.808 14.3766 100.895 14.5869 100.895 14.5869C100.895 14.5869 100.678 14.6859 100.245 14.8838C99.7998 15.0693 99.5771 15.1621 99.5771 15.1621C99.5771 15.1621 99.4844 14.958 99.2988 14.5498C99.1133 14.1292 99.0205 13.9189 99.0205 13.9189C99.0205 13.9189 99.2432 13.82 99.6885 13.6221ZM100.245 14.8838C100.678 14.6859 100.895 14.5869 100.895 14.5869C100.895 14.5869 100.987 14.7972 101.173 15.2178C101.358 15.6383 101.451 15.8486 101.451 15.8486C101.451 15.8486 101.229 15.9476 100.783 16.1455C100.338 16.3311 100.115 16.4238 100.115 16.4238C100.115 16.4238 100.029 16.2135 99.8555 15.793C99.6699 15.3724 99.5771 15.1621 99.5771 15.1621C99.5771 15.1621 99.7998 15.0693 100.245 14.8838ZM98.3525 14.1973C98.7979 14.0117 99.0205 13.9189 99.0205 13.9189C99.0205 13.9189 99.1133 14.1292 99.2988 14.5498C99.4844 14.958 99.5771 15.1621 99.5771 15.1621C99.5771 15.1621 99.3545 15.2611 98.9092 15.459C98.4639 15.6569 98.2412 15.7559 98.2412 15.7559C98.2412 15.7559 98.1546 15.5456 97.9814 15.125C97.7959 14.7044 97.7031 14.4941 97.7031 14.4941C97.7031 14.4941 97.9196 14.3952 98.3525 14.1973ZM98.9092 15.459C99.3545 15.2611 99.5771 15.1621 99.5771 15.1621C99.5771 15.1621 99.6699 15.3724 99.8555 15.793C100.029 16.2135 100.115 16.4238 100.115 16.4238C100.115 16.4238 99.8988 16.5228 99.4658 16.7207C99.0205 16.9186 98.7979 17.0176 98.7979 17.0176C98.7979 17.0176 98.7051 16.8073 98.5195 16.3867C98.334 15.9661 98.2412 15.7559 98.2412 15.7559C98.2412 15.7559 98.4639 15.6569 98.9092 15.459ZM109.764 12.8984C109.244 12.8984 108.984 12.8984 108.984 12.8984C108.984 12.8984 108.984 12.4655 108.984 11.5996C108.984 10.9935 108.984 10.3008 108.984 9.52148C108.984 8.74219 108.984 7.97526 108.984 7.2207C108.984 6.60221 108.984 5.98372 108.984 5.36523C108.984 4.74674 108.984 4.01074 108.984 3.15723C108.984 3.07064 108.984 3.02734 108.984 3.02734C108.984 3.02734 109.238 3.02734 109.745 3.02734C110.252 3.02734 110.506 3.02734 110.506 3.02734C110.506 3.02734 110.506 3.07064 110.506 3.15723C110.506 3.25618 110.506 3.64583 110.506 4.32617C110.506 4.99414 110.506 5.98372 110.506 7.29492C110.506 8.25977 110.506 9.05143 110.506 9.66992C110.506 10.276 110.506 10.9193 110.506 11.5996C110.506 12.4655 110.506 12.8984 110.506 12.8984C110.506 12.8984 110.258 12.8984 109.764 12.8984ZM116.555 14.1045C116.109 14.3271 115.887 14.4385 115.887 14.4385C115.887 14.4385 115.726 14.0859 115.404 13.3809C114.984 12.4284 114.464 11.3584 113.846 10.1709C113.24 8.97103 112.788 8.05566 112.491 7.4248C111.168 4.49316 110.506 3.02734 110.506 3.02734C110.506 3.02734 110.506 2.86654 110.506 2.54492C110.506 1.92643 110.506 1.61719 110.506 1.61719C110.506 1.61719 110.685 1.61719 111.044 1.61719C111.304 1.61719 111.434 1.61719 111.434 1.61719C111.434 1.61719 111.57 1.93262 111.842 2.56348C112.287 3.62728 112.658 4.46842 112.955 5.08691C113.252 5.69303 113.555 6.33008 113.864 6.99805C114.495 8.37109 115.008 9.44727 115.404 10.2266C115.8 10.9935 116.239 11.8717 116.722 12.8613C117.043 13.4922 117.204 13.8076 117.204 13.8076C117.204 13.8076 116.988 13.9066 116.555 14.1045ZM125.851 14.1416C125.455 13.9561 125.257 13.8633 125.257 13.8633C125.257 13.8633 125.554 13.2633 126.147 12.0635C126.358 11.6182 126.648 11.0059 127.02 10.2266C127.391 9.44727 127.892 8.37109 128.522 6.99805C128.832 6.33008 129.135 5.69303 129.432 5.08691C129.729 4.46842 130.1 3.62728 130.545 2.56348C130.817 1.93262 130.953 1.61719 130.953 1.61719C130.953 1.61719 131.083 1.61719 131.343 1.61719C131.701 1.61719 131.881 1.61719 131.881 1.61719C131.881 1.61719 131.881 1.92643 131.881 2.54492C131.881 3.05208 131.881 3.30566 131.881 3.30566C131.881 3.30566 131.219 4.67871 129.896 7.4248C129.623 8.00618 129.184 8.90918 128.578 10.1338C127.984 11.3584 127.601 12.1562 127.428 12.5273C126.809 13.8014 126.5 14.4385 126.5 14.4385C126.5 14.4385 126.284 14.3395 125.851 14.1416ZM132.623 12.8984C132.128 12.8984 131.881 12.8984 131.881 12.8984C131.881 12.8984 131.881 12.4655 131.881 11.5996C131.881 10.9193 131.881 10.276 131.881 9.66992C131.881 9.05143 131.881 8.25977 131.881 7.29492C131.881 5.98372 131.881 5.08691 131.881 4.60449C131.881 4.1097 131.881 3.76953 131.881 3.58398C131.881 3.39844 131.881 3.30566 131.881 3.30566C131.881 3.30566 132.128 3.30566 132.623 3.30566C133.143 3.30566 133.402 3.30566 133.402 3.30566C133.402 3.30566 133.402 3.39844 133.402 3.58398C133.402 4.15299 133.402 4.74674 133.402 5.36523C133.402 5.98372 133.402 6.60221 133.402 7.2207C133.402 7.97526 133.402 8.74219 133.402 9.52148C133.402 10.3008 133.402 10.9935 133.402 11.5996C133.402 12.4655 133.402 12.8984 133.402 12.8984C133.402 12.8984 133.143 12.8984 132.623 12.8984ZM111.248 12.8984C110.753 12.8984 110.506 12.8984 110.506 12.8984C110.506 12.8984 110.506 12.4655 110.506 11.5996C110.506 10.5111 110.506 9.36068 110.506 8.14844C110.506 6.92383 110.506 5.89714 110.506 5.06836C110.506 3.70768 110.506 3.02734 110.506 3.02734C110.506 3.02734 110.79 3.65202 111.359 4.90137C111.805 5.89095 112.027 6.38574 112.027 6.38574C112.027 6.38574 112.027 7.04134 112.027 8.35254C112.027 8.99577 112.027 9.5957 112.027 10.1523C112.027 10.6966 112.027 11.179 112.027 11.5996C112.027 12.4655 112.027 12.8984 112.027 12.8984C112.027 12.8984 111.768 12.8984 111.248 12.8984ZM115.219 14.7354C114.786 14.9333 114.569 15.0322 114.569 15.0322C114.569 15.0322 114.415 14.6921 114.105 14.0117C113.734 13.2201 113.394 12.5026 113.085 11.8594C112.776 11.2038 112.565 10.7585 112.454 10.5234C112.17 9.8431 112.027 9.50293 112.027 9.50293C112.027 9.50293 112.027 9.11947 112.027 8.35254C112.027 7.04134 112.027 6.38574 112.027 6.38574C112.027 6.38574 112.182 6.7321 112.491 7.4248C112.788 8.05566 113.24 8.97103 113.846 10.1709C114.464 11.3584 114.984 12.4284 115.404 13.3809C115.726 14.0859 115.887 14.4385 115.887 14.4385C115.887 14.4385 115.664 14.5374 115.219 14.7354ZM119.709 24.1797C119.177 24.1797 118.911 24.1797 118.911 24.1797C118.911 24.1797 118.447 23.1777 117.52 21.1738C117 20.0977 116.709 19.4977 116.647 19.374C116.586 19.2503 116.499 19.0648 116.388 18.8174C115.942 17.9391 115.72 17.5 115.72 17.5C115.72 17.5 115.949 17.3949 116.406 17.1846C116.827 16.9867 117.037 16.8877 117.037 16.8877C117.037 16.8877 117.26 17.3639 117.705 18.3164C117.854 18.6133 118.027 18.9782 118.225 19.4111C118.435 19.8317 119.047 21.1182 120.062 23.2705C120.346 23.8766 120.488 24.1797 120.488 24.1797C120.488 24.1797 120.229 24.1797 119.709 24.1797ZM120.841 23.3076C120.606 23.889 120.488 24.1797 120.488 24.1797C120.488 24.1797 120.346 23.8766 120.062 23.2705C119.047 21.1182 118.435 19.8317 118.225 19.4111C118.027 18.9782 117.854 18.6133 117.705 18.3164C117.26 17.3639 117.037 16.8877 117.037 16.8877C117.037 16.8877 117.26 16.7887 117.705 16.5908C118.138 16.3929 118.354 16.2939 118.354 16.2939C118.354 16.2939 118.577 16.7702 119.022 17.7227C119.183 18.0566 119.443 18.6318 119.802 19.4482C120.173 20.2646 120.525 21.0068 120.859 21.6748C121.082 22.1943 121.193 22.4541 121.193 22.4541C121.193 22.4541 121.076 22.7386 120.841 23.3076ZM121.546 23.3076C121.311 22.7386 121.193 22.4541 121.193 22.4541C121.193 22.4541 121.305 22.1943 121.527 21.6748C121.861 21.0068 122.208 20.277 122.566 19.4854C122.938 18.6813 123.241 18.0443 123.476 17.5742C123.896 16.7331 124.106 16.3125 124.106 16.3125C124.106 16.3125 124.311 16.4115 124.719 16.6094C125.139 16.8073 125.35 16.9062 125.35 16.9062C125.35 16.9062 125.152 17.3083 124.756 18.1123C124.546 18.5205 124.341 18.9473 124.144 19.3926C123.946 19.8255 123.34 21.1182 122.325 23.2705C122.041 23.8766 121.898 24.1797 121.898 24.1797C121.898 24.1797 121.781 23.889 121.546 23.3076ZM122.678 24.1797C122.158 24.1797 121.898 24.1797 121.898 24.1797C121.898 24.1797 122.041 23.8766 122.325 23.2705C123.34 21.1182 123.946 19.8255 124.144 19.3926C124.341 18.9473 124.546 18.5205 124.756 18.1123C125.152 17.3083 125.35 16.9062 125.35 16.9062C125.35 16.9062 125.554 17.0052 125.962 17.2031C126.382 17.3887 126.593 17.4814 126.593 17.4814C126.593 17.4814 126.389 17.9144 125.98 18.7803C125.869 19.0277 125.783 19.2194 125.721 19.3555C125.671 19.4915 125.387 20.0977 124.867 21.1738C123.927 23.1777 123.457 24.1797 123.457 24.1797C123.457 24.1797 123.197 24.1797 122.678 24.1797ZM127.094 14.7168C126.698 14.5312 126.5 14.4385 126.5 14.4385C126.5 14.4385 126.809 13.8014 127.428 12.5273C127.601 12.1562 127.978 11.3708 128.56 10.1709C129.153 8.97103 129.599 8.05566 129.896 7.4248C130.205 6.78158 130.359 6.45996 130.359 6.45996C130.359 6.45996 130.359 6.92383 130.359 7.85156C130.359 8.82878 130.359 9.31738 130.359 9.31738C130.359 9.31738 130.217 9.65755 129.933 10.3379C129.821 10.5729 129.599 11.0368 129.265 11.7295C128.943 12.4222 128.727 12.8923 128.615 13.1396C128.034 14.389 127.743 15.0137 127.743 15.0137C127.743 15.0137 127.527 14.9147 127.094 14.7168ZM131.139 12.8984C130.619 12.8984 130.359 12.8984 130.359 12.8984C130.359 12.8984 130.359 12.4655 130.359 11.5996C130.359 11.179 130.359 10.6966 130.359 10.1523C130.359 9.5957 130.359 8.99577 130.359 8.35254C130.359 7.09082 130.359 6.45996 130.359 6.45996C130.359 6.45996 130.613 5.93424 131.12 4.88281C131.627 3.83138 131.881 3.30566 131.881 3.30566C131.881 3.30566 131.881 3.89323 131.881 5.06836C131.881 5.89714 131.881 6.92383 131.881 8.14844C131.881 9.36068 131.881 10.5111 131.881 11.5996C131.881 12.4655 131.881 12.8984 131.881 12.8984C131.881 12.8984 131.633 12.8984 131.139 12.8984ZM120.711 27C120.365 27 120.191 27 120.191 27C120.191 27 120.086 26.7588 119.876 26.2764C119.641 25.7692 119.523 25.5156 119.523 25.5156C119.523 25.5156 119.796 25.5156 120.34 25.5156C120.909 25.5156 121.193 25.5156 121.193 25.5156C121.193 25.5156 121.193 25.7692 121.193 26.2764C121.193 26.7588 121.193 27 121.193 27C121.193 27 121.033 27 120.711 27ZM120.34 25.5156C119.796 25.5156 119.523 25.5156 119.523 25.5156C119.523 25.5156 119.424 25.293 119.227 24.8477C119.016 24.4023 118.911 24.1797 118.911 24.1797C118.911 24.1797 119.177 24.1797 119.709 24.1797C120.229 24.1797 120.488 24.1797 120.488 24.1797C120.488 24.1797 120.6 24.39 120.822 24.8105C121.07 25.2806 121.193 25.5156 121.193 25.5156C121.193 25.5156 120.909 25.5156 120.34 25.5156ZM121.676 27C121.354 27 121.193 27 121.193 27C121.193 27 121.193 26.7588 121.193 26.2764C121.193 25.7692 121.193 25.5156 121.193 25.5156C121.193 25.5156 121.478 25.5156 122.047 25.5156C122.579 25.5156 122.845 25.5156 122.845 25.5156C122.845 25.5156 122.733 25.7692 122.511 26.2764C122.3 26.7588 122.195 27 122.195 27C122.195 27 122.022 27 121.676 27ZM122.047 25.5156C121.478 25.5156 121.193 25.5156 121.193 25.5156C121.193 25.5156 121.317 25.2806 121.564 24.8105C121.787 24.39 121.898 24.1797 121.898 24.1797C121.898 24.1797 122.158 24.1797 122.678 24.1797C123.197 24.1797 123.457 24.1797 123.457 24.1797C123.457 24.1797 123.352 24.4023 123.142 24.8477C122.944 25.293 122.845 25.5156 122.845 25.5156C122.845 25.5156 122.579 25.5156 122.047 25.5156ZM121.193 25.5156C120.723 24.625 120.488 24.1797 120.488 24.1797C120.488 24.1797 120.606 23.889 120.841 23.3076C121.076 22.7386 121.193 22.4541 121.193 22.4541C121.193 22.4541 121.311 22.7386 121.546 23.3076C121.781 23.889 121.898 24.1797 121.898 24.1797C121.898 24.1797 121.663 24.625 121.193 25.5156ZM109.745 3.02734C109.238 3.02734 108.984 3.02734 108.984 3.02734C108.984 3.02734 108.984 2.79232 108.984 2.32227C108.984 1.85221 108.984 1.61719 108.984 1.61719C108.984 1.61719 109.238 1.61719 109.745 1.61719C110.252 1.61719 110.506 1.61719 110.506 1.61719C110.506 1.61719 110.506 1.85221 110.506 2.32227C110.506 2.79232 110.506 3.02734 110.506 3.02734C110.506 3.02734 110.252 3.02734 109.745 3.02734ZM132.642 3.30566C132.134 3.30566 131.881 3.30566 131.881 3.30566C131.881 3.30566 131.881 2.97786 131.881 2.32227C131.881 1.85221 131.881 1.61719 131.881 1.61719C131.881 1.61719 132.134 1.61719 132.642 1.61719C133.149 1.61719 133.402 1.61719 133.402 1.61719C133.402 1.61719 133.402 1.85221 133.402 2.32227C133.402 2.97786 133.402 3.30566 133.402 3.30566C133.402 3.30566 133.149 3.30566 132.642 3.30566ZM109.745 27C109.238 27 108.984 27 108.984 27C108.984 27 108.984 26.765 108.984 26.2949C108.984 25.8249 108.984 25.5898 108.984 25.5898C108.984 25.5898 109.238 25.5898 109.745 25.5898C110.252 25.5898 110.506 25.5898 110.506 25.5898C110.506 25.5898 110.506 25.8249 110.506 26.2949C110.506 26.765 110.506 27 110.506 27C110.506 27 110.252 27 109.745 27ZM109.745 25.5898C109.238 25.5898 108.984 25.5898 108.984 25.5898C108.984 25.5898 108.984 25.3548 108.984 24.8848C108.984 24.4147 108.984 24.1797 108.984 24.1797C108.984 24.1797 109.238 24.1797 109.745 24.1797C110.252 24.1797 110.506 24.1797 110.506 24.1797C110.506 24.1797 110.506 24.4147 110.506 24.8848C110.506 25.3548 110.506 25.5898 110.506 25.5898C110.506 25.5898 110.252 25.5898 109.745 25.5898ZM111.267 27C110.759 27 110.506 27 110.506 27C110.506 27 110.506 26.765 110.506 26.2949C110.506 25.8249 110.506 25.5898 110.506 25.5898C110.506 25.5898 110.759 25.5898 111.267 25.5898C111.774 25.5898 112.027 25.5898 112.027 25.5898C112.027 25.5898 112.027 25.8249 112.027 26.2949C112.027 26.765 112.027 27 112.027 27C112.027 27 111.774 27 111.267 27ZM111.267 25.5898C110.759 25.5898 110.506 25.5898 110.506 25.5898C110.506 25.5898 110.506 25.3548 110.506 24.8848C110.506 24.4147 110.506 24.1797 110.506 24.1797C110.506 24.1797 110.759 24.1797 111.267 24.1797C111.774 24.1797 112.027 24.1797 112.027 24.1797C112.027 24.1797 112.027 24.4147 112.027 24.8848C112.027 25.3548 112.027 25.5898 112.027 25.5898C112.027 25.5898 111.774 25.5898 111.267 25.5898ZM109.745 15.7188C109.238 15.7188 108.984 15.7188 108.984 15.7188C108.984 15.7188 108.984 15.4837 108.984 15.0137C108.984 14.5436 108.984 14.3086 108.984 14.3086C108.984 14.3086 109.238 14.3086 109.745 14.3086C110.252 14.3086 110.506 14.3086 110.506 14.3086C110.506 14.3086 110.506 14.5436 110.506 15.0137C110.506 15.4837 110.506 15.7188 110.506 15.7188C110.506 15.7188 110.252 15.7188 109.745 15.7188ZM109.745 14.3086C109.238 14.3086 108.984 14.3086 108.984 14.3086C108.984 14.3086 108.984 14.0736 108.984 13.6035C108.984 13.1335 108.984 12.8984 108.984 12.8984C108.984 12.8984 109.238 12.8984 109.745 12.8984C110.252 12.8984 110.506 12.8984 110.506 12.8984C110.506 12.8984 110.506 13.1335 110.506 13.6035C110.506 14.0736 110.506 14.3086 110.506 14.3086C110.506 14.3086 110.252 14.3086 109.745 14.3086ZM111.267 15.7188C110.759 15.7188 110.506 15.7188 110.506 15.7188C110.506 15.7188 110.506 15.4837 110.506 15.0137C110.506 14.5436 110.506 14.3086 110.506 14.3086C110.506 14.3086 110.759 14.3086 111.267 14.3086C111.774 14.3086 112.027 14.3086 112.027 14.3086C112.027 14.3086 112.027 14.5436 112.027 15.0137C112.027 15.4837 112.027 15.7188 112.027 15.7188C112.027 15.7188 111.774 15.7188 111.267 15.7188ZM111.267 14.3086C110.759 14.3086 110.506 14.3086 110.506 14.3086C110.506 14.3086 110.506 14.0736 110.506 13.6035C110.506 13.1335 110.506 12.8984 110.506 12.8984C110.506 12.8984 110.759 12.8984 111.267 12.8984C111.774 12.8984 112.027 12.8984 112.027 12.8984C112.027 12.8984 112.027 13.1335 112.027 13.6035C112.027 14.0736 112.027 14.3086 112.027 14.3086C112.027 14.3086 111.774 14.3086 111.267 14.3086ZM109.745 24.1797C109.238 24.1797 108.984 24.1797 108.984 24.1797C108.984 24.1797 108.984 23.9447 108.984 23.4746C108.984 23.0046 108.984 22.6582 108.984 22.4355C108.984 22.2005 108.984 21.3717 108.984 19.9492C108.984 18.5762 108.984 17.766 108.984 17.5186C108.984 17.2588 108.984 16.8939 108.984 16.4238C108.984 15.9538 108.984 15.7188 108.984 15.7188C108.984 15.7188 109.238 15.7188 109.745 15.7188C110.252 15.7188 110.506 15.7188 110.506 15.7188C110.506 15.7188 110.506 15.9538 110.506 16.4238C110.506 16.8939 110.506 17.2588 110.506 17.5186C110.506 17.7783 110.506 18.5885 110.506 19.9492C110.506 21.3965 110.506 22.2314 110.506 22.4541C110.506 22.6644 110.506 23.0046 110.506 23.4746C110.506 23.9447 110.506 24.1797 110.506 24.1797C110.506 24.1797 110.252 24.1797 109.745 24.1797ZM111.267 24.1797C110.759 24.1797 110.506 24.1797 110.506 24.1797C110.506 24.1797 110.506 23.9447 110.506 23.4746C110.506 23.0046 110.506 22.6582 110.506 22.4355C110.506 22.2005 110.506 21.3717 110.506 19.9492C110.506 18.5762 110.506 17.766 110.506 17.5186C110.506 17.2588 110.506 16.8939 110.506 16.4238C110.506 15.9538 110.506 15.7188 110.506 15.7188C110.506 15.7188 110.759 15.7188 111.267 15.7188C111.774 15.7188 112.027 15.7188 112.027 15.7188C112.027 15.7188 112.027 15.9538 112.027 16.4238C112.027 16.8939 112.027 17.2588 112.027 17.5186C112.027 17.7783 112.027 18.5885 112.027 19.9492C112.027 21.3965 112.027 22.2314 112.027 22.4541C112.027 22.6644 112.027 23.0046 112.027 23.4746C112.027 23.9447 112.027 24.1797 112.027 24.1797C112.027 24.1797 111.774 24.1797 111.267 24.1797ZM131.12 27C130.613 27 130.359 27 130.359 27C130.359 27 130.359 26.765 130.359 26.2949C130.359 25.8249 130.359 25.5898 130.359 25.5898C130.359 25.5898 130.613 25.5898 131.12 25.5898C131.627 25.5898 131.881 25.5898 131.881 25.5898C131.881 25.5898 131.881 25.8249 131.881 26.2949C131.881 26.765 131.881 27 131.881 27C131.881 27 131.627 27 131.12 27ZM131.12 25.5898C130.613 25.5898 130.359 25.5898 130.359 25.5898C130.359 25.5898 130.359 25.3548 130.359 24.8848C130.359 24.4147 130.359 24.1797 130.359 24.1797C130.359 24.1797 130.613 24.1797 131.12 24.1797C131.627 24.1797 131.881 24.1797 131.881 24.1797C131.881 24.1797 131.881 24.4147 131.881 24.8848C131.881 25.3548 131.881 25.5898 131.881 25.5898C131.881 25.5898 131.627 25.5898 131.12 25.5898ZM132.642 27C132.134 27 131.881 27 131.881 27C131.881 27 131.881 26.765 131.881 26.2949C131.881 25.8249 131.881 25.5898 131.881 25.5898C131.881 25.5898 132.134 25.5898 132.642 25.5898C133.149 25.5898 133.402 25.5898 133.402 25.5898C133.402 25.5898 133.402 25.8249 133.402 26.2949C133.402 26.765 133.402 27 133.402 27C133.402 27 133.149 27 132.642 27ZM132.642 25.5898C132.134 25.5898 131.881 25.5898 131.881 25.5898C131.881 25.5898 131.881 25.3548 131.881 24.8848C131.881 24.4147 131.881 24.1797 131.881 24.1797C131.881 24.1797 132.134 24.1797 132.642 24.1797C133.149 24.1797 133.402 24.1797 133.402 24.1797C133.402 24.1797 133.402 24.4147 133.402 24.8848C133.402 25.3548 133.402 25.5898 133.402 25.5898C133.402 25.5898 133.149 25.5898 132.642 25.5898ZM131.12 15.7188C130.613 15.7188 130.359 15.7188 130.359 15.7188C130.359 15.7188 130.359 15.4837 130.359 15.0137C130.359 14.5436 130.359 14.3086 130.359 14.3086C130.359 14.3086 130.613 14.3086 131.12 14.3086C131.627 14.3086 131.881 14.3086 131.881 14.3086C131.881 14.3086 131.881 14.5436 131.881 15.0137C131.881 15.4837 131.881 15.7188 131.881 15.7188C131.881 15.7188 131.627 15.7188 131.12 15.7188ZM131.12 14.3086C130.613 14.3086 130.359 14.3086 130.359 14.3086C130.359 14.3086 130.359 14.0736 130.359 13.6035C130.359 13.1335 130.359 12.8984 130.359 12.8984C130.359 12.8984 130.613 12.8984 131.12 12.8984C131.627 12.8984 131.881 12.8984 131.881 12.8984C131.881 12.8984 131.881 13.1335 131.881 13.6035C131.881 14.0736 131.881 14.3086 131.881 14.3086C131.881 14.3086 131.627 14.3086 131.12 14.3086ZM132.642 15.7188C132.134 15.7188 131.881 15.7188 131.881 15.7188C131.881 15.7188 131.881 15.4837 131.881 15.0137C131.881 14.5436 131.881 14.3086 131.881 14.3086C131.881 14.3086 132.134 14.3086 132.642 14.3086C133.149 14.3086 133.402 14.3086 133.402 14.3086C133.402 14.3086 133.402 14.5436 133.402 15.0137C133.402 15.4837 133.402 15.7188 133.402 15.7188C133.402 15.7188 133.149 15.7188 132.642 15.7188ZM132.642 14.3086C132.134 14.3086 131.881 14.3086 131.881 14.3086C131.881 14.3086 131.881 14.0736 131.881 13.6035C131.881 13.1335 131.881 12.8984 131.881 12.8984C131.881 12.8984 132.134 12.8984 132.642 12.8984C133.149 12.8984 133.402 12.8984 133.402 12.8984C133.402 12.8984 133.402 13.1335 133.402 13.6035C133.402 14.0736 133.402 14.3086 133.402 14.3086C133.402 14.3086 133.149 14.3086 132.642 14.3086ZM131.12 24.1797C130.613 24.1797 130.359 24.1797 130.359 24.1797C130.359 24.1797 130.359 23.9447 130.359 23.4746C130.359 23.0046 130.359 22.6582 130.359 22.4355C130.359 22.2005 130.359 21.3717 130.359 19.9492C130.359 18.5762 130.359 17.766 130.359 17.5186C130.359 17.2588 130.359 16.8939 130.359 16.4238C130.359 15.9538 130.359 15.7188 130.359 15.7188C130.359 15.7188 130.613 15.7188 131.12 15.7188C131.627 15.7188 131.881 15.7188 131.881 15.7188C131.881 15.7188 131.881 15.9538 131.881 16.4238C131.881 16.8939 131.881 17.2588 131.881 17.5186C131.881 17.7783 131.881 18.5885 131.881 19.9492C131.881 21.3965 131.881 22.2314 131.881 22.4541C131.881 22.6644 131.881 23.0046 131.881 23.4746C131.881 23.9447 131.881 24.1797 131.881 24.1797C131.881 24.1797 131.627 24.1797 131.12 24.1797ZM132.642 24.1797C132.134 24.1797 131.881 24.1797 131.881 24.1797C131.881 24.1797 131.881 23.9447 131.881 23.4746C131.881 23.0046 131.881 22.6582 131.881 22.4355C131.881 22.2005 131.881 21.3717 131.881 19.9492C131.881 18.5762 131.881 17.766 131.881 17.5186C131.881 17.2588 131.881 16.8939 131.881 16.4238C131.881 15.9538 131.881 15.7188 131.881 15.7188C131.881 15.7188 132.134 15.7188 132.642 15.7188C133.149 15.7188 133.402 15.7188 133.402 15.7188C133.402 15.7188 133.402 15.9538 133.402 16.4238C133.402 16.8939 133.402 17.2588 133.402 17.5186C133.402 17.7783 133.402 18.5885 133.402 19.9492C133.402 21.3965 133.402 22.2314 133.402 22.4541C133.402 22.6644 133.402 23.0046 133.402 23.4746C133.402 23.9447 133.402 24.1797 133.402 24.1797C133.402 24.1797 133.149 24.1797 132.642 24.1797ZM116.388 17.2031C115.955 17.4134 115.738 17.5186 115.738 17.5186C115.738 17.5186 115.639 17.3083 115.441 16.8877C115.243 16.4795 115.145 16.2754 115.145 16.2754C115.145 16.2754 115.367 16.1702 115.812 15.96C116.245 15.762 116.462 15.6631 116.462 15.6631C116.462 15.6631 116.561 15.8672 116.759 16.2754C116.944 16.696 117.037 16.9062 117.037 16.9062C117.037 16.9062 116.821 17.0052 116.388 17.2031ZM115.812 15.96C115.367 16.1702 115.145 16.2754 115.145 16.2754C115.145 16.2754 115.052 16.0651 114.866 15.6445C114.668 15.2363 114.569 15.0322 114.569 15.0322C114.569 15.0322 114.792 14.9271 115.237 14.7168C115.67 14.5189 115.887 14.4199 115.887 14.4199C115.887 14.4199 115.979 14.624 116.165 15.0322C116.363 15.4528 116.462 15.6631 116.462 15.6631C116.462 15.6631 116.245 15.762 115.812 15.96ZM117.705 16.5908C117.26 16.8011 117.037 16.9062 117.037 16.9062C117.037 16.9062 116.944 16.696 116.759 16.2754C116.561 15.8672 116.462 15.6631 116.462 15.6631C116.462 15.6631 116.678 15.5579 117.111 15.3477C117.557 15.1497 117.779 15.0508 117.779 15.0508C117.779 15.0508 117.872 15.2549 118.058 15.6631C118.256 16.0837 118.354 16.2939 118.354 16.2939C118.354 16.2939 118.138 16.3929 117.705 16.5908ZM117.111 15.3477C116.678 15.5579 116.462 15.6631 116.462 15.6631C116.462 15.6631 116.363 15.4528 116.165 15.0322C115.979 14.624 115.887 14.4199 115.887 14.4199C115.887 14.4199 116.103 14.3148 116.536 14.1045C116.981 13.9066 117.204 13.8076 117.204 13.8076C117.204 13.8076 117.297 14.0117 117.482 14.4199C117.68 14.8405 117.779 15.0508 117.779 15.0508C117.779 15.0508 117.557 15.1497 117.111 15.3477ZM124.719 16.6279C124.298 16.4424 124.088 16.3496 124.088 16.3496C124.088 16.3496 124.187 16.1393 124.385 15.7188C124.583 15.2982 124.682 15.0879 124.682 15.0879C124.682 15.0879 124.886 15.1868 125.294 15.3848C125.715 15.5827 125.925 15.6816 125.925 15.6816C125.925 15.6816 125.826 15.8857 125.628 16.2939C125.43 16.7145 125.331 16.9248 125.331 16.9248C125.331 16.9248 125.127 16.8258 124.719 16.6279ZM125.294 15.3848C124.886 15.1868 124.682 15.0879 124.682 15.0879C124.682 15.0879 124.774 14.8838 124.96 14.4756C125.158 14.055 125.257 13.8447 125.257 13.8447C125.257 13.8447 125.461 13.9437 125.869 14.1416C126.29 14.3395 126.5 14.4385 126.5 14.4385C126.5 14.4385 126.401 14.6426 126.203 15.0508C126.018 15.4714 125.925 15.6816 125.925 15.6816C125.925 15.6816 125.715 15.5827 125.294 15.3848ZM125.962 17.2031C125.541 17.0176 125.331 16.9248 125.331 16.9248C125.331 16.9248 125.43 16.7145 125.628 16.2939C125.826 15.8857 125.925 15.6816 125.925 15.6816C125.925 15.6816 126.129 15.7744 126.537 15.96C126.958 16.1579 127.168 16.2568 127.168 16.2568C127.168 16.2568 127.069 16.4671 126.871 16.8877C126.673 17.2959 126.574 17.5 126.574 17.5C126.574 17.5 126.37 17.401 125.962 17.2031ZM126.537 15.96C126.129 15.7744 125.925 15.6816 125.925 15.6816C125.925 15.6816 126.018 15.4714 126.203 15.0508C126.401 14.6426 126.5 14.4385 126.5 14.4385C126.5 14.4385 126.704 14.5312 127.112 14.7168C127.533 14.9147 127.743 15.0137 127.743 15.0137C127.743 15.0137 127.644 15.2178 127.446 15.626C127.261 16.0465 127.168 16.2568 127.168 16.2568C127.168 16.2568 126.958 16.1579 126.537 15.96Z" fill="white"/>
</g>
<defs>
<filter id="filter0_d" x="0.521484" y="0.949219" width="136.881" height="34.5889" filterUnits="userSpaceOnUse" color-interpolation-filters="sRGB">
<feFlood flood-opacity="0" result="BackgroundImageFix"/>
<feColorMatrix in="SourceAlpha" type="matrix" values="0 0 0 0 0 0 0 0 0 0 0 0 0 0 0 0 0 0 127 0"/>
<feOffset dy="4"/>
<feGaussianBlur stdDeviation="2"/>
<feColorMatrix type="matrix" values="0 0 0 0 0 0 0 0 0 0 0 0 0 0 0 0 0 0 0.25 0"/>
<feBlend mode="normal" in2="BackgroundImageFix" result="effect1_dropShadow"/>
<feBlend mode="normal" in="SourceGraphic" in2="effect1_dropShadow" result="shape"/>
</filter>
</defs>
</svg>
