<svg width="134" height="32" viewBox="0 0 134 32" fill="none" xmlns="http://www.w3.org/2000/svg">
<path d="M8.40918 18.3457C8.40918 19.2363 8.50195 20.1331 8.6875 21.0361C8.88542 21.9268 9.20703 22.7308 9.65234 23.4482C10.0977 24.1657 10.6852 24.7471 11.415 25.1924C12.1449 25.6377 13.0479 25.8604 14.124 25.8604C14.9528 25.8109 15.6764 25.6439 16.2949 25.3594C16.9258 25.0625 17.4639 24.6852 17.9092 24.2275C18.3669 23.7575 18.7441 23.2256 19.041 22.6318C19.3379 22.0257 19.5729 21.3949 19.7461 20.7393C19.9193 20.0713 20.0368 19.391 20.0986 18.6982C20.1729 18.0055 20.21 17.3376 20.21 16.6943C20.21 15.8161 20.0924 14.9688 19.8574 14.1523C19.6224 13.3236 19.2699 12.5938 18.7998 11.9629C18.3298 11.332 17.7422 10.8249 17.0371 10.4414C16.3444 10.0579 15.5342 9.86621 14.6064 9.86621C13.8766 9.86621 13.2148 10.0023 12.6211 10.2744C12.0397 10.5465 11.5202 10.9115 11.0625 11.3691C10.6048 11.8145 10.209 12.334 9.875 12.9277C9.55339 13.5091 9.28125 14.1152 9.05859 14.7461C8.84831 15.3646 8.6875 15.9893 8.57617 16.6201C8.47721 17.2386 8.42155 17.8138 8.40918 18.3457ZM12.0273 31.9648C10.1719 31.9648 8.51432 31.6185 7.05469 30.9258C5.59505 30.2331 4.35807 29.2992 3.34375 28.124C2.3418 26.9365 1.56868 25.5697 1.02441 24.0234C0.492513 22.4648 0.226562 20.8197 0.226562 19.0879C0.226562 17.1458 0.498698 15.3584 1.04297 13.7256C1.59961 12.0804 2.37272 10.627 3.3623 9.36523C4.35189 8.09115 5.52702 7.02116 6.8877 6.15527C8.26074 5.27702 9.76367 4.6276 11.3965 4.20703C11.5449 4.20703 11.6562 4.08952 11.7305 3.85449C11.8171 3.61947 11.8913 3.3597 11.9531 3.0752C12.015 2.79069 12.0892 2.53092 12.1758 2.2959C12.2624 2.06087 12.3861 1.94336 12.5469 1.94336C14.9466 2.19076 17.1051 2.61751 19.0225 3.22363C20.9398 3.81738 22.5664 4.6709 23.9023 5.78418C25.2383 6.89746 26.2588 8.30762 26.9639 10.0146C27.6813 11.7093 28.04 13.7812 28.04 16.2305C28.04 17.8014 27.8483 19.2796 27.4648 20.665C27.0814 22.0505 26.5433 23.3307 25.8506 24.5059C25.1579 25.6686 24.3229 26.7139 23.3457 27.6416C22.3809 28.557 21.3047 29.3363 20.1172 29.9795C18.9297 30.6227 17.6494 31.1113 16.2764 31.4453C14.9157 31.7917 13.4993 31.9648 12.0273 31.9648ZM45.1289 15.8965C44.8691 15.8717 44.5785 15.847 44.2568 15.8223C43.9352 15.7852 43.5951 15.7666 43.2363 15.7666C42.6921 15.7666 42.1354 15.8161 41.5664 15.915C41.0098 16.0016 40.4902 16.181 40.0078 16.4531C39.5254 16.7253 39.111 17.1025 38.7646 17.585C38.4183 18.055 38.1956 18.6673 38.0967 19.4219C38.0101 20.3372 37.9359 21.0918 37.874 21.6855C37.8245 22.2669 37.7874 22.7493 37.7627 23.1328C37.738 23.5039 37.7132 23.807 37.6885 24.042C37.6761 24.2646 37.6637 24.4749 37.6514 24.6729C37.6514 24.7223 37.639 24.8584 37.6143 25.0811C37.6019 25.3037 37.5771 25.5635 37.54 25.8604C37.5029 26.1572 37.4658 26.4788 37.4287 26.8252C37.404 27.1715 37.373 27.4932 37.3359 27.79C37.2988 28.0869 37.2679 28.3467 37.2432 28.5693C37.2308 28.792 37.2246 28.9281 37.2246 28.9775C37.2246 29.0765 37.2246 29.1631 37.2246 29.2373C37.237 29.2992 37.2432 29.361 37.2432 29.4229C37.2432 29.5218 37.1937 29.6084 37.0947 29.6826C37.0081 29.7445 36.804 29.8187 36.4824 29.9053L31.5654 31.668C31.4294 31.7174 31.25 31.7793 31.0273 31.8535C30.8047 31.9277 30.5882 31.9648 30.3779 31.9648C30.2048 31.9648 30.0501 31.9215 29.9141 31.835C29.7904 31.7484 29.7285 31.5999 29.7285 31.3896L31.3242 13.002C31.3613 12.5938 31.4046 12.3154 31.4541 12.167C31.516 12.0062 31.6582 11.901 31.8809 11.8516C33.0065 11.6289 34.1693 11.4062 35.3691 11.1836C36.569 10.9486 37.7318 10.6517 38.8574 10.293C38.9564 10.293 39.012 10.3115 39.0244 10.3486C39.0492 10.3734 39.0615 10.4167 39.0615 10.4785C39.0615 10.5033 39.0553 10.5404 39.043 10.5898C39.043 10.6393 39.0244 10.7507 38.9873 10.9238C38.9626 11.097 38.9193 11.363 38.8574 11.7217C38.8079 12.068 38.7337 12.5566 38.6348 13.1875C39.2038 12.7422 39.8285 12.334 40.5088 11.9629C41.2015 11.5918 41.8942 11.2764 42.5869 11.0166C43.2796 10.7445 43.9476 10.5342 44.5908 10.3857C45.234 10.2249 45.7969 10.1445 46.2793 10.1445L45.1289 15.8965ZM47.207 23.1328C47.3678 21.4382 47.5286 19.762 47.6895 18.1045C47.8503 16.4469 47.9925 14.7461 48.1162 13.002C48.141 12.5938 48.1781 12.3154 48.2275 12.167C48.2894 12.0062 48.4316 11.901 48.6543 11.8516C49.7057 11.6413 50.8066 11.4248 51.957 11.2021C53.1074 10.9671 54.2207 10.6702 55.2969 10.3115C55.334 10.2992 55.3896 10.293 55.4639 10.293C55.5999 10.293 55.668 10.3424 55.668 10.4414L53.998 28.5137C53.9609 28.9219 53.9176 29.2064 53.8682 29.3672C53.8187 29.5156 53.6826 29.6146 53.46 29.6641C52.4085 29.9857 51.3447 30.3444 50.2686 30.7402C49.1924 31.1361 48.0544 31.5381 46.8545 31.9463C46.8174 31.9587 46.7617 31.9648 46.6875 31.9648C46.5514 31.9648 46.4834 31.903 46.4834 31.7793C46.4834 31.7669 46.4958 31.5999 46.5205 31.2783C46.5452 30.9567 46.5762 30.5423 46.6133 30.0352C46.6628 29.528 46.7122 28.959 46.7617 28.3281C46.8112 27.6973 46.8607 27.0664 46.9102 26.4355C46.972 25.8047 47.0277 25.1986 47.0771 24.6172C47.1266 24.0358 47.1699 23.541 47.207 23.1328ZM48.5986 8.32617C48.6357 7.79427 48.6605 7.38607 48.6729 7.10156C48.6976 6.81706 48.7161 6.60677 48.7285 6.4707C48.7409 6.32227 48.7471 6.22949 48.7471 6.19238C48.7471 6.15527 48.7471 6.13053 48.7471 6.11816C48.7594 6.09342 48.7656 6.05632 48.7656 6.00684C48.778 5.94499 48.7904 5.82747 48.8027 5.6543C48.8151 5.46875 48.8337 5.2028 48.8584 4.85645C48.8831 4.51009 48.9202 4.03385 48.9697 3.42773C48.9945 3.01953 49.0316 2.74121 49.0811 2.59277C49.1429 2.43197 49.2852 2.32682 49.5078 2.27734C50.5592 2.06706 51.6602 1.85059 52.8105 1.62793C53.9609 1.3929 55.0742 1.09603 56.1504 0.737305C56.1875 0.724935 56.2432 0.71875 56.3174 0.71875C56.3545 0.792969 56.404 0.842448 56.4658 0.867188L56.5215 0.904297L56.1133 5.98828C56.0762 6.39648 56.0267 6.68099 55.9648 6.8418C55.9154 7.0026 55.7855 7.10156 55.5752 7.13867C54.5238 7.33659 53.46 7.55306 52.3838 7.78809C51.3076 8.02311 50.1696 8.25814 48.9697 8.49316C48.9326 8.50553 48.877 8.51172 48.8027 8.51172C48.6667 8.51172 48.5986 8.44987 48.5986 8.32617ZM57.709 21.9453C57.709 20.3249 58.0059 18.8096 58.5996 17.3994C59.2057 15.9769 60.0345 14.7399 61.0859 13.6885C62.1497 12.637 63.3991 11.8083 64.834 11.2021C66.2812 10.596 67.8522 10.293 69.5469 10.293C70.6973 10.293 71.6807 10.3857 72.4971 10.5713C73.3135 10.7568 73.9814 10.9671 74.501 11.2021C75.0205 11.4248 75.3978 11.6351 75.6328 11.833C75.8802 12.0186 76.0039 12.1175 76.0039 12.1299C76.0039 12.2041 75.973 12.4144 75.9111 12.7607C75.8617 13.0947 75.7998 13.4906 75.7256 13.9482C75.6637 14.3936 75.6019 14.8574 75.54 15.3398C75.4906 15.8099 75.4658 16.2181 75.4658 16.5645C75.4658 16.6263 75.4473 16.6943 75.4102 16.7686C75.373 16.8428 75.2741 16.8799 75.1133 16.8799C74.9648 16.8799 74.7484 16.8304 74.4639 16.7314C74.1794 16.6201 73.8268 16.5026 73.4062 16.3789C72.998 16.2552 72.5218 16.1439 71.9775 16.0449C71.4456 15.9336 70.8519 15.8779 70.1963 15.8779C69.3799 15.8779 68.6439 16.0264 67.9883 16.3232C67.3327 16.6077 66.7699 17.0098 66.2998 17.5293C65.8298 18.0365 65.4648 18.6426 65.2051 19.3477C64.9577 20.0527 64.834 20.8135 64.834 21.6299C64.834 22.4834 64.9639 23.2132 65.2236 23.8193C65.4958 24.4131 65.8545 24.9017 66.2998 25.2852C66.7451 25.6562 67.2585 25.9284 67.8398 26.1016C68.4212 26.2747 69.0335 26.3613 69.6768 26.3613C70.4189 26.3613 71.1673 26.2624 71.9219 26.0645C72.6764 25.8542 73.3877 25.5635 74.0557 25.1924C74.0804 25.18 74.1299 25.1738 74.2041 25.1738C74.266 25.1738 74.3092 25.2048 74.334 25.2666C74.3711 25.3285 74.3896 25.446 74.3896 25.6191C74.3896 26.015 74.3896 26.4974 74.3896 27.0664C74.3896 27.623 74.3835 28.1611 74.3711 28.6807C74.3711 29.1878 74.3649 29.6208 74.3525 29.9795C74.3402 30.3382 74.3278 30.5176 74.3154 30.5176C73.8701 30.8145 73.3877 31.0557 72.8682 31.2412C72.3486 31.4268 71.8105 31.5752 71.2539 31.6865C70.7096 31.7979 70.1592 31.8721 69.6025 31.9092C69.0459 31.9463 68.5078 31.9648 67.9883 31.9648C66.541 31.9648 65.1927 31.7236 63.9434 31.2412C62.694 30.7588 61.6055 30.0785 60.6777 29.2002C59.7624 28.3219 59.0387 27.2705 58.5068 26.0459C57.9749 24.8089 57.709 23.4421 57.709 21.9453ZM96.3584 27.2705C96.346 27.32 96.3398 27.3695 96.3398 27.4189C96.3398 27.4561 96.3398 27.4932 96.3398 27.5303C96.3398 27.8395 96.3893 28.0993 96.4883 28.3096C96.5872 28.5075 96.6924 28.6745 96.8037 28.8105C96.9274 28.9342 97.0387 29.0394 97.1377 29.126C97.2367 29.2002 97.2861 29.2682 97.2861 29.3301C97.2861 29.5033 97.1006 29.6641 96.7295 29.8125L91.7383 31.9463C91.7259 31.9587 91.6826 31.9648 91.6084 31.9648C91.5094 31.9648 91.4105 31.8783 91.3115 31.7051C91.2126 31.5319 91.1136 31.3092 91.0146 31.0371C90.9281 30.7773 90.8415 30.499 90.7549 30.2021C90.6807 29.8929 90.6126 29.6084 90.5508 29.3486C89.7715 30.2516 88.9303 30.9134 88.0273 31.334C87.1243 31.7546 86.2275 31.9648 85.3369 31.9648C84.2979 31.9648 83.2835 31.736 82.2939 31.2783C81.3044 30.8206 80.4261 30.1712 79.6592 29.3301C78.8923 28.4766 78.2738 27.4499 77.8037 26.25C77.346 25.0501 77.1172 23.7018 77.1172 22.2051C77.1172 20.4362 77.3708 18.8219 77.8779 17.3623C78.3975 15.9027 79.0964 14.6471 79.9746 13.5957C80.8529 12.5443 81.8734 11.734 83.0361 11.165C84.2113 10.5837 85.4544 10.293 86.7656 10.293C87.6934 10.293 88.5716 10.4847 89.4004 10.8682C90.2292 11.2393 91.0146 11.7217 91.7568 12.3154C91.8311 11.9443 91.8743 11.6475 91.8867 11.4248C91.8991 11.2021 91.9238 11.029 91.9609 10.9053C92.0104 10.7816 92.097 10.7012 92.2207 10.6641C92.3444 10.6146 92.5485 10.5775 92.833 10.5527C93.7236 10.429 94.6081 10.3177 95.4863 10.2188C96.377 10.1074 97.3047 10.027 98.2695 9.97754L96.3584 27.2705ZM90.8105 20.2754C90.9342 19.5703 91.0146 18.9085 91.0518 18.29C91.1012 17.6592 91.1383 17.084 91.1631 16.5645C90.9652 16.416 90.7487 16.2614 90.5137 16.1006C90.291 15.9398 90.0436 15.7913 89.7715 15.6553C89.5117 15.5068 89.2334 15.3893 88.9365 15.3027C88.652 15.2161 88.349 15.1729 88.0273 15.1729C87.3594 15.1729 86.7965 15.3893 86.3389 15.8223C85.8936 16.2552 85.5286 16.7871 85.2441 17.418C84.972 18.0488 84.7741 18.7168 84.6504 19.4219C84.5391 20.127 84.4834 20.7516 84.4834 21.2959C84.4834 23.2503 84.737 24.6852 85.2441 25.6006C85.7637 26.5036 86.4811 26.9551 87.3965 26.9551C87.7676 26.9551 88.182 26.8499 88.6396 26.6396C89.0973 26.4294 89.5612 26.1387 90.0312 25.7676L90.8105 20.2754ZM127.567 31.668C127.431 31.7051 127.252 31.7607 127.029 31.835C126.807 31.9215 126.59 31.9648 126.38 31.9648C126.207 31.9648 126.052 31.9215 125.916 31.835C125.792 31.7484 125.73 31.5999 125.73 31.3896V31.2783C125.817 30.3753 125.891 29.6455 125.953 29.0889C126.015 28.5199 126.064 28.0622 126.102 27.7158C126.139 27.3695 126.17 27.1097 126.194 26.9365C126.219 26.751 126.244 26.584 126.269 26.4355C126.293 26.2747 126.312 26.1016 126.324 25.916C126.349 25.7305 126.38 25.4707 126.417 25.1367C126.454 24.7904 126.497 24.3389 126.547 23.7822C126.609 23.2132 126.683 22.471 126.77 21.5557C126.819 21.0609 126.868 20.5723 126.918 20.0898C126.98 19.5951 127.011 19.1436 127.011 18.7354C127.011 18.2158 126.98 17.7458 126.918 17.3252C126.868 16.8923 126.77 16.5273 126.621 16.2305C126.485 15.9212 126.293 15.68 126.046 15.5068C125.799 15.3337 125.483 15.2471 125.1 15.2471C124.865 15.2471 124.555 15.2965 124.172 15.3955C123.801 15.4945 123.424 15.6738 123.04 15.9336C122.657 16.181 122.31 16.515 122.001 16.9355C121.692 17.3438 121.494 17.8633 121.407 18.4941V18.5684C121.259 19.9785 121.123 21.2031 120.999 22.2422C120.888 23.2689 120.789 24.1533 120.702 24.8955C120.616 25.6377 120.541 26.2562 120.479 26.751C120.43 27.2458 120.387 27.6663 120.35 28.0127C120.312 28.3467 120.282 28.625 120.257 28.8477C120.244 29.0703 120.238 29.2806 120.238 29.4785C120.238 29.5775 120.238 29.6641 120.238 29.7383C120.251 29.8001 120.257 29.8558 120.257 29.9053C120.257 30.0042 120.207 30.0908 120.108 30.165C120.022 30.2269 119.818 30.3073 119.496 30.4062L115.136 31.668C115 31.7051 114.82 31.7607 114.598 31.835C114.375 31.9215 114.159 31.9648 113.948 31.9648C113.775 31.9648 113.62 31.9215 113.484 31.835C113.361 31.7484 113.299 31.5999 113.299 31.3896V31.2783C113.385 30.3753 113.453 29.6455 113.503 29.0889C113.565 28.5199 113.614 28.0622 113.651 27.7158C113.701 27.3695 113.738 27.1097 113.763 26.9365C113.787 26.751 113.806 26.584 113.818 26.4355C113.843 26.2747 113.868 26.1016 113.893 25.916C113.917 25.7305 113.942 25.4707 113.967 25.1367C114.004 24.7904 114.047 24.3389 114.097 23.7822C114.159 23.2132 114.233 22.471 114.319 21.5557C114.369 21.0609 114.418 20.5723 114.468 20.0898C114.53 19.5951 114.561 19.1436 114.561 18.7354C114.561 18.2158 114.536 17.7458 114.486 17.3252C114.437 16.8923 114.344 16.5273 114.208 16.2305C114.084 15.9212 113.911 15.68 113.688 15.5068C113.466 15.3337 113.181 15.2471 112.835 15.2471C112.588 15.2471 112.247 15.3089 111.814 15.4326C111.394 15.5563 110.967 15.7604 110.534 16.0449C110.114 16.3294 109.736 16.7067 109.402 17.1768C109.081 17.6344 108.895 18.2035 108.846 18.8838C108.747 19.7992 108.666 20.5537 108.604 21.1475C108.543 21.7288 108.493 22.2113 108.456 22.5947C108.419 22.9658 108.388 23.2689 108.363 23.5039C108.351 23.7266 108.339 23.9368 108.326 24.1348C108.314 24.1842 108.295 24.3265 108.271 24.5615C108.246 24.7842 108.215 25.0563 108.178 25.3779C108.153 25.6872 108.122 26.0273 108.085 26.3984C108.06 26.7572 108.035 27.0973 108.011 27.4189C107.986 27.7282 107.961 28.0003 107.937 28.2354C107.924 28.458 107.918 28.5941 107.918 28.6436V28.9775C107.918 29.1012 107.912 29.2064 107.899 29.293C107.887 29.3796 107.85 29.46 107.788 29.5342C107.726 29.6084 107.633 29.6764 107.51 29.7383C107.398 29.8001 107.238 29.8682 107.027 29.9424L102.166 31.668C102.03 31.7174 101.851 31.7793 101.628 31.8535C101.405 31.9277 101.189 31.9648 100.979 31.9648C100.805 31.9648 100.651 31.9215 100.515 31.835C100.391 31.7484 100.329 31.5999 100.329 31.3896L101.999 12.4639C102.036 12.0557 102.079 11.7773 102.129 11.6289C102.191 11.4681 102.333 11.363 102.556 11.3135C103.681 11.0908 104.832 10.8682 106.007 10.6455C107.182 10.4105 108.332 10.1136 109.458 9.75488C109.557 9.75488 109.613 9.77344 109.625 9.81055C109.65 9.83529 109.662 9.87858 109.662 9.94043L109.421 12.6494C109.879 12.4144 110.392 12.1608 110.961 11.8887C111.53 11.6042 112.124 11.3444 112.742 11.1094C113.373 10.8743 114.01 10.6826 114.653 10.5342C115.309 10.3734 115.946 10.293 116.564 10.293C117.418 10.293 118.203 10.4909 118.921 10.8867C119.651 11.2702 120.251 11.9134 120.721 12.8164C121.277 12.4577 121.865 12.1237 122.483 11.8145C123.114 11.5052 123.751 11.2393 124.395 11.0166C125.05 10.7939 125.706 10.6208 126.361 10.4971C127.017 10.3734 127.654 10.3115 128.272 10.3115C129.052 10.3115 129.788 10.4229 130.48 10.6455C131.173 10.8682 131.773 11.2331 132.28 11.7402C132.8 12.2474 133.208 12.9092 133.505 13.7256C133.802 14.5296 133.95 15.513 133.95 16.6758C133.95 16.9727 133.944 17.2819 133.932 17.6035C133.919 17.9128 133.895 18.2344 133.857 18.5684L133.004 26.5098C132.942 27.0293 132.905 27.5117 132.893 27.957C132.88 28.39 132.874 28.8971 132.874 29.4785C132.874 29.5775 132.874 29.6641 132.874 29.7383C132.886 29.8001 132.893 29.8558 132.893 29.9053C132.893 30.0166 132.843 30.1032 132.744 30.165C132.658 30.2269 132.453 30.3073 132.132 30.4062L127.567 31.668Z" fill="white"/>
</svg>
