<svg width="119" height="30" viewBox="0 0 119 30" fill="none" xmlns="http://www.w3.org/2000/svg">
<path d="M16.52 26.4C15.0533 28.4 12.68 29.4 9.4 29.4C6.12 29.4 3.74667 28.4 2.28 26.4C0.813334 24.3733 0.0800003 21.2267 0.0800003 16.96V13.04C0.0800003 8.77333 0.813334 5.64 2.28 3.64C3.74667 1.61333 6.12 0.599998 9.4 0.599998C12.68 0.599998 15.0533 1.61333 16.52 3.64C17.9867 5.64 18.72 8.77333 18.72 13.04V16.96C18.72 21.2267 17.9867 24.3733 16.52 26.4ZM12.76 2.32C11.8267 1.97333 10.7067 1.8 9.4 1.8C8.09333 1.8 6.97333 1.97333 6.04 2.32C5.10667 2.64 4.26667 3.2 3.52 4C2.77333 4.8 2.21333 5.96 1.84 7.48C1.46667 8.97333 1.28 10.8267 1.28 13.04V16.96C1.28 19.1733 1.46667 21.04 1.84 22.56C2.21333 24.0533 2.77333 25.2 3.52 26C4.26667 26.8 5.10667 27.3733 6.04 27.72C6.97333 28.04 8.09333 28.2 9.4 28.2C10.7067 28.2 11.8267 28.04 12.76 27.72C13.6933 27.3733 14.5333 26.8 15.28 26C16.0267 25.2 16.5867 24.0533 16.96 22.56C17.3333 21.04 17.52 19.1733 17.52 16.96V13.04C17.52 10.8267 17.3333 8.97333 16.96 7.48C16.5867 5.96 16.0267 4.8 15.28 4C14.5333 3.2 13.6933 2.64 12.76 2.32ZM35.3647 17.36L40.8047 29H39.4847L33.8847 17C33.938 16.9733 34.1647 16.8667 34.5647 16.68C34.9914 16.4667 35.2847 16.32 35.4447 16.24C35.6047 16.1333 35.8714 15.96 36.2447 15.72C36.618 15.48 36.898 15.2533 37.0847 15.04C37.2714 14.8 37.4714 14.5333 37.6847 14.24C37.9247 13.92 38.098 13.5733 38.2047 13.2C38.3114 12.8 38.3647 12.3733 38.3647 11.92C38.3647 10.24 37.5647 9 35.9647 8.2C34.3647 7.4 32.378 7 30.0047 7H26.8047V29H25.6047V5.8H30.0047C33.1514 5.8 35.5247 6.34667 37.1247 7.44C38.7514 8.53333 39.5647 10.0267 39.5647 11.92C39.5647 13.1467 39.1514 14.24 38.3247 15.2C37.498 16.1333 36.5114 16.8533 35.3647 17.36ZM46.2297 5.8H47.4297V29H46.2297V5.8ZM56.1788 26.56C54.7388 24.6667 54.0188 21.6133 54.0188 17.4C54.0188 13.1867 54.7388 10.1333 56.1788 8.24C57.6188 6.34667 60.0054 5.4 63.3388 5.4C66.6721 5.4 69.0721 6.32 70.5388 8.16L69.6588 8.96C68.4854 7.38667 66.3788 6.6 63.3388 6.6C62.0054 6.6 60.8854 6.74667 59.9788 7.04C59.0721 7.30667 58.2321 7.82667 57.4588 8.6C56.7121 9.34667 56.1521 10.4533 55.7788 11.92C55.4054 13.36 55.2188 15.1867 55.2188 17.4C55.2188 19.6133 55.4054 21.4533 55.7788 22.92C56.1521 24.36 56.7121 25.4667 57.4588 26.24C58.2321 26.9867 59.0721 27.5067 59.9788 27.8C60.8854 28.0667 62.0054 28.2 63.3388 28.2C66.3788 28.2 68.4854 27.4133 69.6588 25.84L70.5388 26.64C69.0721 28.48 66.6721 29.4 63.3388 29.4C60.0054 29.4 57.6188 28.4533 56.1788 26.56ZM78.6231 27.8H91.6631L83.4631 8.48L74.7431 29H73.4631L83.4631 5.4L93.4631 29H78.6231V27.8ZM101.787 27.8H117.227V7.48L108.227 16.48L99.2266 7.48V29L98.0266 28.96V5.8H99.2266L108.227 14.8L117.227 5.8H118.427V29L101.787 28.96V27.8Z" fill="white"/>
</svg>
