<svg width="184" height="35" viewBox="0 0 184 35" fill="none" xmlns="http://www.w3.org/2000/svg">
<path d="M22.37 31.698C21.4833 32.458 20.242 33.0407 18.646 33.446C17.05 33.8767 14.998 34.092 12.49 34.092C10.0073 34.092 7.968 33.826 6.372 33.294C4.80133 32.7873 3.56 32.1033 2.648 31.242C1.76133 30.3807 1.14067 29.3927 0.786 28.278C0.456667 27.1633 0.292 26.0107 0.292 24.82V13.002C0.292 11.8367 0.456667 10.76 0.786 9.772C1.11533 8.75867 1.71067 7.89733 2.572 7.188L7.512 3.084C8.39867 2.324 9.62733 1.74133 11.198 1.336C12.794 0.905331 14.8587 0.689998 17.392 0.689998C19.8747 0.689998 21.9013 0.892665 23.472 1.298C25.068 1.70333 26.3093 2.27333 27.196 3.008C28.108 3.71733 28.7287 4.57867 29.058 5.592C29.3873 6.58 29.552 7.66933 29.552 8.86V21.818C29.552 22.9833 29.3873 24.06 29.058 25.048C28.7287 26.036 28.1333 26.8847 27.272 27.594L22.37 31.698ZM29.172 21.818V8.86C29.172 7.69467 28.9947 6.64333 28.64 5.706C28.3107 4.74333 27.7027 3.92 26.816 3.236C25.9547 2.552 24.7513 2.02 23.206 1.64C21.686 1.26 19.748 1.07 17.392 1.07C15.036 1.07 13.0853 1.26 11.54 1.64C9.99467 2.02 8.77867 2.552 7.892 3.236C7.03067 3.92 6.42267 4.74333 6.068 5.706C5.73867 6.64333 5.574 7.69467 5.574 8.86V21.818C5.574 22.9833 5.73867 24.0473 6.068 25.01C6.42267 25.9473 7.03067 26.758 7.892 27.442C8.77867 28.1007 9.99467 28.62 11.54 29C13.0853 29.38 15.036 29.57 17.392 29.57C19.748 29.57 21.686 29.38 23.206 29C24.7513 28.62 25.9547 28.1007 26.816 27.442C27.7027 26.758 28.3107 25.9473 28.64 25.01C28.9947 24.0473 29.172 22.9833 29.172 21.818ZM25.03 20.944C25.03 22.464 24.4853 23.7053 23.396 24.668C22.3067 25.6053 20.28 26.074 17.316 26.074C14.352 26.074 12.338 25.6053 11.274 24.668C10.21 23.7053 9.678 22.464 9.678 20.944V9.734C9.678 8.214 10.21 6.98533 11.274 6.048C12.338 5.08533 14.352 4.604 17.316 4.604C20.28 4.604 22.3067 5.08533 23.396 6.048C24.4853 6.98533 25.03 8.214 25.03 9.734V20.944ZM10.058 20.944C10.058 22.3627 10.5647 23.5153 11.578 24.402C12.5913 25.2633 14.504 25.694 17.316 25.694C20.128 25.694 22.0533 25.2633 23.092 24.402C24.1307 23.5153 24.65 22.3627 24.65 20.944V9.734C24.65 8.31533 24.1307 7.17533 23.092 6.314C22.0533 5.42733 20.128 4.984 17.316 4.984C14.504 4.984 12.5913 5.42733 11.578 6.314C10.5647 7.17533 10.058 8.31533 10.058 9.734V20.944ZM14.2 20.45V10.228C14.2 9.74667 14.39 9.34133 14.77 9.012C15.15 8.65733 16.024 8.48 17.392 8.48C18.76 8.48 19.634 8.65733 20.014 9.012C20.394 9.34133 20.584 9.74667 20.584 10.228V20.45C20.584 20.9567 20.394 21.3873 20.014 21.742C19.634 22.0713 18.76 22.236 17.392 22.236C16.024 22.236 15.15 22.0713 14.77 21.742C14.39 21.3873 14.2 20.9567 14.2 20.45ZM14.58 20.45C14.58 20.7033 14.6307 20.9313 14.732 21.134C14.8333 21.3113 15.0233 21.4633 15.302 21.59V14.37C15.302 14.1167 15.2513 13.9013 15.15 13.724C15.0487 13.5213 14.8587 13.3693 14.58 13.268V20.45ZM50.5627 5.44H42.2787V16.422H50.5627C52.1334 16.422 53.1847 16.042 53.7167 15.282C54.2487 14.522 54.5147 13.4453 54.5147 12.052V9.392C54.5147 8.22667 54.1854 7.27667 53.5267 6.542C52.8934 5.80733 51.9054 5.44 50.5627 5.44ZM46.3827 8.48H49.2327C49.8914 8.48 50.3347 8.65733 50.5627 9.012C50.7907 9.34133 50.9047 9.75933 50.9047 10.266V11.558C50.9047 12.0647 50.7907 12.4953 50.5627 12.85C50.3347 13.1793 49.8914 13.344 49.2327 13.344H46.3827V8.48ZM42.2787 25.58H41.8987V5.06H50.5627C52.0321 5.06 53.1214 5.478 53.8307 6.314C54.5401 7.12467 54.8947 8.15067 54.8947 9.392V12.014C54.8947 13.1793 54.7427 14.142 54.4387 14.902C54.1347 15.6367 53.5267 16.1433 52.6147 16.422H53.0327C54.5781 16.422 55.7307 16.7767 56.4907 17.486C57.2507 18.17 57.6307 19.1707 57.6307 20.488V25.58H57.2507V20.488C57.2507 19.2467 56.9087 18.322 56.2247 17.714C55.5407 17.0807 54.4767 16.764 53.0327 16.764H42.2787V25.58ZM45.0147 29C45.4961 29 45.8381 28.8987 46.0407 28.696C46.2687 28.468 46.3827 28.1133 46.3827 27.632V20.184H51.7027C52.2347 20.184 52.6021 20.3233 52.8047 20.602C53.0327 20.8553 53.1467 21.2607 53.1467 21.818V27.632C53.1467 28.1133 53.2481 28.468 53.4507 28.696C53.6787 28.8987 54.0334 29 54.5147 29H60.4047C60.8861 29 61.2281 28.8987 61.4307 28.696C61.6587 28.468 61.7727 28.1133 61.7727 27.632V19.576C61.7727 17.98 61.3421 16.7007 60.4807 15.738C59.6447 14.7753 58.5427 14.218 57.1747 14.066C57.9601 13.7367 58.5047 13.2047 58.8087 12.47C59.1381 11.71 59.3027 10.798 59.3027 9.734V7.986C59.3027 6.11133 58.7581 4.59133 57.6687 3.426C56.6047 2.23533 54.6541 1.64 51.8167 1.64H39.1627C38.6814 1.64 38.3267 1.754 38.0987 1.982C37.8961 2.18467 37.7947 2.52667 37.7947 3.008V27.632C37.7947 28.1133 37.8961 28.468 38.0987 28.696C38.3267 28.8987 38.6814 29 39.1627 29H45.0147ZM46.2307 29.038L41.2907 33.142C41.1894 33.2433 41.0247 33.332 40.7967 33.408C40.5941 33.484 40.3661 33.522 40.1127 33.522H34.2607C33.6527 33.522 33.2094 33.3827 32.9307 33.104C32.6521 32.8253 32.5127 32.382 32.5127 31.774V7.15C32.5127 6.82067 32.5507 6.542 32.6267 6.314C32.7281 6.086 32.8674 5.896 33.0447 5.744L37.9467 1.602C38.0734 1.50067 38.2381 1.42467 38.4407 1.374C38.6687 1.298 38.9094 1.26 39.1627 1.26H51.8167C54.8314 1.26 56.8961 1.89333 58.0107 3.16C59.1254 4.40133 59.6827 6.01 59.6827 7.986V9.734C59.6827 10.6713 59.5687 11.4947 59.3407 12.204C59.1127 12.888 58.7454 13.4453 58.2387 13.876H58.2007C59.3914 14.2053 60.3414 14.864 61.0507 15.852C61.7854 16.84 62.1527 18.0813 62.1527 19.576V27.632C62.1527 27.9613 62.1021 28.24 62.0007 28.468C61.9247 28.696 61.7981 28.886 61.6207 29.038L56.6807 33.142C56.5794 33.2433 56.4147 33.332 56.1867 33.408C55.9841 33.484 55.7561 33.522 55.5027 33.522H49.6127C49.0047 33.522 48.5614 33.3827 48.2827 33.104C48.0041 32.8253 47.8647 32.382 47.8647 31.774V25.96C47.8647 25.5547 47.7887 25.2507 47.6367 25.048C47.4847 24.82 47.2061 24.706 46.8007 24.706H46.7627V27.632C46.7627 27.9613 46.7121 28.24 46.6107 28.468C46.5347 28.696 46.4081 28.886 46.2307 29.038ZM81.8661 33.522H65.6781C65.0701 33.522 64.6268 33.3827 64.3481 33.104C64.0695 32.8253 63.9301 32.382 63.9301 31.774V27.252C63.9301 26.9227 63.9681 26.644 64.0441 26.416C64.1455 26.188 64.2848 25.998 64.4621 25.846L69.0601 21.97V13.496H65.6781C65.0701 13.496 64.6268 13.3567 64.3481 13.078C64.0695 12.7993 63.9301 12.356 63.9301 11.748V7.15C63.9301 6.82067 63.9681 6.542 64.0441 6.314C64.1455 6.086 64.2848 5.896 64.4621 5.744L69.3641 1.602C69.4908 1.50067 69.6555 1.42467 69.8581 1.374C70.0861 1.298 70.3268 1.26 70.5801 1.26H86.7681C87.3761 1.26 87.8195 1.39933 88.0981 1.678C88.3768 1.95667 88.5161 2.4 88.5161 3.008V7.606C88.5161 7.93533 88.4655 8.214 88.3641 8.442C88.2881 8.67 88.1615 8.86 87.9841 9.012L83.4621 12.812V21.362H86.7681C87.3761 21.362 87.8195 21.5013 88.0981 21.78C88.3768 22.0587 88.5161 22.502 88.5161 23.11V27.632C88.5161 27.9613 88.4655 28.24 88.3641 28.468C88.2881 28.696 88.1615 28.886 87.9841 29.038L83.0441 33.142C82.9428 33.2433 82.7781 33.332 82.5501 33.408C82.3475 33.484 82.1195 33.522 81.8661 33.522ZM70.5801 29H86.7681C87.2495 29 87.5915 28.8987 87.7941 28.696C88.0221 28.468 88.1361 28.1133 88.1361 27.632V23.11C88.1361 22.6287 88.0221 22.2867 87.7941 22.084C87.5915 21.856 87.2495 21.742 86.7681 21.742H83.0821V8.974H86.7681C87.2495 8.974 87.5915 8.87267 87.7941 8.67C88.0221 8.442 88.1361 8.08733 88.1361 7.606V3.008C88.1361 2.52667 88.0221 2.18467 87.7941 1.982C87.5915 1.754 87.2495 1.64 86.7681 1.64H70.5801C70.0988 1.64 69.7441 1.754 69.5161 1.982C69.3135 2.18467 69.2121 2.52667 69.2121 3.008V7.606C69.2121 8.08733 69.3135 8.442 69.5161 8.67C69.7441 8.87267 70.0988 8.974 70.5801 8.974H74.3421V21.742H70.5801C70.0988 21.742 69.7441 21.856 69.5161 22.084C69.3135 22.2867 69.2121 22.6287 69.2121 23.11V27.632C69.2121 28.1133 69.3135 28.468 69.5161 28.696C69.7441 28.8987 70.0988 29 70.5801 29ZM84.7161 25.58H72.6321V25.2H78.5221V5.44H72.6321V5.06H84.7161V5.44H78.9021V25.2H84.7161V25.58ZM109.913 33.522H100.641C97.3224 33.522 94.8651 32.6607 93.2691 30.938C91.6984 29.2153 90.9131 26.986 90.9131 24.25V13.572C90.9131 12.1787 91.1158 10.9753 91.5211 9.962C91.9264 8.92333 92.5218 8.062 93.3071 7.378L98.2471 3.236C99.0324 2.57733 100.033 2.08333 101.249 1.754C102.465 1.42467 103.896 1.26 105.543 1.26H114.815C115.423 1.26 115.866 1.39933 116.145 1.678C116.424 1.95667 116.563 2.4 116.563 3.008V7.606C116.563 7.93533 116.512 8.214 116.411 8.442C116.335 8.67 116.208 8.86 116.031 9.012L111.091 13.116C110.99 13.2173 110.825 13.306 110.597 13.382C110.394 13.458 110.166 13.496 109.913 13.496H105.239V19.918C105.239 20.45 105.404 20.83 105.733 21.058C106.062 21.2607 106.544 21.362 107.177 21.362H114.815C115.423 21.362 115.866 21.5013 116.145 21.78C116.424 22.0587 116.563 22.502 116.563 23.11V27.632C116.563 27.9613 116.512 28.24 116.411 28.468C116.335 28.696 116.208 28.886 116.031 29.038L111.091 33.142C110.99 33.2433 110.825 33.332 110.597 33.408C110.394 33.484 110.166 33.522 109.913 33.522ZM114.815 29C115.296 29 115.638 28.8987 115.841 28.696C116.069 28.468 116.183 28.1133 116.183 27.632V23.11C116.183 22.6287 116.069 22.2867 115.841 22.084C115.638 21.856 115.296 21.742 114.815 21.742H107.177C106.392 21.742 105.809 21.6027 105.429 21.324C105.049 21.02 104.859 20.5513 104.859 19.918V10.874C104.859 10.2407 105.049 9.772 105.429 9.468C105.809 9.13867 106.392 8.974 107.177 8.974H114.815C115.296 8.974 115.638 8.87267 115.841 8.67C116.069 8.442 116.183 8.08733 116.183 7.606V3.008C116.183 2.52667 116.069 2.18467 115.841 1.982C115.638 1.754 115.296 1.64 114.815 1.64H105.543C102.376 1.64 100.02 2.286 98.4751 3.578C96.9551 4.84467 96.1951 6.79533 96.1951 9.43V21.248C96.1951 23.8827 96.9551 25.8333 98.4751 27.1C100.02 28.3667 102.376 29 105.543 29H114.815ZM112.725 25.2V25.58H106.379C103.922 25.58 102.288 25.2 101.477 24.44C100.692 23.68 100.299 22.426 100.299 20.678V10.038C100.299 8.23933 100.704 6.96 101.515 6.2C102.326 5.44 103.947 5.06 106.379 5.06H112.725V5.44H106.379C104.15 5.44 102.642 5.79467 101.857 6.504C101.072 7.188 100.679 8.366 100.679 10.038V20.678C100.679 22.3247 101.059 23.49 101.819 24.174C102.579 24.858 104.099 25.2 106.379 25.2H112.725ZM128.098 17.486V18.664H142.918V17.486C142.918 16.802 142.854 16.1687 142.728 15.586C142.626 15.0033 142.487 14.4587 142.31 13.952L139.688 7.758C139.409 7.09933 139.118 6.55466 138.814 6.124C138.51 5.668 138.003 5.44 137.294 5.44H133.57C132.81 5.44 132.278 5.668 131.974 6.124C131.67 6.55466 131.391 7.08667 131.138 7.72L128.706 13.952C128.528 14.4587 128.376 15.0033 128.25 15.586C128.148 16.1687 128.098 16.802 128.098 17.486ZM134.178 9.62C134.279 9.392 134.38 9.22733 134.482 9.126C134.608 9.02467 134.748 8.974 134.9 8.974H135.85C136.002 8.974 136.128 9.02467 136.23 9.126C136.356 9.22733 136.47 9.392 136.572 9.62L138.358 15.396H132.392L134.178 9.62ZM142.918 25.58V19.044H128.098V25.58H127.718V17.486C127.718 16.7767 127.768 16.1307 127.87 15.548C127.996 14.94 128.161 14.3573 128.364 13.8L130.796 7.568C131.074 6.85867 131.391 6.26333 131.746 5.782C132.1 5.30067 132.708 5.06 133.57 5.06H137.294C138.13 5.06 138.712 5.30067 139.042 5.782C139.396 6.26333 139.726 6.87133 140.03 7.606L142.652 13.8C142.854 14.3573 143.006 14.94 143.108 15.548C143.234 16.1307 143.298 16.7767 143.298 17.486V25.58H142.918ZM132.012 27.632V22.312H138.738V27.632C138.738 28.1133 138.852 28.468 139.08 28.696C139.333 28.8987 139.713 29 140.22 29H145.958C146.439 29 146.781 28.8987 146.984 28.696C147.212 28.468 147.326 28.1133 147.326 27.632V17.6C147.326 16.84 147.199 15.966 146.946 14.978C146.718 13.99 146.35 12.8373 145.844 11.52L142.538 2.894C142.386 2.46333 142.145 2.14667 141.816 1.944C141.512 1.74133 141.119 1.64 140.638 1.64H130.416C129.909 1.64 129.491 1.74133 129.162 1.944C128.858 2.14667 128.63 2.46333 128.478 2.894L125.172 11.52C124.665 12.8373 124.285 13.99 124.032 14.978C123.804 15.966 123.69 16.84 123.69 17.6V27.632C123.69 28.1133 123.791 28.468 123.994 28.696C124.222 28.8987 124.576 29 125.058 29H130.644C131.125 29 131.467 28.8987 131.67 28.696C131.898 28.468 132.012 28.1133 132.012 27.632ZM126.92 33.142C126.818 33.2433 126.654 33.332 126.426 33.408C126.223 33.484 125.995 33.522 125.742 33.522H120.156C119.548 33.522 119.104 33.3827 118.826 33.104C118.547 32.8253 118.408 32.382 118.408 31.774V21.742C118.408 20.9567 118.522 20.07 118.75 19.082C119.003 18.0687 119.396 16.878 119.928 15.51L123.196 6.922C123.272 6.694 123.36 6.504 123.462 6.352C123.588 6.17467 123.715 6.02267 123.842 5.896L123.88 5.858L128.744 1.792C128.946 1.61467 129.187 1.488 129.466 1.412C129.744 1.31067 130.061 1.26 130.416 1.26H140.638C141.22 1.26 141.689 1.38667 142.044 1.64C142.424 1.868 142.702 2.23533 142.88 2.742L146.186 11.368C146.718 12.736 147.098 13.9267 147.326 14.94C147.579 15.928 147.706 16.8147 147.706 17.6V27.632C147.706 27.9613 147.655 28.24 147.554 28.468C147.478 28.696 147.351 28.886 147.174 29.038L142.234 33.142C142.132 33.2433 141.968 33.332 141.74 33.408C141.537 33.484 141.309 33.522 141.056 33.522H135.318C134.684 33.522 134.216 33.37 133.912 33.066C133.608 32.7873 133.456 32.3567 133.456 31.774V26.834H132.392V27.632C132.392 27.9613 132.341 28.24 132.24 28.468C132.164 28.696 132.037 28.886 131.86 29.038L126.92 33.142ZM169.179 14.37C169.635 14.37 169.964 14.2687 170.167 14.066C170.369 13.8633 170.686 13.4327 171.117 12.774L175.753 5.706C175.905 5.45267 176.069 5.288 176.247 5.212C176.449 5.11066 176.652 5.06 176.855 5.06H177.501C177.855 5.06 178.109 5.16133 178.261 5.364C178.438 5.54133 178.527 5.83267 178.527 6.238V25.58H178.147V6.238C178.147 6.03533 178.096 5.858 177.995 5.706C177.919 5.52867 177.754 5.44 177.501 5.44H176.931C176.753 5.44 176.601 5.46533 176.475 5.516C176.348 5.56666 176.209 5.71867 176.057 5.972L171.421 12.964C170.965 13.648 170.61 14.1167 170.357 14.37C170.129 14.6233 169.736 14.75 169.179 14.75C168.621 14.75 168.216 14.6233 167.963 14.37C167.735 14.1167 167.393 13.648 166.937 12.964L162.301 5.972C162.149 5.71867 161.997 5.56666 161.845 5.516C161.718 5.46533 161.566 5.44 161.389 5.44H160.819C160.565 5.44 160.401 5.52867 160.325 5.706C160.249 5.858 160.211 6.03533 160.211 6.238V25.58H159.831V6.238C159.831 5.83267 159.907 5.54133 160.059 5.364C160.236 5.16133 160.489 5.06 160.819 5.06H161.465C161.667 5.06 161.87 5.11066 162.073 5.212C162.275 5.288 162.453 5.45267 162.605 5.706L167.241 12.774C167.671 13.4327 167.988 13.8633 168.191 14.066C168.393 14.2687 168.723 14.37 169.179 14.37ZM162.833 29C163.314 29 163.656 28.8987 163.859 28.696C164.087 28.468 164.201 28.1133 164.201 27.632V14.256L166.443 18.398C166.671 18.8287 166.937 19.1453 167.241 19.348C167.57 19.5253 167.975 19.614 168.457 19.614H169.977C170.458 19.614 170.851 19.5253 171.155 19.348C171.484 19.1453 171.763 18.8287 171.991 18.398L174.233 14.256V27.632C174.233 28.1133 174.334 28.468 174.537 28.696C174.765 28.8987 175.119 29 175.601 29H181.453C181.934 29 182.276 28.8987 182.479 28.696C182.707 28.468 182.821 28.1133 182.821 27.632V3.008C182.821 2.52667 182.707 2.18467 182.479 1.982C182.276 1.754 181.934 1.64 181.453 1.64H175.297C174.891 1.64 174.549 1.72867 174.271 1.906C174.017 2.08333 173.777 2.37467 173.549 2.78L170.167 8.974C170.04 9.202 169.926 9.36667 169.825 9.468C169.749 9.56933 169.635 9.62 169.483 9.62H169.141C168.989 9.62 168.862 9.56933 168.761 9.468C168.685 9.36667 168.583 9.202 168.457 8.974L165.037 2.78C164.809 2.37467 164.555 2.08333 164.277 1.906C164.023 1.72867 163.694 1.64 163.289 1.64H157.171C156.689 1.64 156.335 1.754 156.107 1.982C155.904 2.18467 155.803 2.52667 155.803 3.008V27.632C155.803 28.1133 155.904 28.468 156.107 28.696C156.335 28.8987 156.689 29 157.171 29H162.833ZM164.049 29.038L159.109 33.142C159.007 33.2433 158.843 33.332 158.615 33.408C158.412 33.484 158.184 33.522 157.931 33.522H152.269C151.661 33.522 151.217 33.3827 150.939 33.104C150.66 32.8253 150.521 32.382 150.521 31.774V7.15C150.521 6.82067 150.559 6.542 150.635 6.314C150.736 6.086 150.875 5.896 151.053 5.744L155.955 1.602C156.081 1.50067 156.246 1.42467 156.449 1.374C156.677 1.298 156.917 1.26 157.171 1.26H163.289C163.77 1.26 164.163 1.36133 164.467 1.564C164.796 1.76666 165.1 2.10866 165.379 2.59L167.963 7.34L168.305 6.732C168.406 6.55466 168.507 6.39 168.609 6.238C168.735 6.06067 168.862 5.92133 168.989 5.82L173.891 1.716C174.093 1.564 174.296 1.45 174.499 1.374C174.727 1.298 174.993 1.26 175.297 1.26H181.453C182.061 1.26 182.504 1.39933 182.783 1.678C183.061 1.95667 183.201 2.4 183.201 3.008V27.632C183.201 27.9613 183.15 28.24 183.049 28.468C182.973 28.696 182.846 28.886 182.669 29.038L177.729 33.142C177.627 33.2433 177.463 33.332 177.235 33.408C177.032 33.484 176.804 33.522 176.551 33.522H170.699C170.065 33.522 169.609 33.3827 169.331 33.104C169.077 32.8253 168.951 32.382 168.951 31.774V21.742L166.709 23.604C166.506 23.7813 166.265 23.9207 165.987 24.022C165.733 24.098 165.429 24.136 165.075 24.136H164.581V27.632C164.581 27.9613 164.53 28.24 164.429 28.468C164.353 28.696 164.226 28.886 164.049 29.038Z" fill="white"/>
</svg>
