<svg width="135" height="23" viewBox="0 0 135 23" fill="none" xmlns="http://www.w3.org/2000/svg">
<path d="M9.96 8.59C9.6 7.83 9.42 7.11 9.42 6.43C9.42 5.73 9.51 5.09 9.69 4.51C9.87 3.91 10.17 3.33 10.59 2.77C11.01 2.19 11.6 1.71 12.36 1.33C13.4 0.789999 14.65 0.519999 16.11 0.519999C18.03 0.519999 19.85 1.01 21.57 1.99C23.83 3.27 25.4 5.04 26.28 7.3C26.78 8.54 27.03 9.87 27.03 11.29C27.03 14.63 25.82 17.32 23.4 19.36C21 21.4 17.86 22.42 13.98 22.42C10.12 22.42 6.97 21.4 4.53 19.36C2.11 17.32 0.9 14.64 0.9 11.32C0.9 8.84 1.6 6.69 3 4.87C4.42 3.03 6.33 1.78 8.73 1.12L8.91 1.39C7.89 2.25 7.12 3.51 6.6 5.17C6.08 6.83 5.82 8.62 5.82 10.54C5.82 13.78 6.57 16.36 8.07 18.28C9.57 20.2 11.53 21.16 13.95 21.16C16.39 21.16 18.35 20.26 19.83 18.46C21.33 16.64 22.08 14.24 22.08 11.26C22.08 9.46 21.8 7.84 21.24 6.4C20.7 4.94 19.91 3.82 18.87 3.04C17.83 2.24 16.67 1.84 15.39 1.84C13.97 1.84 12.82 2.21 11.94 2.95C10.7 4.01 10.08 5.36 10.08 7C10.08 7.52 10.15 8.05 10.29 8.59H9.96ZM37.1963 2.32H35.9063C35.8663 2.32 35.8363 2.32 35.8163 2.32V19.81C35.8363 20.55 36.1563 21.1 36.7763 21.46C37.0763 21.62 37.3963 21.7 37.7363 21.7H38.1263V22H29.0063V21.7H29.3963C30.1163 21.7 30.6663 21.39 31.0463 20.77C31.2063 20.49 31.2963 20.18 31.3163 19.84V3.19C31.2963 2.67 31.0963 2.23 30.7163 1.87C30.3563 1.49 29.9163 1.3 29.3963 1.3H29.0063V0.999999H39.2963C41.2363 0.999999 42.8763 1.42 44.2163 2.26C44.8963 2.68 45.4363 3.27 45.8363 4.03C46.2363 4.77 46.4363 5.62 46.4363 6.58C46.4363 7.52 46.2663 8.39 45.9263 9.19C45.6063 9.99 45.0563 10.69 44.2763 11.29C43.5163 11.89 42.5963 12.25 41.5163 12.37C42.6763 12.75 43.6963 13.63 44.5763 15.01C46.7363 18.47 48.3363 20.53 49.3763 21.19C49.8963 21.51 50.5463 21.68 51.3263 21.7V22H48.3863C46.6863 22 45.2663 21.77 44.1263 21.31C42.9863 20.83 42.0563 20.02 41.3363 18.88C40.9763 18.3 40.5163 17.43 39.9563 16.27C39.3963 15.09 39.0263 14.25 38.8463 13.75C38.3063 12.55 37.6263 11.88 36.8063 11.74V11.44H37.7363C38.6363 11.44 39.4263 11.17 40.1063 10.63C40.8063 10.09 41.2763 9.21 41.5163 7.99C41.5963 7.57 41.6363 7.24 41.6363 7C41.6363 5.36 41.3063 4.18 40.6463 3.46C39.9863 2.72 39.1363 2.34 38.0963 2.32C37.8963 2.32 37.5963 2.32 37.1963 2.32ZM51.3375 21.7C51.8575 21.7 52.2975 21.52 52.6575 21.16C53.0375 20.78 53.2375 20.33 53.2575 19.81V3.16C53.2375 2.64 53.0375 2.2 52.6575 1.84C52.2975 1.48 51.8575 1.3 51.3375 1.3H50.9475V0.999999H60.0675L60.0375 1.3H59.6775C59.1575 1.3 58.7075 1.48 58.3275 1.84C57.9475 2.2 57.7575 2.64 57.7575 3.16V19.81C57.7575 20.33 57.9475 20.78 58.3275 21.16C58.7075 21.52 59.1575 21.7 59.6775 21.7H60.0375L60.0675 22H50.9475V21.7H51.3375ZM74.3259 22.39C70.4659 22.39 67.4359 21.42 65.2359 19.48C63.0359 17.54 61.9359 14.88 61.9359 11.5C61.9359 8.12 63.0259 5.46 65.2059 3.52C67.3859 1.56 70.3759 0.579999 74.1759 0.579999C77.0759 0.579999 79.5659 1.12 81.6459 2.2L81.7059 7.36H81.4659C80.4459 3.68 78.1159 1.84 74.4759 1.84C72.1159 1.84 70.2459 2.7 68.8659 4.42C67.5059 6.12 66.8259 8.45 66.8259 11.41C66.8259 14.37 67.4759 16.72 68.7759 18.46C70.0959 20.2 71.8759 21.1 74.1159 21.16C76.4359 21.16 78.2059 20.58 79.4259 19.42C80.6659 18.22 81.5259 16.16 82.0059 13.24H82.2459L82.5459 18.4C80.9259 21.08 78.1859 22.41 74.3259 22.39ZM106.134 21.7H106.404V22H96.8341V21.7H97.1041C97.5441 21.7 97.8641 21.57 98.0641 21.31C98.2841 21.03 98.3941 20.77 98.3941 20.53C98.3941 20.29 98.3441 20.05 98.2441 19.81L96.7741 16.12H89.7541L88.1941 19.81C88.0941 20.07 88.0441 20.32 88.0441 20.56C88.0441 20.78 88.1441 21.03 88.3441 21.31C88.5641 21.57 88.9041 21.7 89.3641 21.7H89.6041V22H83.1841V21.7H83.4541C83.9141 21.7 84.3741 21.56 84.8341 21.28C85.2941 21 85.6741 20.58 85.9741 20.02L92.9041 4.33C93.8441 2.35 94.3441 1.04 94.4041 0.399999H94.6741L103.584 19.96C103.884 20.54 104.264 20.98 104.724 21.28C105.184 21.56 105.654 21.7 106.134 21.7ZM90.2641 14.86H96.2641L93.3541 7.48L90.2641 14.86ZM133.879 21.7H134.359V22H125.359V21.73H125.809C126.149 21.73 126.439 21.6 126.679 21.34C126.919 21.06 127.019 20.76 126.979 20.44L125.809 9.55L120.169 19.27C119.429 20.51 119.049 21.62 119.029 22.6H118.729L111.019 9.64L109.849 20.44C109.809 20.76 109.909 21.06 110.149 21.34C110.389 21.6 110.679 21.73 111.019 21.73H111.469V22H105.199V21.7H105.679C106.239 21.7 106.719 21.53 107.119 21.19C107.539 20.85 107.789 20.39 107.869 19.81L110.359 0.579999H110.629L119.929 15.88L128.869 0.579999H129.139L131.689 19.81C131.789 20.39 132.039 20.85 132.439 21.19C132.859 21.53 133.339 21.7 133.879 21.7Z" fill="white"/>
</svg>
